SplineFontDB: 3.2
FontName: ForDrawingTitles-Black
FullName: For Drawing Titles
FamilyName: For Drawing Titles
Weight: Black
Copyright: Karlis Kalviskis, 2024.\nThis Font Software is licensed under the SIL Open Font License.\nThis font was inspired by\n"Archistico",\n"Fredericka the Great" and\n"Gravitas One" fonts.
UComments: "This font was inspired by +IB4A-Archistico+IB0A, +IB4A-Fredericka the Great+IB0A and +IB4A-Gravitas One+IB0A fonts."
Version: 1
ItalicAngle: 0
UnderlinePosition: -120
UnderlineWidth: 112
Ascent: 1638
Descent: 410
InvalidEm: 0
sfntRevision: 0x00010000
LayerCount: 2
Layer: 0 1 "Back" 1
Layer: 1 1 "Fore" 0
XUID: [1021 649 293428461 14757695]
FSType: 0
OS2Version: 3
OS2_WeightWidthSlopeOnly: 0
OS2_UseTypoMetrics: 0
CreationTime: 1305819720
ModificationTime: 1737281387
PfmFamily: 17
TTFWeight: 900
TTFWidth: 5
LineGap: 0
VLineGap: 0
OS2TypoAscent: 1938
OS2TypoAOffset: 0
OS2TypoDescent: -668
OS2TypoDOffset: 0
OS2TypoLinegap: 0
OS2WinAscent: 1938
OS2WinAOffset: 0
OS2WinDescent: 668
OS2WinDOffset: 0
HheadAscent: 1938
HheadAOffset: 0
HheadDescent: -668
HheadDOffset: 0
OS2SubXSize: 1434
OS2SubYSize: 1332
OS2SubXOff: 0
OS2SubYOff: 286
OS2SupXSize: 1434
OS2SupYSize: 1332
OS2SupXOff: 0
OS2SupYOff: 976
OS2StrikeYSize: 114
OS2StrikeYPos: 688
OS2CapHeight: 1418
OS2XHeight: 1112
OS2FamilyClass: 256
OS2Vendor: '    '
OS2CodePages: 00000000.00000000
OS2UnicodeRanges: 8000000f.00000002.00000020.00000000
MarkAttachClasses: 1
DEI: 91125
TtTable: prep
PUSHW_1
 511
SCANCTRL
PUSHB_1
 4
SCANTYPE
EndTTInstrs
ShortTable: maxp 16
  1
  0
  238
  129
  5
  0
  0
  1
  0
  0
  0
  0
  0
  0
  0
  0
EndShort
LangName: 1033 "" "" "" "" "" "" "" "" "" "K+AQEA-rlis Kalvi+AWEA-kis" "" "" "" "This Font Software is licensed under+AAoA-the SIL Open Font License, Version 1.1. " "http://scripts.sil.org/OFL"
GaspTable: 1 65535 3 0
Encoding: UnicodeFull
Compacted: 1
UnicodeInterp: none
NameList: Adobe Glyph List
DisplaySize: -48
AntiAlias: 1
FitToEm: 0
WidthSeparation: 307

StartChar: numbersign
Encoding: 35 35 3
Width: 1542
GlyphClass: 2
Flags: W
LayerCount: 2
Fore
SplineSet
410 422 m 1,0,-1
 150 422 l 1,1,-1
 150 544 l 1,2,-1
 442 544 l 1,3,-1
 528 860 l 1,4,-1
 150 860 l 1,5,-1
 150 986 l 1,6,-1
 562 986 l 1,7,-1
 678 1418 l 1,8,-1
 794 1418 l 1,9,-1
 680 986 l 1,10,-1
 1054 986 l 1,11,-1
 1172 1418 l 1,12,-1
 1288 1418 l 1,13,-1
 1174 986 l 1,14,-1
 1392 986 l 1,15,-1
 1392 860 l 1,16,-1
 1140 860 l 1,17,-1
 1054 544 l 1,18,-1
 1392 544 l 1,19,-1
 1392 422 l 1,20,-1
 1022 422 l 1,21,-1
 910 0 l 1,22,-1
 790 0 l 1,23,-1
 904 422 l 1,24,-1
 528 422 l 1,25,-1
 416 0 l 1,26,-1
 296 0 l 1,27,-1
 410 422 l 1,0,-1
938 544 m 1,28,-1
 1022 860 l 1,29,-1
 646 860 l 1,30,-1
 562 544 l 1,31,-1
 938 544 l 1,28,-1
EndSplineSet
Validated: 1
EndChar

StartChar: percent
Encoding: 37 37 5
Width: 1282
GlyphClass: 2
Flags: W
LayerCount: 2
Fore
SplineSet
348 718 m 256,0,1
 204 718 204 718 131 838 c 0,2,3
 70 938 70 938 70 1088 c 256,4,5
 70 1329 70 1329 217 1421 c 0,6,7
 270 1454 270 1454 348 1454 c 256,8,9
 493 1454 493 1454 567 1335 c 0,10,11
 628 1237 628 1237 628 1088 c 256,12,13
 628 841 628 841 480 751 c 0,14,15
 426 718 426 718 348 718 c 256,0,1
1084 1412 m 1,16,-1
 1138 1332 l 1,17,-1
 208 22 l 1,18,-1
 154 100 l 1,19,-1
 1084 1412 l 1,16,-1
348 786 m 128,-1,21
 378 786 378 786 395 812 c 128,-1,22
 412 838 412 838 419 880 c 0,23,24
 428 934 428 934 428 1040 c 128,-1,25
 428 1146 428 1146 427 1199 c 128,-1,26
 426 1252 426 1252 419 1294 c 128,-1,27
 412 1336 412 1336 395 1361 c 128,-1,28
 378 1386 378 1386 348 1386 c 128,-1,29
 318 1386 318 1386 302 1361 c 128,-1,30
 286 1336 286 1336 278 1294 c 0,31,32
 268 1242 268 1242 268 1136 c 128,-1,33
 268 1030 268 1030 269 976 c 128,-1,34
 270 922 270 922 278 880 c 128,-1,35
 286 838 286 838 302 812 c 128,-1,20
 318 786 318 786 348 786 c 128,-1,21
654 332 m 256,36,37
 654 573 654 573 801 665 c 0,38,39
 854 698 854 698 932 698 c 256,40,41
 1074 698 1074 698 1150 579 c 0,42,43
 1212 482 1212 482 1212 332 c 256,44,45
 1212 88 1212 88 1063 -5 c 0,46,47
 1010 -38 1010 -38 932 -38 c 256,48,49
 788 -38 788 -38 715 82 c 0,50,51
 654 182 654 182 654 332 c 256,36,37
852 332 m 128,-1,53
 852 274 852 274 853 220 c 128,-1,54
 854 166 854 166 861 124 c 128,-1,55
 868 82 868 82 885 56 c 128,-1,56
 902 30 902 30 932 30 c 128,-1,57
 962 30 962 30 979 56 c 128,-1,58
 996 82 996 82 1003 124 c 0,59,60
 1014 190 1014 190 1014 290 c 128,-1,61
 1014 390 1014 390 1012 443 c 128,-1,62
 1010 496 1010 496 1003 538 c 128,-1,63
 996 580 996 580 979 605 c 128,-1,64
 962 630 962 630 932 630 c 128,-1,65
 902 630 902 630 885 605 c 128,-1,66
 868 580 868 580 861 538 c 128,-1,67
 854 496 854 496 853 443 c 128,-1,52
 852 390 852 390 852 332 c 128,-1,53
EndSplineSet
Validated: 1
EndChar

StartChar: ampersand
Encoding: 38 38 6
Width: 1370
GlyphClass: 2
Flags: W
LayerCount: 2
Fore
SplineSet
772 62 m 1,0,1
 663 -38 663 -38 458 -38 c 0,2,3
 174 -38 174 -38 93 148 c 0,4,5
 66 210 66 210 66 296 c 0,6,7
 66 567 66 567 346 702 c 1,8,9
 240 890 240 890 240 1048 c 0,10,11
 240 1217 240 1217 331 1330 c 0,12,13
 431 1454 431 1454 596 1454 c 0,14,15
 934 1454 934 1454 934 1162 c 0,16,17
 934 955 934 955 766 834 c 1,18,19
 866 662 866 662 958 530 c 1,20,-1
 1034 694 l 2,21,22
 1036 700 1036 700 1036 710 c 0,23,24
 1036 758 1036 758 908 758 c 1,25,-1
 908 830 l 1,26,-1
 1246 830 l 1,27,-1
 1246 758 l 1,28,29
 1183 758 1183 758 1162 745 c 0,30,31
 1127 724 1127 724 1106.5 680 c 128,-1,32
 1086 636 1086 636 1059 580 c 128,-1,33
 1032 524 1032 524 1006 468 c 1,34,35
 1088 366 1088 366 1130 347 c 0,36,37
 1150 338 1150 338 1180 338 c 128,-1,38
 1210 338 1210 338 1234 372 c 128,-1,39
 1258 406 1258 406 1258 474 c 1,40,-1
 1304 474 l 1,41,42
 1310 402 1310 402 1310 322 c 128,-1,43
 1310 242 1310 242 1289 169 c 128,-1,44
 1268 96 1268 96 1228 50 c 0,45,46
 1151 -38 1151 -38 1013.5 -38 c 128,-1,47
 876 -38 876 -38 772 62 c 1,0,1
736 884 m 1,48,49
 807 973 807 973 834 1117 c 0,50,51
 842 1160 842 1160 842 1197 c 128,-1,52
 842 1234 842 1234 835 1263 c 128,-1,53
 828 1292 828 1292 815 1315 c 0,54,55
 788 1362 788 1362 742 1362 c 0,56,57
 683 1362 683 1362 656 1259 c 0,58,59
 648 1228 648 1228 648 1168 c 128,-1,60
 648 1108 648 1108 672 1029 c 128,-1,61
 696 950 696 950 736 884 c 1,48,49
388 632 m 1,62,63
 350 590 350 590 350 537 c 128,-1,64
 350 484 350 484 363 437 c 128,-1,65
 376 390 376 390 398 340 c 128,-1,66
 420 290 420 290 448 245 c 128,-1,67
 476 200 476 200 506 166 c 0,68,69
 575 88 575 88 626 88 c 256,70,71
 675 88 675 88 718 118 c 1,72,73
 620 240 620 240 530 391 c 128,-1,74
 440 542 440 542 388 632 c 1,62,63
EndSplineSet
Validated: 1
EndChar

StartChar: quotesingle
Encoding: 39 39 7
Width: 434
GlyphClass: 2
Flags: W
LayerCount: 2
Fore
SplineSet
192 1122 m 1,0,1
 182 1238 182 1238 170 1286 c 128,-1,2
 158 1334 158 1334 150 1365 c 128,-1,3
 142 1396 142 1396 133 1431 c 128,-1,4
 124 1466 124 1466 116 1500 c 0,5,6
 100 1568 100 1568 100 1606 c 128,-1,7
 100 1644 100 1644 110 1664 c 128,-1,8
 120 1684 120 1684 137 1697 c 0,9,10
 175 1726 175 1726 218 1726 c 256,11,12
 259 1726 259 1726 287 1705 c 0,13,14
 336 1667 336 1667 336 1631 c 0,15,16
 336 1560 336 1560 314 1478 c 128,-1,17
 292 1396 292 1396 281 1354 c 128,-1,18
 270 1312 270 1312 260 1237 c 128,-1,19
 250 1162 250 1162 244 1122 c 1,20,-1
 192 1122 l 1,0,1
EndSplineSet
Validated: 1
EndChar

StartChar: parenleft
Encoding: 40 40 8
Width: 582
GlyphClass: 2
Flags: W
LayerCount: 2
Fore
SplineSet
102 708 m 256,0,1
 102 1179 102 1179 219 1430 c 0,2,3
 274 1548 274 1548 376 1605 c 128,-1,4
 478 1662 478 1662 576 1662 c 1,5,-1
 576 1596 l 1,6,7
 552 1596 552 1596 510 1584 c 128,-1,8
 468 1572 468 1572 456 1539 c 128,-1,9
 444 1506 444 1506 436 1445 c 128,-1,10
 428 1384 428 1384 424 1286 c 0,11,12
 416 1090 416 1090 416 708 c 256,13,14
 416 122 416 122 436 -28 c 0,15,16
 444 -88 444 -88 456 -122 c 128,-1,17
 468 -156 468 -156 509 -167 c 128,-1,18
 550 -178 550 -178 576 -178 c 1,19,-1
 576 -248 l 1,20,21
 478 -248 478 -248 376 -190 c 128,-1,22
 274 -132 274 -132 219 -13 c 0,23,24
 102 240 102 240 102 708 c 256,0,1
EndSplineSet
Validated: 1
EndChar

StartChar: parenright
Encoding: 41 41 9
Width: 582
GlyphClass: 2
Flags: W
LayerCount: 2
Fore
SplineSet
474 708 m 256,0,1
 474 240 474 240 357 -13 c 0,2,3
 302 -132 302 -132 200 -190 c 128,-1,4
 98 -248 98 -248 0 -248 c 1,5,6
 0 -248 0 -248 0 -178 c 1,7,8
 26 -178 26 -178 67 -167 c 128,-1,9
 108 -156 108 -156 120 -122 c 128,-1,10
 132 -88 132 -88 140 -28 c 128,-1,11
 148 32 148 32 152 131 c 0,12,13
 160 329 160 329 160 708 c 256,14,15
 160 1292 160 1292 146 1399 c 128,-1,16
 132 1506 132 1506 120 1539 c 128,-1,17
 108 1572 108 1572 66 1584 c 128,-1,18
 24 1596 24 1596 0 1596 c 1,19,20
 0 1596 0 1596 0 1662 c 1,21,22
 98 1662 98 1662 200 1605 c 128,-1,23
 302 1548 302 1548 357 1430 c 0,24,25
 474 1179 474 1179 474 708 c 256,0,1
EndSplineSet
Validated: 1
EndChar

StartChar: asterisk
Encoding: 42 42 10
Width: 728
VWidth: 1778
GlyphClass: 2
Flags: W
LayerCount: 2
Fore
SplineSet
362 614 m 260,0,1
 328 614 328 614 307 635 c 132,-1,2
 286 656 286 656 286 682 c 260,3,4
 286 728 286 728 314 796 c 132,-1,5
 342 864 342 864 344 882 c 5,6,7
 314 852 314 852 300 833 c 132,-1,8
 286 814 286 814 271 795 c 132,-1,9
 256 776 256 776 240 761 c 4,10,11
 198 722 198 722 174 722 c 132,-1,12
 150 722 150 722 136 730 c 132,-1,13
 122 738 122 738 112 749 c 4,14,15
 90 773 90 773 90 801.5 c 132,-1,16
 90 830 90 830 108 847 c 132,-1,17
 126 864 126 864 153 874 c 4,18,19
 188 887 188 887 232 892 c 4,20,21
 293 898 293 898 330 910 c 5,22,23
 298 920 298 920 267 924 c 132,-1,24
 236 928 236 928 206 933 c 132,-1,25
 176 938 176 938 151 948 c 4,26,27
 90 972 90 972 90 1018 c 4,28,29
 90 1067 90 1067 138 1091 c 4,30,31
 152 1098 152 1098 167 1098 c 132,-1,32
 182 1098 182 1098 202 1086 c 132,-1,33
 222 1074 222 1074 239 1057 c 4,34,35
 276 1020 276 1020 304 985 c 132,-1,36
 332 950 332 950 344 938 c 5,37,38
 335 980 335 980 321 1012 c 4,39,40
 286 1098 286 1098 286 1136 c 260,41,42
 286 1164 286 1164 307 1185 c 132,-1,43
 328 1206 328 1206 362 1206 c 260,44,45
 396 1206 396 1206 416 1186 c 132,-1,46
 436 1166 436 1166 436 1137 c 4,47,48
 436 1085 436 1085 400 1008 c 4,49,50
 388 976 388 976 378 938 c 5,51,52
 390 950 390 950 404 963 c 132,-1,53
 418 976 418 976 430 993 c 132,-1,54
 442 1010 442 1010 457 1029 c 132,-1,55
 472 1048 472 1048 488 1063 c 4,56,57
 525 1098 525 1098 549.5 1098 c 132,-1,58
 574 1098 574 1098 587 1091 c 132,-1,59
 600 1084 600 1084 611 1072 c 4,60,61
 632 1049 632 1049 632 1020.5 c 132,-1,62
 632 992 632 992 614 975 c 132,-1,63
 596 958 596 958 569 948 c 4,64,65
 526 932 526 932 487 928 c 4,66,67
 428 922 428 922 396 910 c 5,68,69
 414 906 414 906 431 902 c 132,-1,70
 448 898 448 898 468 894 c 132,-1,71
 488 890 488 890 517 885 c 132,-1,72
 546 880 546 880 572 870 c 4,73,74
 632 847 632 847 632 806 c 0,75,76
 632 804 632 804 632 802 c 4,77,78
 632 753 632 753 587 729 c 4,79,80
 574 722 574 722 556 722 c 132,-1,81
 538 722 538 722 519 734 c 132,-1,82
 500 746 500 746 482 763 c 4,83,84
 448 795 448 795 433 820 c 4,85,86
 413 852 413 852 378 882 c 5,87,88
 386 846 386 846 400 812 c 4,89,90
 436 725 436 725 436 689.5 c 132,-1,91
 436 654 436 654 416 634 c 132,-1,92
 396 614 396 614 362 614 c 260,0,1
EndSplineSet
Validated: 1
EndChar

StartChar: plus
Encoding: 43 43 11
Width: 888
GlyphClass: 2
Flags: W
LayerCount: 2
Fore
SplineSet
382 428 m 5,0,-1
 126 428 l 5,1,-1
 126 552 l 5,2,3
 126 552 126 552 382 552 c 5,4,5
 382 552 382 552 382 808 c 5,6,-1
 506 808 l 5,7,-1
 506 552 l 5,8,-1
 762 552 l 5,9,-1
 762 428 l 5,10,-1
 506 428 l 5,11,12
 506 428 506 428 506 174 c 5,13,-1
 382 174 l 5,14,-1
 382 428 l 5,0,-1
EndSplineSet
Validated: 1
EndChar

StartChar: comma
Encoding: 44 44 12
Width: 618
VWidth: 1454
GlyphClass: 2
Flags: W
LayerCount: 2
Fore
SplineSet
136 84 m 132,-1,1
 118 112 118 112 118 154 c 132,-1,2
 118 196 118 196 134 227 c 132,-1,3
 150 258 150 258 174 282 c 4,4,5
 224 332 224 332 287 332 c 132,-1,6
 350 332 350 332 386 318 c 132,-1,7
 422 304 422 304 449 277 c 4,8,9
 506 220 506 220 506 127 c 132,-1,10
 506 34 506 34 479 -30 c 132,-1,11
 452 -94 452 -94 407 -142 c 4,12,13
 316 -239 316 -239 188 -268 c 5,14,-1
 168 -242 l 5,15,16
 263 -208 263 -208 319 -130 c 4,17,18
 360 -73 360 -73 360 -41.5 c 132,-1,19
 360 -10 360 -10 342 -3 c 132,-1,20
 324 4 324 4 297 8 c 132,-1,21
 270 12 270 12 238 19 c 132,-1,22
 206 26 206 26 180 41 c 132,-1,0
 154 56 154 56 136 84 c 132,-1,1
EndSplineSet
Validated: 1
EndChar

StartChar: hyphen
Encoding: 45 45 13
Width: 888
GlyphClass: 2
Flags: W
LayerCount: 2
Fore
SplineSet
126 550 m 5,0,-1
 762 550 l 5,1,-1
 762 426 l 5,2,-1
 126 426 l 5,3,-1
 126 550 l 5,0,-1
EndSplineSet
Validated: 1
EndChar

StartChar: period
Encoding: 46 46 14
Width: 624
VWidth: 1500
GlyphClass: 2
Flags: W
LayerCount: 2
Fore
SplineSet
124 152 m 256,0,1
 124 228 124 228 182 286 c 0,2,3
 236 340 236 340 318 340 c 0,4,5
 398 340 398 340 452 286 c 0,6,7
 508 230 508 230 508 152 c 256,8,9
 508 74 508 74 452 18 c 0,10,11
 398 -36 398 -36 318 -36 c 0,12,13
 193 -36 193 -36 140 79 c 0,14,15
 124 114 124 114 124 152 c 256,0,1
EndSplineSet
Validated: 1
EndChar

StartChar: slash
Encoding: 47 47 15
Width: 804
GlyphClass: 2
Flags: W
LayerCount: 2
Fore
SplineSet
832 1536 m 1,0,-1
 932 1484 l 1,1,-1
 -22 -484 l 1,2,-1
 -126 -432 l 1,3,-1
 832 1536 l 1,0,-1
EndSplineSet
Validated: 1
EndChar

StartChar: zero
Encoding: 48 48 16
Width: 1308
GlyphClass: 2
Flags: W
LayerCount: 2
Fore
SplineSet
594 711 m 132,-1,1
 594 758 594 758 611 791 c 132,-1,2
 628 824 628 824 654 824 c 132,-1,3
 680 824 680 824 697 791 c 132,-1,4
 714 758 714 758 714 711 c 132,-1,5
 714 664 714 664 697 631 c 132,-1,6
 680 598 680 598 654 598 c 132,-1,7
 628 598 628 598 611 631 c 132,-1,0
 594 664 594 664 594 711 c 132,-1,1
656 -38 m 260,8,9
 204 -38 204 -38 204 708 c 4,10,11
 204 925 204 925 234 1043.5 c 132,-1,12
 264 1162 264 1162 298 1231 c 132,-1,13
 332 1300 332 1300 381 1350 c 4,14,15
 483 1454 483 1454 656 1454 c 4,16,17
 1104 1454 1104 1454 1104 708 c 260,18,19
 1104 493 1104 493 1074 374.5 c 132,-1,20
 1044 256 1044 256 1011 186 c 132,-1,21
 978 116 978 116 928 66 c 4,22,23
 824 -38 824 -38 656 -38 c 260,8,9
656 30 m 132,-1,25
 686 30 686 30 703 61 c 132,-1,26
 720 92 720 92 730 170 c 132,-1,27
 740 248 740 248 743 379 c 132,-1,28
 746 510 746 510 746 708 c 132,-1,29
 746 906 746 906 743 1038 c 132,-1,30
 740 1170 740 1170 730 1247 c 4,31,32
 712 1386 712 1386 656 1386 c 4,33,34
 595 1386 595 1386 579 1247 c 4,35,36
 564 1119 564 1119 564 813.5 c 132,-1,37
 564 508 564 508 567 378 c 132,-1,38
 570 248 570 248 579 170 c 132,-1,39
 588 92 588 92 607 61 c 132,-1,24
 626 30 626 30 656 30 c 132,-1,25
EndSplineSet
Validated: 1
EndChar

StartChar: one
Encoding: 49 49 17
Width: 812
GlyphClass: 2
Flags: W
LayerCount: 2
Fore
SplineSet
140 1324 m 1,0,1
 279 1324 279 1324 364 1418 c 1,2,-1
 604 1418 l 1,3,-1
 604 80 l 1,4,-1
 702 80 l 1,5,-1
 702 0 l 1,6,-1
 140 0 l 1,7,-1
 140 80 l 1,8,-1
 240 80 l 1,9,-1
 240 1244 l 1,10,-1
 140 1244 l 1,11,-1
 140 1324 l 1,0,1
EndSplineSet
Validated: 1
EndChar

StartChar: two
Encoding: 50 50 18
Width: 1166
GlyphClass: 2
Flags: W
LayerCount: 2
Fore
SplineSet
886 450 m 1,0,1
 917 505 917 505 946 598 c 1,2,-1
 980 596 l 1,3,-1
 938 0 l 1,4,-1
 186 0 l 1,5,-1
 186 98 l 1,6,7
 350 341 350 341 466 600 c 1,8,9
 612 912 612 912 612 1148 c 128,-1,10
 612 1384 612 1384 482 1384 c 0,11,12
 452 1384 452 1384 422 1374 c 1,13,14
 536 1307 536 1307 536 1148 c 0,15,16
 536 1046 536 1046 483 974 c 0,17,18
 432 904 432 904 354 904 c 256,19,20
 278 904 278 904 224 974 c 0,21,22
 170 1045 170 1045 170 1133.5 c 128,-1,23
 170 1222 170 1222 198 1280 c 128,-1,24
 226 1338 226 1338 279 1377 c 0,25,26
 384 1454 384 1454 566 1454 c 0,27,28
 800 1454 800 1454 902 1275 c 0,29,30
 960 1173 960 1173 960 1024 c 0,31,32
 960 865 960 865 894 758 c 0,33,34
 864 704 864 704 814 658 c 128,-1,35
 764 612 764 612 695 577 c 128,-1,36
 626 542 626 542 616 536 c 0,37,38
 570 518 570 518 524 498 c 1,39,40
 524 498 524 498 500 450 c 1,41,-1
 886 450 l 1,0,1
EndSplineSet
Validated: 1
EndChar

StartChar: three
Encoding: 51 51 19
Width: 1178
GlyphClass: 2
Flags: W
LayerCount: 2
Fore
SplineSet
652 1118 m 0,0,1
 652 1380 652 1380 514 1380 c 0,2,3
 454 1380 454 1380 414 1360 c 1,4,5
 477 1343 477 1343 519 1275 c 0,6,7
 560 1208 560 1208 560 1137 c 128,-1,8
 560 1066 560 1066 545 1022 c 128,-1,9
 530 978 530 978 506 946 c 0,10,11
 452 874 452 874 378 874 c 256,12,13
 302 874 302 874 248 946 c 128,-1,14
 194 1018 194 1018 194 1106 c 128,-1,15
 194 1194 194 1194 221 1255 c 128,-1,16
 248 1316 248 1316 298 1361 c 0,17,18
 401 1454 401 1454 578 1454 c 0,19,20
 805 1454 805 1454 915 1294 c 0,21,22
 976 1206 976 1206 976 1057 c 128,-1,23
 976 908 976 908 877 825 c 128,-1,24
 778 742 778 742 572 738 c 1,25,26
 885 731 885 731 971 541 c 0,27,28
 1002 472 1002 472 1002 369 c 128,-1,29
 1002 266 1002 266 974 188 c 128,-1,30
 946 110 946 110 894 60 c 128,-1,31
 842 10 842 10 766 -14 c 128,-1,32
 690 -38 690 -38 598 -38 c 128,-1,33
 506 -38 506 -38 429 -19 c 128,-1,34
 352 0 352 0 297 39 c 0,35,36
 182 121 182 121 182 270 c 0,37,38
 182 370 182 370 237 443 c 0,39,40
 291 514 291 514 366 514 c 256,41,42
 444 514 444 514 496 443 c 0,43,44
 550 369 550 369 550 270 c 0,45,46
 550 154 550 154 485 83 c 0,47,48
 464 60 464 60 440 46 c 1,49,50
 476 34 476 34 510 34 c 128,-1,51
 544 34 544 34 569 48 c 128,-1,52
 594 62 594 62 612 97 c 0,53,54
 650 171 650 171 650 336 c 0,55,56
 650 559 650 559 534 636 c 0,57,58
 498 660 498 660 452 664 c 1,59,-1
 452 772 l 1,60,61
 536 783 536 783 593 879 c 0,62,63
 652 977 652 977 652 1118 c 0,0,1
EndSplineSet
Validated: 1
EndChar

StartChar: four
Encoding: 52 52 20
Width: 1122
GlyphClass: 2
Flags: W
LayerCount: 2
Fore
SplineSet
158 448 m 1,0,-1
 578 1434 l 1,1,-1
 852 1434 l 1,2,-1
 852 448 l 1,3,-1
 972 448 l 1,4,-1
 972 360 l 1,5,-1
 852 360 l 1,6,-1
 852 80 l 1,7,-1
 952 80 l 1,8,-1
 952 0 l 1,9,-1
 388 0 l 1,10,-1
 388 80 l 1,11,-1
 488 80 l 1,12,-1
 488 360 l 1,13,-1
 158 360 l 1,14,-1
 158 448 l 1,0,-1
488 448 m 1,15,-1
 488 1012 l 1,16,-1
 250 448 l 1,17,-1
 488 448 l 1,15,-1
EndSplineSet
Validated: 1
EndChar

StartChar: five
Encoding: 53 53 21
Width: 1182
GlyphClass: 2
Flags: W
LayerCount: 2
Fore
SplineSet
629 802 m 0,0,1
 986 802 986 802 986 402 c 0,2,3
 986 53 986 53 730 -16 c 0,4,5
 648 -38 648 -38 555 -38 c 0,6,7
 364 -38 364 -38 266 30.5 c 128,-1,8
 168 99 168 99 168 260 c 128,-1,9
 168 421 168 421 281 479 c 0,10,11
 314 496 314 496 350 496 c 256,12,13
 427 496 427 496 480.5 434 c 128,-1,14
 534 372 534 372 534 284 c 0,15,16
 534 103 534 103 408 36 c 1,17,18
 458 26 458 26 488 26 c 0,19,20
 554 26 554 26 596 106 c 128,-1,21
 638 186 638 186 638 334 c 0,22,23
 638 644 638 644 444 644 c 0,24,25
 365 644 365 644 270 582 c 1,26,-1
 244 638 l 1,27,-1
 302 1418 l 1,28,29
 353 1416 353 1416 405.5 1404.5 c 128,-1,30
 458 1393 458 1393 476 1390 c 2,31,32
 476 1390 476 1390 560 1376 c 128,-1,33
 644 1362 644 1362 698 1362 c 0,34,35
 831 1362 831 1362 914 1428 c 1,36,-1
 948 1428 l 1,37,38
 948 1428 948 1428 954 1272 c 1,39,40
 954 1208 954 1208 934 1141 c 128,-1,41
 914 1074 914 1074 879 1035 c 0,42,43
 817 966 817 966 715 966 c 128,-1,44
 613 966 613 966 495 1026 c 0,45,46
 471 1038 471 1038 416.5 1055 c 128,-1,47
 362 1072 362 1072 357 1074 c 1,48,-1
 320 702 l 1,49,50
 470 802 470 802 629 802 c 0,0,1
EndSplineSet
Validated: 1
EndChar

StartChar: six
Encoding: 54 54 22
Width: 1224
GlyphClass: 2
Flags: W
LayerCount: 2
Fore
SplineSet
558 832 m 1,0,1
 672 912 672 912 748 912 c 128,-1,2
 824 912 824 912 875 880 c 128,-1,3
 926 848 926 848 961 792 c 0,4,5
 1034 675 1034 675 1034 486 c 0,6,7
 1034 78 1034 78 781 -16 c 0,8,9
 722 -38 722 -38 642 -38 c 128,-1,10
 562 -38 562 -38 495 -15 c 128,-1,11
 428 8 428 8 379 51 c 128,-1,12
 330 94 330 94 295 156 c 128,-1,13
 260 218 260 218 239 296 c 128,-1,14
 218 374 218 374 208 469 c 128,-1,15
 198 564 198 564 198 670 c 128,-1,16
 198 776 198 776 207 876 c 128,-1,17
 216 976 216 976 235 1063 c 128,-1,18
 254 1150 254 1150 287 1222 c 128,-1,19
 320 1294 320 1294 370 1346 c 0,20,21
 474 1454 474 1454 646 1454 c 0,22,23
 895 1454 895 1454 972 1288 c 0,24,25
 996 1236 996 1236 996 1181 c 128,-1,26
 996 1126 996 1126 983 1088 c 128,-1,27
 970 1050 970 1050 949 1024 c 0,28,29
 905 970 905 970 832 970 c 256,30,31
 760 970 760 970 710 1024 c 0,32,33
 662 1076 662 1076 662 1176 c 0,34,35
 662 1333 662 1333 784 1366 c 1,36,37
 756 1374 756 1374 713 1374 c 128,-1,38
 670 1374 670 1374 638 1349 c 128,-1,39
 606 1324 606 1324 589 1260 c 0,40,41
 562 1159 562 1159 558 832 c 1,0,1
636 40 m 0,42,43
 728 40 728 40 728 358 c 0,44,45
 728 555 728 555 708 620.5 c 128,-1,46
 688 686 688 686 666 709 c 128,-1,47
 644 732 644 732 615 732 c 128,-1,48
 586 732 586 732 558 718 c 1,49,-1
 558 698 l 2,50,51
 558 311 558 311 567 217 c 0,52,53
 584 40 584 40 636 40 c 0,42,43
EndSplineSet
Validated: 1
EndChar

StartChar: seven
Encoding: 55 55 23
Width: 1134
GlyphClass: 2
Flags: W
LayerCount: 2
Fore
SplineSet
822 1152 m 0,0,1
 784 1118 784 1118 729 1088 c 128,-1,2
 674 1058 674 1058 617 1050 c 0,3,4
 564 1043 564 1043 551 1043 c 0,5,6
 550 1044 550 1044 549 1044 c 0,7,8
 538 1044 538 1044 521 1045 c 128,-1,9
 504 1046 504 1046 458 1046 c 128,-1,10
 412 1046 412 1046 412 1050 c 256,11,12
 412 1052 412 1052 368 1055 c 128,-1,13
 324 1058 324 1058 294 1058 c 0,14,15
 280 1058 280 1058 270 1026 c 128,-1,16
 260 994 260 994 251 965.5 c 128,-1,17
 242 937 242 937 242 838 c 1,18,19
 242 838 242 838 200 838 c 1,20,-1
 200 1442 l 1,21,-1
 246 1442 l 1,22,-1
 246 1360 l 1,23,24
 320 1448 320 1448 433 1448 c 0,25,26
 480 1448 480 1448 589.5 1411 c 128,-1,27
 699 1374 699 1374 754 1374 c 0,28,29
 843 1374 843 1374 912 1454 c 1,30,31
 912 1454 912 1454 964 1454 c 1,32,-1
 964 1178 l 2,33,34
 964 1164 964 1164 924 1056 c 0,35,36
 884 950 884 950 862 886 c 128,-1,37
 840 822 840 822 816 753 c 0,38,39
 694 401 694 401 694 244 c 0,40,41
 694 -38 694 -38 530 -38 c 0,42,43
 450 -38 450 -38 402 39 c 128,-1,44
 354 116 354 116 354 212 c 128,-1,45
 354 308 354 308 370 371 c 128,-1,46
 386 434 386 434 420 507 c 128,-1,47
 454 580 454 580 517 662 c 128,-1,48
 580 744 580 744 702.5 874 c 128,-1,49
 825 1004 825 1004 858 1089 c 0,50,51
 880 1146 880 1146 880 1167 c 0,52,53
 880 1178 880 1178 875 1180 c 0,54,55
 873 1181 873 1181 870 1180 c 0,56,57
 854 1181 854 1181 822 1152 c 0,0,1
EndSplineSet
Validated: 1
EndChar

StartChar: eight
Encoding: 56 56 24
Width: 1196
GlyphClass: 2
Flags: W
LayerCount: 2
Fore
SplineSet
178 313 m 0,0,1
 178 425 178 425 231 499 c 0,2,3
 256 534 256 534 318.5 585 c 128,-1,4
 381 636 381 636 419 654 c 1,5,6
 250 856 250 856 230 1033 c 0,7,8
 227 1059 227 1059 227 1085 c 0,9,10
 227 1143 227 1143 242 1203 c 1,11,12
 249 1263 249 1263 312 1332 c 0,13,14
 423 1454 423 1454 602 1454 c 0,15,16
 852 1454 852 1454 928 1284 c 0,17,18
 954 1226 954 1226 954 1138 c 0,19,20
 954 985 954 985 793 810 c 1,21,22
 806 810 806 810 845.5 760 c 128,-1,23
 885 710 885 710 924 662 c 0,24,25
 962 614 962 614 994 528 c 0,26,27
 1020 456 1020 456 1021 405 c 0,28,29
 1021 395 1021 395 1020 387 c 0,30,31
 997 154 997 154 901 68 c 0,32,33
 783 -38 783 -38 560 -38 c 0,34,35
 406 -38 406 -38 302 41 c 0,36,37
 178 136 178 136 178 313 c 0,0,1
668 912 m 1,38,39
 698 958 698 958 728 1034 c 128,-1,40
 758 1110 758 1110 758 1168 c 0,41,42
 758 1369 758 1369 638 1382 c 0,43,44
 631 1383 631 1383 624 1383 c 0,45,46
 564 1383 564 1383 516 1322 c 0,47,48
 482 1278 482 1278 477 1249 c 128,-1,49
 472 1220 472 1220 472 1166.5 c 128,-1,50
 472 1113 472 1113 530 1043 c 128,-1,51
 588 973 588 973 668 912 c 1,38,39
440 440 m 1,52,53
 394 379 394 379 394 296 c 1,54,55
 394 296 394 296 395 258 c 128,-1,56
 396 220 396 220 410 171 c 0,57,58
 452 28 452 28 552 28 c 2,59,60
 552 28 552 28 592 28 c 257,61,62
 630 30 630 30 674 61 c 0,63,64
 716 92 716 92 731 124 c 0,65,66
 745 154 745 154 745 167 c 0,67,68
 745 168 745 168 745 169 c 1,69,70
 739 182 739 182 735 218 c 0,71,72
 720 350 720 350 522 535 c 1,73,74
 522 535 522 535 440 440 c 1,52,53
EndSplineSet
Validated: 1
EndChar

StartChar: nine
Encoding: 57 57 25
Width: 1222
GlyphClass: 2
Flags: W
LayerCount: 2
Fore
SplineSet
664 586 m 1,0,1
 550 506 550 506 473 506 c 128,-1,2
 396 506 396 506 345 538 c 128,-1,3
 294 570 294 570 259 626 c 0,4,5
 186 743 186 743 186 932 c 0,6,7
 186 1143 186 1143 267 1285 c 0,8,9
 363 1454 363 1454 574 1454 c 0,10,11
 930 1454 930 1454 1000 1038 c 0,12,13
 1022 908 1022 908 1022 775 c 128,-1,14
 1022 642 1022 642 1014 541 c 128,-1,15
 1006 440 1006 440 986 353 c 128,-1,16
 966 266 966 266 934 194 c 128,-1,17
 902 122 902 122 852 70 c 0,18,19
 748 -38 748 -38 576 -38 c 0,20,21
 324 -38 324 -38 249 129 c 0,22,23
 226 180 226 180 226 236 c 128,-1,24
 226 292 226 292 238 329 c 128,-1,25
 250 366 250 366 272 393 c 0,26,27
 315 446 315 446 390 446 c 256,28,29
 507 446 507 446 547 328 c 0,30,31
 560 290 560 290 560 242 c 0,32,33
 560 85 560 85 436 52 c 1,34,35
 464 44 464 44 508 44 c 128,-1,36
 552 44 552 44 583 69 c 128,-1,37
 614 94 614 94 632 157 c 0,38,39
 660 254 660 254 664 586 c 1,0,1
554 708 m 128,-1,41
 576 684 576 684 605 684 c 128,-1,42
 634 684 634 684 664 698 c 1,43,-1
 664 718 l 2,44,45
 664 1105 664 1105 655 1199 c 0,46,47
 638 1376 638 1376 584 1376 c 0,48,49
 542 1376 542 1376 522 1316 c 0,50,51
 494 1232 494 1232 494 1098 c 128,-1,52
 494 964 494 964 500 894 c 128,-1,53
 506 824 506 824 519 778 c 128,-1,40
 532 732 532 732 554 708 c 128,-1,41
EndSplineSet
Validated: 1
EndChar

StartChar: less
Encoding: 60 60 28
Width: 582
GlyphClass: 2
Flags: W
LayerCount: 2
Fore
SplineSet
-4 490 m 5,0,-1
 502 972 l 5,1,-1
 590 884 l 5,2,-1
 174 490 l 5,3,-1
 590 94 l 5,4,-1
 502 6 l 5,5,-1
 -4 490 l 5,0,-1
EndSplineSet
Validated: 1
EndChar

StartChar: greater
Encoding: 62 62 30
Width: 582
GlyphClass: 2
Flags: W
LayerCount: 2
Fore
SplineSet
594 490 m 5,0,-1
 88 6 l 5,1,-1
 0 94 l 5,2,-1
 416 490 l 5,3,-1
 0 884 l 5,4,-1
 88 972 l 5,5,-1
 594 490 l 5,0,-1
EndSplineSet
Validated: 1
EndChar

StartChar: at
Encoding: 64 64 32
Width: 2080
GlyphClass: 2
Flags: W
LayerCount: 2
Fore
SplineSet
1421 329 m 128,-1,1
 1416 260 1416 260 1416 200 c 128,-1,2
 1416 140 1416 140 1460 140 c 0,3,4
 1536 140 1536 140 1596 209 c 128,-1,5
 1656 278 1656 278 1703 355 c 0,6,7
 1808 527 1808 527 1808 736 c 0,8,9
 1808 1038 1808 1038 1578 1224 c 0,10,11
 1333 1422 1333 1422 1088 1422 c 0,12,13
 823 1422 823 1422 659 1314 c 0,14,15
 457 1181 457 1181 374 1013 c 0,16,17
 256 775 256 775 256 563.5 c 128,-1,18
 256 352 256 352 321 213 c 128,-1,19
 386 74 386 74 481 -15 c 128,-1,20
 576 -104 576 -104 708 -145 c 128,-1,21
 840 -186 840 -186 1044 -186 c 0,22,23
 1425 -186 1425 -186 1842 92 c 1,24,25
 1842 92 1842 92 1890 30 c 1,26,27
 1676 -172 1676 -172 1385 -316 c 0,28,29
 1316 -350 1316 -350 1221 -371 c 128,-1,30
 1126 -392 1126 -392 1017 -392 c 128,-1,31
 908 -392 908 -392 804 -368 c 128,-1,32
 700 -344 700 -344 602 -303 c 128,-1,33
 504 -262 504 -262 423 -193 c 128,-1,34
 342 -124 342 -124 273 -13 c 0,35,36
 116 240 116 240 116 542 c 0,37,38
 116 982 116 982 381 1288 c 0,39,40
 569 1504 569 1504 826 1584 c 0,41,42
 968 1628 968 1628 1166 1628 c 0,43,44
 1285 1628 1285 1628 1455 1544 c 0,45,46
 1680 1433 1680 1433 1800 1268 c 0,47,48
 1952 1060 1952 1060 1952 768 c 0,49,50
 1952 570 1952 570 1860 386 c 0,51,52
 1817 299 1817 299 1774 248 c 0,53,54
 1671 125 1671 125 1609.5 83.5 c 152,-1,55
 1548 42 1548 42 1464 17 c 128,-1,56
 1380 -8 1380 -8 1321 -8 c 128,-1,57
 1262 -8 1262 -8 1221 13 c 128,-1,58
 1180 34 1180 34 1153 69 c 0,59,60
 1105 131 1105 131 1100 232 c 1,61,62
 1026 -8 1026 -8 812 -8 c 0,63,64
 669 -8 669 -8 580 121 c 0,65,66
 496 243 496 243 496 445.5 c 128,-1,67
 496 648 496 648 531 784 c 128,-1,68
 566 920 566 920 627 1008 c 0,69,70
 748 1182 748 1182 942 1182 c 0,71,72
 1066 1182 1066 1182 1132 1090 c 0,73,74
 1190 1009 1190 1009 1194 868 c 1,75,76
 1194 868 1194 868 1228 1076 c 1,77,-1
 1540 1076 l 1,78,79
 1488 889 1488 889 1466 722.5 c 128,-1,80
 1444 556 1444 556 1435 477 c 128,-1,0
 1426 398 1426 398 1421 329 c 128,-1,1
1070 1050 m 0,81,82
 1034 1050 1034 1050 998 1004 c 128,-1,83
 962 958 962 958 934 873 c 0,84,85
 872 685 872 685 872 408.5 c 128,-1,86
 872 132 872 132 958 132 c 0,87,88
 990 132 990 132 1024 178 c 128,-1,89
 1058 224 1058 224 1085 309 c 0,90,91
 1148 507 1148 507 1148 778.5 c 128,-1,92
 1148 1050 1148 1050 1070 1050 c 0,81,82
EndSplineSet
Validated: 1
EndChar

StartChar: A
Encoding: 65 65 33
Width: 1492
GlyphClass: 2
Flags: W
LayerCount: 2
Fore
SplineSet
258 124 m 0,0,1
 258 80 258 80 390 80 c 1,2,-1
 390 0 l 1,3,-1
 64 0 l 1,4,-1
 64 80 l 1,5,6
 122 80 122 80 152 90 c 128,-1,7
 182 100 182 100 192 130 c 1,8,-1
 558 1418 l 1,9,-1
 868 1418 l 1,10,-1
 1296 80 l 1,11,-1
 1422 80 l 1,12,-1
 1422 0 l 1,13,-1
 616 0 l 1,14,-1
 616 80 l 1,15,-1
 754 80 l 1,16,-1
 656 424 l 1,17,-1
 342 424 l 1,18,-1
 258 134 l 1,19,20
 258 134 258 134 258 124 c 0,0,1
632 504 m 1,21,-1
 496 974 l 1,22,-1
 364 504 l 1,23,-1
 632 504 l 1,21,-1
EndSplineSet
Validated: 1
EndChar

StartChar: B
Encoding: 66 66 34
Width: 1378
GlyphClass: 2
Flags: W
LayerCount: 2
Fore
SplineSet
92 80 m 1,0,-1
 218 80 l 1,1,-1
 218 1340 l 1,2,-1
 92 1340 l 1,3,-1
 92 1418 l 1,4,-1
 812 1418 l 2,5,6
 1123 1418 1123 1418 1214 1239 c 0,7,8
 1248 1172 1248 1172 1248 1079 c 128,-1,9
 1248 986 1248 986 1223 925 c 128,-1,10
 1198 864 1198 864 1148 824 c 0,11,12
 1053 748 1053 748 828 744 c 1,13,14
 1130 744 1130 744 1242 620 c 1,15,16
 1314 530 1314 530 1314 401 c 128,-1,17
 1314 272 1314 272 1284 196 c 128,-1,18
 1254 120 1254 120 1196 77 c 0,19,20
 1092 0 1092 0 864 0 c 2,21,-1
 92 0 l 1,22,-1
 92 80 l 1,0,-1
706 774 m 1,23,24
 780 774 780 774 815 828 c 0,25,26
 858 894 858 894 858 1062 c 256,27,28
 858 1299 858 1299 766 1335 c 0,29,30
 738 1346 738 1346 706 1346 c 1,31,-1
 706 774 l 1,23,24
706 80 m 1,32,33
 790 80 790 80 821 127 c 0,34,35
 858 183 858 183 858 358.5 c 128,-1,36
 858 534 858 534 821 617 c 128,-1,37
 784 700 784 700 706 700 c 1,38,-1
 706 80 l 1,32,33
EndSplineSet
Validated: 1
EndChar

StartChar: C
Encoding: 67 67 35
Width: 1324
GlyphClass: 2
Flags: W
LayerCount: 2
Fore
SplineSet
688 1454 m 0,0,1
 918 1454 918 1454 1064 1256 c 1,2,-1
 1150 1440 l 1,3,-1
 1200 1440 l 1,4,-1
 1200 790 l 1,5,-1
 1146 790 l 1,6,7
 1099 1080 1099 1080 980 1222 c 0,8,9
 884 1336 884 1336 766 1336 c 0,10,11
 702 1336 702 1336 676 1311 c 128,-1,12
 650 1286 650 1286 630 1249 c 128,-1,13
 610 1212 610 1212 597 1149 c 0,14,15
 568 1008 568 1008 568 819 c 128,-1,16
 568 630 568 630 574 527 c 128,-1,17
 580 424 580 424 592 347 c 128,-1,18
 604 270 604 270 621 220 c 128,-1,19
 638 170 638 170 663 140 c 0,20,21
 708 86 708 86 783 86 c 128,-1,22
 858 86 858 86 919 117 c 128,-1,23
 980 148 980 148 1028 213 c 0,24,25
 1130 352 1130 352 1146 632 c 1,26,-1
 1208 632 l 1,27,28
 1188 156 1188 156 923 14 c 0,29,30
 826 -38 826 -38 687 -38 c 128,-1,31
 548 -38 548 -38 438 14 c 128,-1,32
 328 66 328 66 249 161 c 0,33,34
 86 357 86 357 86 676 c 0,35,36
 86 1020 86 1020 237 1231 c 0,37,38
 396 1454 396 1454 688 1454 c 0,0,1
EndSplineSet
Validated: 1
EndChar

StartChar: D
Encoding: 68 68 36
Width: 1452
GlyphClass: 2
Flags: W
LayerCount: 2
Fore
SplineSet
92 80 m 1,0,-1
 216 80 l 1,1,-1
 216 1340 l 1,2,-1
 92 1340 l 1,3,-1
 92 1418 l 1,4,-1
 884 1418 l 2,5,6
 1113 1418 1113 1418 1242 1232 c 0,7,8
 1374 1042 1374 1042 1374 708 c 0,9,10
 1374 373 1374 373 1242 185 c 0,11,12
 1112 0 1112 0 884 0 c 2,13,-1
 92 0 l 1,14,-1
 92 80 l 1,0,-1
706 80 m 1,15,16
 779 80 779 80 815 124 c 0,17,18
 894 222 894 222 894 708 c 256,19,20
 894 1199 894 1199 815 1293 c 0,21,22
 776 1340 776 1340 706 1340 c 1,23,-1
 706 80 l 1,15,16
EndSplineSet
Validated: 1
EndChar

StartChar: E
Encoding: 69 69 37
Width: 1350
GlyphClass: 2
Flags: W
LayerCount: 2
Fore
SplineSet
92 80 m 1,0,-1
 216 80 l 1,1,-1
 216 1340 l 1,2,-1
 92 1340 l 1,3,-1
 92 1418 l 1,4,-1
 1192 1418 l 1,5,-1
 1192 930 l 1,6,-1
 1142 930 l 1,7,-1
 946 1340 l 1,8,-1
 706 1340 l 1,9,-1
 706 744 l 1,10,-1
 814 744 l 1,11,-1
 908 1074 l 1,12,-1
 952 1074 l 1,13,-1
 952 334 l 1,14,-1
 908 334 l 1,15,-1
 814 666 l 1,16,-1
 706 666 l 1,17,-1
 706 80 l 1,18,-1
 970 80 l 1,19,-1
 1176 534 l 1,20,-1
 1224 534 l 1,21,-1
 1224 0 l 1,22,-1
 92 0 l 1,23,-1
 92 80 l 1,0,-1
EndSplineSet
Validated: 1
EndChar

StartChar: F
Encoding: 70 70 38
Width: 1254
GlyphClass: 2
Flags: W
LayerCount: 2
Fore
SplineSet
92 80 m 1,0,-1
 216 80 l 1,1,-1
 216 1340 l 1,2,-1
 92 1340 l 1,3,-1
 92 1418 l 1,4,-1
 1158 1418 l 1,5,-1
 1158 882 l 1,6,-1
 1110 882 l 1,7,-1
 910 1340 l 1,8,-1
 706 1340 l 1,9,-1
 706 670 l 1,10,-1
 820 670 l 1,11,-1
 908 1000 l 1,12,-1
 952 1000 l 1,13,-1
 952 258 l 1,14,-1
 908 258 l 1,15,-1
 820 590 l 1,16,-1
 706 590 l 1,17,-1
 706 80 l 1,18,-1
 882 80 l 1,19,-1
 882 0 l 1,20,-1
 92 0 l 1,21,-1
 92 80 l 1,0,-1
EndSplineSet
Validated: 1
EndChar

StartChar: G
Encoding: 71 71 39
Width: 1362
GlyphClass: 2
Flags: W
LayerCount: 2
Fore
SplineSet
1160 -38 m 1,0,1
 1100 50 1100 50 1014 50 c 0,2,3
 970 50 970 50 887 21 c 128,-1,4
 804 -8 804 -8 746 -23 c 128,-1,5
 688 -38 688 -38 593 -38 c 128,-1,6
 498 -38 498 -38 400 18 c 128,-1,7
 302 74 302 74 232 170 c 0,8,9
 86 370 86 370 86 676 c 0,10,11
 86 1018 86 1018 234 1230 c 0,12,13
 390 1454 390 1454 676 1454 c 0,14,15
 910 1454 910 1454 1068 1256 c 1,16,-1
 1154 1440 l 1,17,-1
 1202 1440 l 1,18,-1
 1202 790 l 1,19,-1
 1146 790 l 1,20,21
 1098 1083 1098 1083 982 1222 c 0,22,23
 886 1336 886 1336 768 1336 c 0,24,25
 704 1336 704 1336 678 1311 c 128,-1,26
 652 1286 652 1286 632 1249 c 128,-1,27
 612 1212 612 1212 599 1149 c 0,28,29
 570 1008 570 1008 570 789 c 128,-1,30
 570 570 570 570 576 433 c 128,-1,31
 582 296 582 296 596 211 c 0,32,33
 622 52 622 52 692 52 c 0,34,35
 748 52 748 52 761 119 c 0,36,37
 772 174 772 174 772 348 c 2,38,-1
 772 632 l 1,39,-1
 642 632 l 1,40,-1
 642 712 l 1,41,-1
 1316 712 l 1,42,-1
 1316 632 l 1,43,-1
 1202 632 l 1,44,-1
 1202 -38 l 1,45,-1
 1160 -38 l 1,0,1
EndSplineSet
Validated: 1
EndChar

StartChar: H
Encoding: 72 72 40
Width: 1634
GlyphClass: 2
Flags: W
LayerCount: 2
Fore
SplineSet
92 80 m 1,0,-1
 216 80 l 1,1,-1
 216 1340 l 1,2,-1
 92 1340 l 1,3,-1
 92 1418 l 1,4,-1
 776 1418 l 1,5,-1
 776 1340 l 1,6,-1
 706 1340 l 1,7,-1
 706 798 l 1,8,-1
 928 798 l 1,9,-1
 928 1340 l 1,10,-1
 856 1340 l 1,11,-1
 856 1418 l 1,12,-1
 1540 1418 l 1,13,-1
 1540 1340 l 1,14,-1
 1418 1340 l 1,15,-1
 1418 80 l 1,16,-1
 1540 80 l 1,17,-1
 1540 0 l 1,18,-1
 856 0 l 1,19,-1
 856 80 l 1,20,-1
 928 80 l 1,21,-1
 928 720 l 1,22,-1
 706 720 l 1,23,-1
 706 80 l 1,24,-1
 776 80 l 1,25,-1
 776 0 l 1,26,-1
 92 0 l 1,27,-1
 92 80 l 1,0,-1
EndSplineSet
Validated: 1
EndChar

StartChar: I
Encoding: 73 73 41
Width: 922
GlyphClass: 2
Flags: W
LayerCount: 2
Fore
SplineSet
92 80 m 1,0,-1
 216 80 l 1,1,-1
 216 1340 l 1,2,-1
 92 1340 l 1,3,-1
 92 1418 l 1,4,-1
 830 1418 l 1,5,-1
 830 1340 l 1,6,-1
 706 1340 l 1,7,-1
 706 80 l 1,8,-1
 830 80 l 1,9,-1
 830 0 l 1,10,-1
 92 0 l 1,11,-1
 92 80 l 1,0,-1
EndSplineSet
Validated: 1
EndChar

StartChar: J
Encoding: 74 74 42
Width: 1020
GlyphClass: 2
Flags: W
LayerCount: 2
Fore
SplineSet
288 62 m 5,0,1
 312 46 312 46 344 46 c 132,-1,2
 376 46 376 46 398 62 c 132,-1,3
 420 78 420 78 432 104 c 4,4,5
 456 156 456 156 456 221 c 132,-1,6
 456 286 456 286 441 338 c 132,-1,7
 426 390 426 390 407 446 c 132,-1,8
 388 502 388 502 370 557 c 132,-1,9
 352 612 352 612 352 660 c 6,10,-1
 352 1340 l 5,11,-1
 230 1340 l 5,12,-1
 230 1418 l 5,13,-1
 966 1418 l 5,14,-1
 966 1340 l 5,15,-1
 844 1340 l 5,16,-1
 844 418 l 6,17,18
 844 47 844 47 636 -17 c 4,19,20
 568 -38 568 -38 480 -38 c 132,-1,21
 392 -38 392 -38 317 -19 c 132,-1,22
 242 0 242 0 184 36 c 4,23,24
 62 112 62 112 62 240 c 4,25,26
 62 321 62 321 109 374 c 4,27,28
 157 428 157 428 230 428 c 4,29,30
 340 428 340 428 383 313 c 4,31,32
 396 278 396 278 396 228 c 132,-1,33
 396 178 396 178 367 130 c 132,-1,34
 338 82 338 82 288 62 c 5,0,1
EndSplineSet
Validated: 1
EndChar

StartChar: K
Encoding: 75 75 43
Width: 1570
GlyphClass: 2
Flags: W
LayerCount: 2
Fore
SplineSet
92 80 m 1,0,-1
 216 80 l 1,1,-1
 216 1340 l 1,2,-1
 92 1340 l 1,3,-1
 92 1418 l 1,4,-1
 830 1418 l 1,5,-1
 830 1340 l 1,6,-1
 706 1340 l 1,7,-1
 706 712 l 1,8,-1
 1130 1280 l 2,9,10
 1134 1284 1134 1284 1134 1287 c 2,11,12
 1134 1287 1134 1287 1134 1296.5 c 128,-1,13
 1134 1306 1134 1306 1118 1316 c 128,-1,14
 1102 1326 1102 1326 1077 1331 c 0,15,16
 1032 1340 1032 1340 968 1340 c 1,17,-1
 968 1418 l 1,18,-1
 1406 1418 l 1,19,-1
 1406 1340 l 1,20,21
 1286 1340 1286 1340 1243 1306 c 0,22,23
 1228 1294 1228 1294 1214 1278 c 1,24,-1
 1074 1088 l 1,25,-1
 1410 80 l 1,26,-1
 1500 80 l 1,27,-1
 1500 0 l 1,28,-1
 836 0 l 1,29,-1
 836 80 l 1,30,-1
 908 80 l 1,31,-1
 738 636 l 1,32,-1
 706 594 l 1,33,-1
 706 80 l 1,34,-1
 776 80 l 1,35,-1
 776 0 l 1,36,-1
 92 0 l 1,37,-1
 92 80 l 1,0,-1
EndSplineSet
Validated: 1
EndChar

StartChar: L
Encoding: 76 76 44
Width: 1270
GlyphClass: 2
Flags: W
LayerCount: 2
Fore
SplineSet
92 80 m 1,0,-1
 216 80 l 1,1,-1
 216 1340 l 1,2,-1
 92 1340 l 1,3,-1
 92 1418 l 1,4,-1
 830 1418 l 1,5,-1
 830 1340 l 1,6,-1
 706 1340 l 1,7,-1
 706 80 l 1,8,-1
 932 80 l 1,9,-1
 1110 534 l 1,10,-1
 1158 534 l 1,11,-1
 1158 0 l 1,12,-1
 92 0 l 1,13,-1
 92 80 l 1,0,-1
EndSplineSet
Validated: 1
EndChar

StartChar: M
Encoding: 77 77 45
Width: 1616
GlyphClass: 2
Flags: W
LayerCount: 2
Fore
SplineSet
92 80 m 1,0,1
 154 80 154 80 186 89 c 128,-1,2
 218 98 218 98 218 136 c 2,3,-1
 218 1340 l 1,4,-1
 92 1340 l 1,5,-1
 92 1418 l 1,6,-1
 662 1418 l 1,7,-1
 782 870 l 1,8,-1
 910 1418 l 1,9,-1
 1524 1418 l 1,10,-1
 1524 1340 l 1,11,-1
 1398 1340 l 1,12,-1
 1398 80 l 1,13,-1
 1524 80 l 1,14,-1
 1524 0 l 1,15,-1
 806 0 l 1,16,-1
 806 80 l 1,17,-1
 930 80 l 1,18,-1
 930 1128 l 1,19,-1
 668 0 l 1,20,-1
 536 0 l 1,21,-1
 296 1029 l 1,22,-1
 296 142 l 2,23,24
 296 98 296 98 328 89 c 128,-1,26
 360 80 360 80 402 80 c 1,27,-1
 402 0 l 1,28,-1
 92 0 l 1,29,-1
 92 80 l 1,0,1
EndSplineSet
Validated: 1
EndChar

StartChar: N
Encoding: 78 78 46
Width: 644
GlyphClass: 2
Flags: W
LayerCount: 2
Fore
SplineSet
1128 1280 m 2,0,1
 1128 1340 1128 1340 998 1340 c 1,2,-1
 998 1418 l 1,3,-1
 1340 1418 l 1,4,-1
 1340 1340 l 1,5,6
 1278 1340 1278 1340 1243 1328 c 128,-1,7
 1208 1316 1208 1316 1208 1280 c 2,8,-1
 1208 0 l 1,9,-1
 850 0 l 1,10,-1
 319 1023 l 1,11,-1
 319 142 l 2,12,13
 319 112 319 112 367 90 c 0,14,15
 388 80 388 80 474 80 c 1,16,-1
 474 0 l 1,17,-1
 86 0 l 1,18,-1
 86 80 l 1,19,20
 116 81 116 81 147 81 c 0,21,22
 178 81 178 81 195 88 c 0,23,24
 244 108 244 108 244 136 c 2,25,-1
 244 1180 l 1,26,-1
 156 1340 l 1,27,-1
 72 1340 l 1,28,-1
 72 1418 l 1,29,-1
 692 1418 l 1,30,-1
 1128 612 l 1,31,-1
 1128 1280 l 2,0,1
EndSplineSet
Validated: 1
EndChar

StartChar: O
Encoding: 79 79 47
Width: 1378
GlyphClass: 2
Flags: W
LayerCount: 2
Fore
SplineSet
88 707 m 4,0,1
 88 806 88 806 102 901 c 132,-1,2
 116 996 116 996 147 1079 c 132,-1,3
 178 1162 178 1162 226 1231 c 132,-1,4
 274 1300 274 1300 342 1350 c 4,5,6
 483 1454 483 1454 696 1454 c 260,7,8
 1105 1454 1105 1454 1245 1079 c 4,9,10
 1304 921 1304 921 1304 708 c 260,11,12
 1304 387 1304 387 1166 186 c 4,13,14
 1012 -38 1012 -38 696 -38 c 260,15,16
 288 -38 288 -38 147 339 c 4,17,18
 88 497 88 497 88 707 c 4,0,1
696 30 m 260,19,20
 770 30 770 30 797 170 c 4,21,22
 824 310 824 310 824 608 c 132,-1,23
 824 906 824 906 818 1038 c 132,-1,24
 812 1170 812 1170 797 1247 c 132,-1,25
 782 1324 782 1324 758 1355 c 132,-1,26
 734 1386 734 1386 696 1386 c 260,27,28
 621 1386 621 1386 596 1247 c 4,29,30
 570 1104 570 1104 570 806 c 132,-1,31
 570 508 570 508 576 378 c 132,-1,32
 582 248 582 248 596 170 c 4,33,34
 621 30 621 30 696 30 c 260,19,20
EndSplineSet
Validated: 1
EndChar

StartChar: P
Encoding: 80 80 48
Width: 1386
GlyphClass: 2
Flags: W
LayerCount: 2
Fore
SplineSet
92 80 m 1,0,-1
 216 80 l 1,1,-1
 216 1340 l 1,2,-1
 92 1340 l 1,3,-1
 92 1418 l 1,4,-1
 910 1418 l 2,5,6
 1108 1418 1108 1418 1216 1284 c 0,7,8
 1312 1165 1312 1165 1312 950 c 0,9,10
 1312 629 1312 629 1076 532 c 0,11,12
 998 500 998 500 898 500 c 2,13,-1
 706 500 l 1,14,-1
 706 80 l 1,15,-1
 830 80 l 1,16,-1
 830 0 l 1,17,-1
 92 0 l 1,18,-1
 92 80 l 1,0,-1
706 572 m 1,19,20
 858 572 858 572 858 936 c 0,21,22
 858 1248 858 1248 776 1321 c 0,23,24
 748 1346 748 1346 706 1346 c 1,25,-1
 706 572 l 1,19,20
EndSplineSet
Validated: 1
EndChar

StartChar: Q
Encoding: 81 81 49
Width: 1414
GlyphClass: 2
Flags: W
LayerCount: 2
Fore
SplineSet
834 -24 m 1,0,1
 759 -38 759 -38 672.5 -38 c 128,-1,2
 586 -38 586 -38 498 -11 c 128,-1,3
 410 16 410 16 342 66 c 128,-1,4
 274 116 274 116 226 186 c 128,-1,5
 178 256 178 256 147 339 c 0,6,7
 86 502 86 502 86 708 c 0,8,9
 86 1030 86 1030 226 1231 c 0,10,11
 381 1454 381 1454 696 1454 c 256,12,13
 1105 1454 1105 1454 1245 1079 c 0,14,15
 1304 921 1304 921 1304 708 c 0,16,17
 1304 310 1304 310 1102 111 c 0,18,19
 1030 40 1030 40 932 2 c 1,20,21
 950 -68 950 -68 980 -97 c 0,22,23
 1037 -152 1037 -152 1108 -152 c 0,24,25
 1185 -152 1185 -152 1216 -128 c 0,26,27
 1274 -82 1274 -82 1274 26 c 1,28,-1
 1318 26 l 1,29,30
 1324 -58 1324 -58 1324 -112 c 128,-1,31
 1324 -166 1324 -166 1311 -234 c 0,32,33
 1284 -374 1284 -374 1200 -414 c 0,34,35
 1156 -436 1156 -436 1099 -436 c 128,-1,36
 1042 -436 1042 -436 1002 -421 c 128,-1,37
 962 -406 962 -406 935 -377 c 128,-1,38
 908 -348 908 -348 889 -309 c 128,-1,39
 870 -270 870 -270 860 -224 c 0,40,41
 843 -146 843 -146 834 -24 c 1,0,1
574 394 m 1,42,43
 627 478 627 478 699.5 478 c 128,-1,44
 772 478 772 478 820 434 c 1,45,46
 824 550 824 550 824 728 c 128,-1,47
 824 906 824 906 818 1038 c 128,-1,48
 812 1170 812 1170 797 1247 c 128,-1,49
 782 1324 782 1324 758 1355 c 128,-1,50
 734 1386 734 1386 696 1386 c 256,51,52
 621 1386 621 1386 596 1247 c 0,53,54
 570 1104 570 1104 570 708 c 0,55,56
 570 526 570 526 574 394 c 1,42,43
578 318 m 1,57,58
 590 154 590 154 610 107 c 128,-1,59
 630 60 630 60 650 45 c 128,-1,60
 670 30 670 30 694 30 c 128,-1,61
 718 30 718 30 737 42 c 128,-1,62
 756 54 756 54 769 81 c 0,63,64
 797 139 797 139 808 262 c 1,65,66
 796 322 796 322 769 360 c 128,-1,67
 742 398 742 398 699 398 c 0,68,69
 620 398 620 398 578 318 c 1,57,58
EndSplineSet
Validated: 1
EndChar

StartChar: R
Encoding: 82 82 50
Width: 1476
GlyphClass: 2
Flags: W
LayerCount: 2
Fore
SplineSet
1314 96 m 0,0,1
 1360 96 1360 96 1360 344 c 1,2,-1
 1420 344 l 1,3,-1
 1420 314 l 2,4,5
 1420 110 1420 110 1360 36 c 0,6,7
 1295 -44 1295 -44 1124 -44 c 0,8,9
 891 -44 891 -44 851 173 c 0,10,11
 838 244 838 244 838 342 c 128,-1,12
 838 440 838 440 831 505 c 128,-1,13
 824 570 824 570 808 607 c 0,14,15
 780 672 780 672 706 672 c 1,16,-1
 706 80 l 1,17,-1
 830 80 l 1,18,-1
 830 0 l 1,19,-1
 92 0 l 1,20,-1
 92 80 l 1,21,-1
 216 80 l 1,22,-1
 216 1340 l 1,23,-1
 92 1340 l 1,24,-1
 92 1418 l 1,25,-1
 904 1418 l 2,26,27
 1312 1418 1312 1418 1312 1046 c 0,28,29
 1312 870 1312 870 1208 789 c 0,30,31
 1086 694 1086 694 818 694 c 1,32,33
 1075 694 1075 694 1182 620 c 0,34,35
 1292 544 1292 544 1292 338 c 1,36,37
 1292 338 1292 338 1291 289 c 128,-1,38
 1290 240 1290 240 1289 168 c 0,39,40
 1289 165 1289 165 1289 163 c 0,41,42
 1289 96 1289 96 1314 96 c 0,0,1
706 752 m 1,43,44
 786 752 786 752 820 810 c 0,45,46
 858 875 858 875 858 1046 c 256,47,48
 858 1221 858 1221 820 1282 c 0,49,50
 784 1340 784 1340 706 1340 c 1,51,-1
 706 752 l 1,43,44
EndSplineSet
Validated: 1
EndChar

StartChar: S
Encoding: 83 83 51
Width: 1258
GlyphClass: 2
Flags: W
LayerCount: 2
Fore
SplineSet
312 172 m 1,0,-1
 190 -18 l 1,1,-1
 138 -18 l 1,2,-1
 138 544 l 1,3,-1
 184 544 l 1,4,5
 283 269 283 269 474 126 c 0,6,7
 536 82 536 82 586 70 c 0,8,9
 696 35 696 35 727 35 c 0,10,11
 793 35 793 35 837.5 44.5 c 128,-1,12
 882 54 882 54 918 94 c 0,13,14
 960 136 960 136 960 191 c 2,15,16
 960 191 960 191 960 219.5 c 128,-1,17
 960 248 960 248 938 312 c 0,18,19
 922 358 922 358 832 404 c 0,20,21
 772 438 772 438 710 462 c 128,-1,22
 648 486 648 486 556 522 c 0,23,24
 348 598 348 598 242 741 c 128,-1,25
 136 884 136 884 136 973 c 128,-1,26
 136 1062 136 1062 171 1159 c 128,-1,27
 206 1256 206 1256 269 1321 c 0,28,29
 398 1454 398 1454 592 1454 c 0,30,31
 748 1454 748 1454 892 1359 c 0,32,33
 936 1330 936 1330 970 1294 c 1,34,-1
 1078 1442 l 1,35,-1
 1126 1442 l 1,36,-1
 1126 1006 l 1,37,-1
 1082 1006 l 1,38,39
 1023 1164 1023 1164 889 1270 c 0,40,41
 753 1378 753 1378 586 1378 c 1,42,43
 586 1378 586 1378 552 1377 c 128,-1,44
 518 1376 518 1376 501 1369 c 128,-1,45
 484 1362 484 1362 452 1338 c 0,46,47
 395 1296 395 1296 395 1213.5 c 128,-1,48
 395 1131 395 1131 471.5 1073.5 c 128,-1,49
 548 1016 548 1016 677 984 c 0,50,51
 868 937 868 937 936 893.5 c 128,-1,52
 1004 850 1004 850 1045 808 c 128,-1,53
 1086 766 1086 766 1114 710 c 128,-1,54
 1142 654 1142 654 1159 582 c 128,-1,55
 1176 510 1176 510 1176 442 c 128,-1,56
 1176 374 1176 374 1147 283 c 128,-1,57
 1118 192 1118 192 1062 120 c 0,58,59
 939 -38 939 -38 722.5 -38 c 128,-1,60
 506 -38 506 -38 312 172 c 1,0,-1
EndSplineSet
Validated: 1
EndChar

StartChar: T
Encoding: 84 84 52
Width: 1330
GlyphClass: 2
Flags: W
LayerCount: 2
Fore
SplineSet
288 80 m 1,0,-1
 412 80 l 1,1,-1
 412 1340 l 1,2,-1
 310 1340 l 1,3,-1
 136 846 l 1,4,-1
 86 846 l 1,5,-1
 86 1418 l 1,6,-1
 1228 1418 l 1,7,-1
 1228 846 l 1,8,-1
 1178 846 l 1,9,-1
 1006 1340 l 1,10,-1
 902 1340 l 1,11,-1
 902 80 l 1,12,-1
 1026 80 l 1,13,-1
 1026 0 l 1,14,-1
 288 0 l 1,15,-1
 288 80 l 1,0,-1
EndSplineSet
Validated: 1
EndChar

StartChar: U
Encoding: 85 85 53
Width: 1342
GlyphClass: 2
Flags: W
LayerCount: 2
Fore
SplineSet
1290 1340 m 1,0,1
 1168 1340 1168 1340 1168 1280 c 2,2,-1
 1168 652 l 2,3,4
 1168 283 1168 283 1062 124 c 0,5,6
 954 -38 954 -38 680 -38 c 0,7,8
 331 -38 331 -38 217 290 c 0,9,10
 170 425 170 425 170 614 c 2,11,-1
 170 1340 l 1,12,-1
 48 1340 l 1,13,-1
 48 1418 l 1,14,-1
 784 1418 l 1,15,-1
 784 1340 l 1,16,-1
 662 1340 l 1,17,-1
 662 568 l 2,18,19
 662 345 662 345 691 259.5 c 128,-1,20
 720 174 720 174 756 136 c 128,-1,21
 792 98 792 98 862 98 c 0,22,23
 917 98 917 98 946.5 127 c 128,-1,24
 976 156 976 156 999 193 c 128,-1,25
 1022 230 1022 230 1039 288 c 0,26,27
 1076 414 1076 414 1076 624 c 2,28,-1
 1076 1280 l 2,29,30
 1076 1340 1076 1340 950 1340 c 1,31,-1
 950 1418 l 1,32,-1
 1290 1418 l 1,33,-1
 1290 1340 l 1,0,1
EndSplineSet
Validated: 1
EndChar

StartChar: V
Encoding: 86 86 54
Width: 1384
GlyphClass: 2
Flags: W
LayerCount: 2
Fore
SplineSet
1112 1292 m 0,0,1
 1112 1340 1112 1340 984 1340 c 1,2,-1
 984 1418 l 1,3,-1
 1334 1418 l 1,4,-1
 1334 1340 l 1,5,6
 1220 1340 1220 1340 1204 1278 c 2,7,-1
 868 0 l 1,8,-1
 564 0 l 1,9,-1
 148 1340 l 1,10,-1
 44 1340 l 1,11,-1
 44 1418 l 1,12,-1
 800 1418 l 1,13,-1
 800 1340 l 1,14,-1
 676 1340 l 1,15,-1
 906 501 l 1,16,-1
 1110 1278 l 2,17,18
 1112 1286 1112 1286 1112 1292 c 0,0,1
EndSplineSet
Validated: 1
EndChar

StartChar: W
Encoding: 87 87 55
Width: 1954
GlyphClass: 2
Flags: W
LayerCount: 2
Fore
SplineSet
1678 1292 m 0,0,1
 1678 1340 1678 1340 1546 1340 c 1,2,-1
 1546 1418 l 1,3,-1
 1904 1418 l 1,4,-1
 1904 1340 l 1,5,6
 1840 1340 1840 1340 1811 1326 c 0,7,8
 1781 1312 1781 1312 1774 1278 c 2,9,-1
 1506 0 l 1,10,-1
 1200 0 l 1,11,-1
 976 868 l 1,12,-1
 794 0 l 1,13,-1
 490 0 l 1,14,-1
 142 1340 l 1,15,-1
 44 1340 l 1,16,-1
 44 1418 l 1,17,-1
 730 1418 l 1,18,-1
 730 1340 l 1,19,-1
 632 1340 l 1,20,-1
 819 563 l 1,21,-1
 925 1064 l 1,22,-1
 854 1340 l 1,23,-1
 806 1340 l 1,24,-1
 806 1418 l 1,25,-1
 1472 1418 l 1,26,-1
 1472 1340 l 1,27,-1
 1344 1340 l 1,28,-1
 1527 567 l 1,29,-1
 1676 1278 l 2,30,31
 1678 1288 1678 1288 1678 1292 c 0,0,1
EndSplineSet
Validated: 1
EndChar

StartChar: X
Encoding: 88 88 56
Width: 1506
GlyphClass: 2
Flags: W
LayerCount: 2
Fore
SplineSet
74 81 m 1,0,1
 74 81 74 81 101 81 c 0,2,3
 133 81 133 81 160 115 c 0,4,5
 160 115 160 115 545 574 c 1,6,-1
 218 1340 l 1,7,-1
 76 1340 l 1,8,-1
 76 1418 l 1,9,-1
 868 1418 l 1,10,-1
 868 1340 l 1,11,-1
 756 1340 l 1,12,-1
 925 954 l 1,13,14
 925 954 925 954 1186 1276 c 1,15,16
 1211 1311 1211 1311 1163 1328 c 0,17,18
 1129 1340 1129 1340 1074 1340 c 1,19,-1
 1074 1418 l 1,20,-1
 1434 1418 l 1,21,-1
 1434 1340 l 1,22,23
 1374 1340 1374 1340 1351 1323 c 0,24,25
 1331 1309 1331 1309 1323 1301 c 1,26,27
 1323 1301 1323 1301 964 851 c 1,28,-1
 1290 80 l 1,29,-1
 1434 80 l 1,30,-1
 1434 0 l 1,31,-1
 638 0 l 1,32,-1
 638 80 l 1,33,-1
 752 80 l 1,34,-1
 590 478 l 1,35,36
 590 478 590 478 294 132 c 1,37,38
 289 110 289 110 324 94 c 0,39,40
 354 80 354 80 424 80 c 1,41,-1
 424 0 l 1,42,-1
 74 0 l 1,43,-1
 74 81 l 1,0,1
EndSplineSet
EndChar

StartChar: Y
Encoding: 89 89 57
Width: 1362
GlyphClass: 2
Flags: W
LayerCount: 2
Fore
SplineSet
1098 1294 m 0,0,1
 1098 1340 1098 1340 970 1340 c 1,2,-1
 970 1418 l 1,3,-1
 1312 1418 l 1,4,-1
 1312 1340 l 1,5,6
 1225 1340 1225 1340 1204 1308 c 0,7,8
 1196 1296 1196 1296 1190 1278 c 2,9,-1
 946 546 l 1,10,-1
 946 80 l 1,11,-1
 1072 80 l 1,12,-1
 1072 0 l 1,13,-1
 334 0 l 1,14,-1
 334 80 l 1,15,-1
 456 80 l 1,16,-1
 456 500 l 1,17,-1
 152 1340 l 1,18,-1
 44 1340 l 1,19,-1
 44 1418 l 1,20,-1
 800 1418 l 1,21,-1
 800 1340 l 1,22,-1
 680 1340 l 1,23,-1
 902 676 l 1,24,-1
 1096 1278 l 2,25,26
 1098 1284 1098 1284 1098 1294 c 0,0,1
EndSplineSet
Validated: 1
EndChar

StartChar: Z
Encoding: 90 90 58
Width: 1270
GlyphClass: 2
Flags: W
LayerCount: 2
Fore
SplineSet
894 76 m 2,0,1
 954 76 954 76 1072 488 c 1,2,-1
 1146 488 l 1,3,-1
 1146 0 l 1,4,-1
 102 0 l 1,5,-1
 102 76 l 1,6,-1
 626 1342 l 1,7,-1
 364 1342 l 2,8,9
 327 1342 327 1342 224 991 c 0,10,11
 212 950 212 950 206 926 c 1,12,-1
 132 926 l 1,13,-1
 132 1418 l 1,14,-1
 1150 1418 l 1,15,-1
 1150 1342 l 1,16,-1
 626 76 l 1,17,-1
 894 76 l 2,0,1
EndSplineSet
Validated: 1
EndChar

StartChar: bracketleft
Encoding: 91 91 59
Width: 582
GlyphClass: 2
Flags: W
LayerCount: 2
Fore
SplineSet
152 1644 m 1,0,-1
 580 1644 l 1,1,-1
 580 1574 l 1,2,-1
 464 1574 l 1,3,-1
 464 -158 l 1,4,-1
 580 -158 l 1,5,-1
 580 -228 l 1,6,-1
 152 -228 l 1,7,-1
 152 1644 l 1,0,-1
EndSplineSet
Validated: 1
EndChar

StartChar: backslash
Encoding: 92 92 60
Width: 804
GlyphClass: 2
Flags: W
LayerCount: 2
Fore
SplineSet
-126 1484 m 1,0,-1
 -24 1536 l 1,1,-1
 932 -432 l 1,2,-1
 828 -484 l 1,3,-1
 -126 1484 l 1,0,-1
EndSplineSet
Validated: 1
EndChar

StartChar: bracketright
Encoding: 93 93 61
Width: 582
GlyphClass: 2
Flags: W
LayerCount: 2
Fore
SplineSet
426 1644 m 1,0,-1
 426 -228 l 1,1,-1
 -2 -228 l 1,2,-1
 -2 -158 l 1,3,-1
 114 -158 l 1,4,-1
 114 1574 l 1,5,-1
 -2 1574 l 1,6,-1
 -2 1644 l 1,7,-1
 426 1644 l 1,0,-1
EndSplineSet
Validated: 1
EndChar

StartChar: asciicircum
Encoding: 94 94 62
Width: 904
GlyphClass: 2
Flags: W
LayerCount: 2
Fore
SplineSet
452 1846 m 5,0,-1
 992 924 l 5,1,-1
 882 860 l 5,2,-1
 452 1600 l 5,3,-1
 22 860 l 5,4,-1
 -86 924 l 5,5,-1
 452 1846 l 5,0,-1
EndSplineSet
Validated: 1
EndChar

StartChar: underscore
Encoding: 95 95 63
Width: 1102
GlyphClass: 2
Flags: W
LayerCount: 2
Fore
SplineSet
1100 -66 m 1,0,-1
 1100 -178 l 1,1,-1
 0 -178 l 1,2,-1
 0 -66 l 1,3,-1
 1100 -66 l 1,0,-1
EndSplineSet
Validated: 1
EndChar

StartChar: grave
Encoding: 96 96 64
Width: 700
GlyphClass: 2
Flags: W
LayerCount: 2
Fore
SplineSet
515 1452 m 128,-1,1
 542 1420 542 1420 568 1388 c 128,-1,2
 594 1356 594 1356 598 1354 c 0,3,4
 598 1354 598 1354 598 1353 c 0,5,6
 598 1345 598 1345 564 1274 c 1,7,8
 556 1282 556 1282 525 1296 c 128,-1,9
 494 1310 494 1310 461 1328 c 128,-1,10
 428 1346 428 1346 392 1364 c 128,-1,11
 356 1382 356 1382 320 1403 c 128,-1,12
 284 1424 284 1424 252 1441 c 0,13,14
 189 1475 189 1475 163 1495 c 0,15,16
 116 1534 116 1534 116 1608 c 0,17,18
 116 1696 116 1696 175 1741 c 0,19,20
 192 1754 192 1754 208 1754 c 0,21,22
 238 1754 238 1754 255 1740 c 128,-1,23
 272 1726 272 1726 292 1705 c 128,-1,24
 312 1684 312 1684 340 1654 c 128,-1,25
 368 1624 368 1624 398 1589 c 2,26,27
 398 1589 398 1589 443 1536.5 c 128,-1,0
 488 1484 488 1484 515 1452 c 128,-1,1
EndSplineSet
Validated: 1
EndChar

StartChar: a
Encoding: 97 97 65
Width: 1316
GlyphClass: 2
Flags: W
LayerCount: 2
Fore
SplineSet
688 108 m 1,0,1
 638 -8 638 -8 470 -32 c 0,2,3
 428 -38 428 -38 369 -38 c 128,-1,4
 310 -38 310 -38 252 -14 c 128,-1,5
 194 10 194 10 158 51 c 0,6,7
 90 128 90 128 90 262 c 0,8,9
 90 473 90 473 259 550 c 0,10,11
 360 596 360 596 474 602 c 128,-1,12
 588 608 588 608 668 608 c 1,13,-1
 668 666 l 2,14,15
 668 903 668 903 617 987 c 0,16,17
 592 1028 592 1028 555 1041 c 128,-1,18
 518 1054 518 1054 480 1054 c 0,19,20
 425 1054 425 1054 360 1034 c 1,21,22
 424 1026 424 1026 469 966 c 0,23,24
 512 909 512 909 512 852.5 c 128,-1,25
 512 796 512 796 497 759 c 128,-1,26
 482 722 482 722 455 695 c 0,27,28
 396 636 396 636 320 636 c 256,29,30
 240 636 240 636 185 695 c 0,31,32
 130 754 130 754 130 825 c 128,-1,33
 130 896 130 896 151 941 c 128,-1,34
 172 986 172 986 210 1020 c 128,-1,35
 248 1054 248 1054 298 1079 c 128,-1,36
 348 1104 348 1104 406 1120 c 0,37,38
 515 1150 515 1150 639.5 1150 c 128,-1,39
 764 1150 764 1150 846 1129 c 128,-1,40
 928 1108 928 1108 982 1054 c 0,41,42
 1090 946 1090 946 1090 666 c 2,43,-1
 1090 246 l 2,44,45
 1090 170 1090 170 1101 130 c 128,-1,46
 1112 90 1112 90 1142 90 c 0,47,48
 1192 90 1192 90 1192 250 c 2,49,-1
 1192 348 l 1,50,-1
 1254 348 l 1,51,-1
 1254 250 l 2,52,53
 1254 89 1254 89 1189 26 c 0,54,55
 1123 -38 1123 -38 930 -38 c 128,-1,56
 737 -38 737 -38 688 108 c 1,0,1
582 108 m 0,57,58
 618 108 618 108 643 145 c 128,-1,59
 668 182 668 182 668 246 c 2,60,-1
 668 516 l 1,61,62
 566 516 566 516 531 463 c 0,63,64
 500 416 500 416 500 262 c 128,-1,65
 500 108 500 108 582 108 c 0,57,58
EndSplineSet
Validated: 1
EndChar

StartChar: b
Encoding: 98 98 66
Width: 1306
GlyphClass: 2
Flags: W
LayerCount: 2
Fore
SplineSet
378 166 m 1,0,-1
 148 -38 l 1,1,-1
 148 1346 l 5,2,-1
 22 1346 l 5,3,-1
 22 1418 l 5,4,-1
 570 1418 l 5,5,-1
 570 1054 l 1,6,7
 649 1150 649 1150 776.5 1150 c 128,-1,8
 904 1150 904 1150 990 1102 c 128,-1,9
 1076 1054 1076 1054 1131 972 c 0,10,11
 1240 809 1240 809 1240 556 c 0,12,13
 1240 295 1240 295 1121 137 c 0,14,15
 989 -38 989 -38 751.5 -38 c 128,-1,16
 514 -38 514 -38 378 166 c 1,0,-1
562 362 m 2,17,18
 562 221 562 221 597 132 c 0,19,20
 626 58 626 58 684 58 c 0,21,22
 751 58 751 58 778 171 c 0,23,24
 804 281 804 281 804 486.5 c 128,-1,25
 804 692 804 692 798 784 c 128,-1,26
 792 876 792 876 779 934 c 0,27,28
 755 1042 755 1042 692 1042 c 0,29,30
 630 1042 630 1042 594 960 c 0,31,32
 562 888 562 888 562 798 c 2,33,-1
 562 362 l 2,17,18
EndSplineSet
Validated: 1
EndChar

StartChar: c
Encoding: 99 99 67
Width: 1154
GlyphClass: 2
Flags: W
LayerCount: 2
Fore
SplineSet
882 1016 m 1,0,1
 798 1058 798 1058 736 1058 c 128,-1,2
 674 1058 674 1058 635 1038 c 128,-1,3
 596 1018 596 1018 570 963 c 128,-1,4
 544 908 544 908 531 809 c 128,-1,5
 518 710 518 710 518 556 c 128,-1,6
 518 402 518 402 527 306 c 128,-1,7
 536 210 536 210 558 156 c 128,-1,8
 580 102 580 102 613 82 c 128,-1,9
 646 62 646 62 699 62 c 128,-1,10
 752 62 752 62 804 83 c 128,-1,11
 856 104 856 104 898 142 c 0,12,13
 986 222 986 222 1006 358 c 1,14,-1
 1072 358 l 1,15,16
 1060 176 1060 176 943 67 c 0,17,18
 830 -38 830 -38 652 -38 c 0,19,20
 378 -38 378 -38 231 121 c 0,21,22
 88 276 88 276 88 568 c 0,23,24
 88 825 88 825 230 991 c 0,25,26
 366 1150 366 1150 586 1150 c 0,27,28
 839 1150 839 1150 975 1041 c 0,29,30
 1096 944 1096 944 1096 812 c 0,31,32
 1096 724 1096 724 1038 659 c 0,33,34
 982 596 982 596 900 596 c 256,35,36
 816 596 816 596 759 657 c 0,37,38
 700 720 700 720 700 806 c 0,39,40
 700 885 700 885 754 948 c 0,41,42
 805 1008 805 1008 882 1016 c 1,0,1
EndSplineSet
Validated: 1
EndChar

StartChar: d
Encoding: 100 100 68
Width: 1378
GlyphClass: 2
Flags: W
LayerCount: 2
Fore
SplineSet
758 80 m 1,0,1
 699 -38 699 -38 536 -38 c 0,2,3
 320 -38 320 -38 198 140 c 0,4,5
 86 304 86 304 86 556 c 256,6,7
 86 808 86 808 198 972 c 0,8,9
 320 1150 320 1150 536 1150 c 0,10,11
 676 1150 676 1150 758 1054 c 1,12,-1
 758 1344 l 5,13,-1
 634 1344 l 5,14,-1
 634 1416 l 5,15,-1
 1182 1416 l 5,16,-1
 1182 72 l 1,17,-1
 1304 72 l 1,18,-1
 1304 0 l 1,19,-1
 758 0 l 1,20,-1
 758 80 l 1,0,1
587 101 m 128,-1,22
 610 78 610 78 640 78 c 128,-1,23
 670 78 670 78 692 93 c 128,-1,24
 714 108 714 108 730 142 c 0,25,26
 766 218 766 218 766 362 c 2,27,-1
 766 798 l 2,28,29
 766 890 766 890 741 943 c 128,-1,30
 716 996 716 996 692 1019 c 128,-1,31
 668 1042 668 1042 636 1042 c 128,-1,32
 604 1042 604 1042 584 1017 c 128,-1,33
 564 992 564 992 550 934 c 0,34,35
 522 818 522 818 522 619 c 128,-1,36
 522 420 522 420 528 328 c 128,-1,37
 534 236 534 236 549 180 c 128,-1,21
 564 124 564 124 587 101 c 128,-1,22
EndSplineSet
Validated: 1
EndChar

StartChar: e
Encoding: 101 101 69
Width: 1152
GlyphClass: 2
Flags: W
LayerCount: 2
Fore
SplineSet
88 563 m 0,0,1
 88 702 88 702 127 810 c 128,-1,2
 166 918 166 918 236 994 c 0,3,4
 380 1150 380 1150 604 1150 c 0,5,6
 847 1150 847 1150 975 963 c 0,7,8
 1088 798 1088 798 1088 556 c 1,9,-1
 518 556 l 1,10,11
 518 261 518 261 559 156 c 0,12,13
 580 102 580 102 613 82 c 128,-1,14
 646 62 646 62 699 62 c 128,-1,15
 752 62 752 62 804 83 c 128,-1,16
 856 104 856 104 898 142 c 0,17,18
 986 222 986 222 1006 358 c 1,19,-1
 1072 358 l 1,20,21
 1060 176 1060 176 943 67 c 0,22,23
 830 -38 830 -38 652 -38 c 0,24,25
 380 -38 380 -38 233 121 c 0,26,27
 88 278 88 278 88 563 c 0,0,1
718 658 m 1,28,29
 712 1010 712 1010 662 1069 c 0,30,31
 644 1090 644 1090 618 1090 c 256,32,33
 542 1090 542 1090 526 865 c 0,34,35
 520 782 520 782 518 658 c 1,36,-1
 718 658 l 1,28,29
EndSplineSet
Validated: 1
EndChar

StartChar: f
Encoding: 102 102 70
Width: 966
GlyphClass: 2
Flags: W
LayerCount: 2
Fore
SplineSet
602 928 m 5,0,-1
 768 928 l 5,1,-1
 768 856 l 5,2,-1
 628 856 l 5,3,-1
 628 72 l 1,4,-1
 752 72 l 1,5,-1
 752 0 l 1,6,-1
 82 0 l 1,7,-1
 82 72 l 1,8,-1
 206 72 l 1,9,-1
 206 856 l 1,10,-1
 82 856 l 1,11,-1
 82 928 l 1,12,-1
 206 928 l 1,13,-1
 206 1008 l 2,14,15
 206 1246 206 1246 302 1353 c 128,-1,16
 398 1460 398 1460 584 1460 c 0,17,18
 695 1460 695 1460 792 1406 c 0,19,20
 867 1364 867 1364 903 1287 c 0,21,22
 922 1246 922 1246 922 1201 c 128,-1,23
 922 1156 922 1156 908 1121 c 128,-1,24
 894 1086 894 1086 872 1060 c 128,-1,25
 850 1034 850 1034 818 1020 c 128,-1,26
 786 1006 786 1006 750 1006 c 128,-1,27
 714 1006 714 1006 683 1020 c 128,-1,28
 652 1034 652 1034 628 1060 c 0,29,30
 580 1112 580 1112 580 1194 c 0,31,32
 580 1259 580 1259 607 1298 c 0,33,34
 653 1365 653 1365 714 1378 c 1,35,36
 680 1390 680 1390 650 1390 c 128,-1,37
 620 1390 620 1390 596 1380 c 128,-1,38
 572 1370 572 1370 553 1347 c 0,39,40
 512 1297 512 1297 512 1189.5 c 128,-1,41
 512 1082 512 1082 602 928 c 5,0,-1
EndSplineSet
Validated: 1
EndChar

StartChar: g
Encoding: 103 103 71
Width: 1242
GlyphClass: 2
Flags: W
LayerCount: 2
Fore
SplineSet
734 324 m 2,0,1
 1094 324 1094 324 1094 -46 c 0,2,3
 1094 -335 1094 -335 802 -409 c 0,4,5
 696 -436 696 -436 554 -436 c 128,-1,6
 412 -436 412 -436 320 -420 c 128,-1,7
 228 -404 228 -404 169 -374 c 0,8,9
 56 -317 56 -317 56 -218 c 128,-1,10
 56 -119 56 -119 206 -44 c 1,11,12
 94 40 94 40 94 204 c 0,13,14
 94 362 94 362 196 455 c 0,15,16
 230 486 230 486 276 504 c 1,17,18
 120 600 120 600 120 792 c 0,19,20
 120 946 120 946 230 1044 c 0,21,22
 349 1150 349 1150 570 1150 c 0,23,24
 682 1150 682 1150 776 1120 c 1,25,26
 835 1271 835 1271 981 1315 c 0,27,28
 1024 1328 1024 1328 1061 1328 c 128,-1,29
 1098 1328 1098 1328 1124 1315 c 128,-1,30
 1150 1302 1150 1302 1170 1281 c 0,31,32
 1212 1237 1212 1237 1212 1172 c 256,33,34
 1212 1107 1212 1107 1170 1063 c 0,35,36
 1127 1018 1127 1018 1082.5 1018 c 128,-1,37
 1038 1018 1038 1018 1012 1030 c 128,-1,38
 986 1042 986 1042 965 1063 c 0,39,40
 922 1106 922 1106 922 1172 c 0,41,42
 922 1198 922 1198 932 1224 c 1,43,44
 861 1182 861 1182 828 1100 c 1,45,46
 1018 1007 1018 1007 1018 792 c 0,47,48
 1018 629 1018 629 901 533 c 0,49,50
 781 434 781 434 570 434 c 0,51,52
 434 434 434 434 338 474 c 1,53,54
 266 456 266 456 266 402 c 0,55,56
 266 324 266 324 448 324 c 2,57,-1
 734 324 l 2,0,1
570 498 m 256,58,59
 647 498 647 498 658 656 c 0,60,61
 662 712 662 712 662 792 c 256,62,63
 662 961 662 961 647 1008.5 c 128,-1,64
 632 1056 632 1056 614 1073 c 128,-1,65
 596 1090 596 1090 570 1090 c 256,66,67
 491 1090 491 1090 480 929 c 0,68,69
 476 872 476 872 476 792 c 256,70,71
 476 625 476 625 491 577.5 c 128,-1,72
 506 530 506 530 525 514 c 128,-1,73
 544 498 544 498 570 498 c 256,58,59
268 -80 m 1,74,75
 170 -136 170 -136 170 -212 c 0,76,77
 170 -364 170 -364 544 -364 c 0,78,79
 736 -364 736 -364 853 -320 c 0,80,81
 960 -280 960 -280 960 -208 c 0,82,83
 960 -118 960 -118 766 -118 c 2,84,-1
 484 -118 l 2,85,86
 365 -118 365 -118 268 -80 c 1,74,75
EndSplineSet
Validated: 1
EndChar

StartChar: h
Encoding: 104 104 72
Width: 1438
GlyphClass: 2
Flags: W
LayerCount: 2
Fore
SplineSet
70 72 m 1,0,-1
 194 72 l 1,1,-1
 194 1345 l 5,2,-1
 70 1345 l 5,3,-1
 70 1417 l 5,4,-1
 616 1417 l 5,5,-1
 616 986 l 1,6,7
 684 1104 684 1104 826 1139 c 0,8,9
 870 1150 870 1150 942 1150 c 128,-1,10
 1014 1150 1014 1150 1077 1115 c 128,-1,11
 1140 1080 1140 1080 1176 1014 c 0,12,13
 1242 893 1242 893 1242 648 c 2,14,-1
 1242 72 l 1,15,-1
 1366 72 l 1,16,-1
 1366 0 l 1,17,-1
 748 0 l 1,18,-1
 748 72 l 1,19,-1
 820 72 l 1,20,-1
 820 648 l 2,21,22
 820 855 820 855 804 905.5 c 128,-1,23
 788 956 788 956 771 971 c 128,-1,24
 754 986 754 986 728 986 c 256,25,26
 647 986 647 986 623 855 c 0,27,28
 616 816 616 816 616 768 c 2,29,-1
 616 72 l 1,30,-1
 686 72 l 1,31,-1
 686 0 l 1,32,-1
 70 0 l 1,33,-1
 70 72 l 1,0,-1
EndSplineSet
Validated: 1
EndChar

StartChar: k
Encoding: 107 107 75
Width: 1338
GlyphClass: 2
Flags: W
LayerCount: 2
Fore
SplineSet
692 542 m 1,0,1
 620 437 620 437 618 434 c 1,2,-1
 618 72 l 1,3,-1
 706 72 l 1,4,-1
 706 0 l 1,5,-1
 72 0 l 1,6,-1
 72 72 l 1,7,-1
 194 72 l 1,8,-1
 194 1347 l 5,9,-1
 72 1347 l 5,10,-1
 72 1419 l 5,11,-1
 618 1419 l 5,12,-1
 618 586 l 1,13,14
 638 612 638 612 665 649 c 128,-1,15
 692 686 692 686 723 728 c 2,16,17
 723 728 723 728 769.5 791 c 128,-1,18
 816 854 816 854 840 889 c 0,19,20
 904 982 904 982 904 987 c 2,21,22
 904 987 904 987 904 994 c 0,23,24
 904 1040 904 1040 772 1040 c 1,25,-1
 772 1112 l 1,26,-1
 1204 1112 l 1,27,-1
 1204 1040 l 1,28,29
 1097 1040 1097 1040 1046 1012 c 0,30,31
 1021 998 1021 998 977.5 939 c 128,-1,32
 934 880 934 880 901 835 c 128,-1,33
 868 790 868 790 832 741 c 128,-1,34
 796 692 796 692 764 644 c 1,35,36
 804 648 804 648 865 648 c 128,-1,37
 926 648 926 648 984 631 c 128,-1,38
 1042 614 1042 614 1080 576 c 0,39,40
 1154 502 1154 502 1154 318 c 2,41,42
 1154 318 1154 318 1154 242 c 257,43,44
 1154 242 1154 242 1152 218 c 128,-1,45
 1150 194 1150 194 1150 164 c 0,46,47
 1150 98 1150 98 1180 98 c 0,48,49
 1222 98 1222 98 1222 302 c 1,50,-1
 1282 302 l 1,51,-1
 1282 268 l 2,52,53
 1282 79 1282 79 1218 17 c 0,54,55
 1161 -38 1161 -38 1002 -38 c 0,56,57
 841 -38 841 -38 783 46 c 0,58,59
 734 117 734 117 734 294 c 0,60,61
 734 394 734 394 726 456 c 128,-1,62
 718 518 718 518 692 542 c 1,0,1
EndSplineSet
Validated: 1
EndChar

StartChar: l
Encoding: 108 108 76
Width: 814
GlyphClass: 2
Flags: W
LayerCount: 2
Fore
SplineSet
72 72 m 1,0,-1
 194 72 l 1,1,-1
 194 1345 l 5,2,-1
 72 1345 l 5,3,-1
 72 1417 l 5,4,-1
 618 1417 l 5,5,-1
 618 72 l 1,6,-1
 742 72 l 1,7,-1
 742 0 l 1,8,-1
 72 0 l 1,9,-1
 72 72 l 1,0,-1
EndSplineSet
Validated: 1
EndChar

StartChar: m
Encoding: 109 109 77
Width: 2060
GlyphClass: 2
Flags: W
LayerCount: 2
Fore
SplineSet
1236 826 m 1,0,1
 1248 746 1248 746 1248 648 c 2,2,-1
 1248 72 l 1,3,-1
 1318 72 l 1,4,-1
 1318 0 l 1,5,-1
 754 0 l 1,6,-1
 754 72 l 1,7,-1
 826 72 l 1,8,-1
 826 648 l 2,9,10
 826 855 826 855 810 905.5 c 128,-1,11
 794 956 794 956 777 971 c 128,-1,12
 760 986 760 986 734 986 c 256,13,14
 636 986 636 986 636 768 c 2,15,-1
 636 72 l 1,16,-1
 706 72 l 1,17,-1
 706 0 l 1,18,-1
 90 0 l 1,19,-1
 90 72 l 1,20,-1
 216 72 l 1,21,-1
 216 1040 l 1,22,-1
 90 1040 l 1,23,-1
 90 1112 l 1,24,-1
 636 1112 l 1,25,-1
 636 986 l 1,26,27
 730 1150 730 1150 926 1150 c 0,28,29
 1145 1150 1145 1150 1212 948 c 1,30,31
 1242 1031 1242 1031 1327 1092 c 0,32,33
 1408 1150 1408 1150 1509 1150 c 128,-1,34
 1610 1150 1610 1150 1679 1117 c 128,-1,35
 1748 1084 1748 1084 1788 1019 c 0,36,37
 1858 905 1858 905 1858 648 c 2,38,-1
 1858 72 l 1,39,-1
 1982 72 l 1,40,-1
 1982 0 l 1,41,-1
 1366 0 l 1,42,-1
 1366 72 l 1,43,-1
 1436 72 l 1,44,-1
 1436 648 l 2,45,46
 1436 852 1436 852 1421 904 c 128,-1,47
 1406 956 1406 956 1388 971 c 128,-1,48
 1370 986 1370 986 1334 986 c 128,-1,49
 1298 986 1298 986 1272 942 c 128,-1,50
 1246 898 1246 898 1236 826 c 1,0,1
EndSplineSet
Validated: 1
EndChar

StartChar: n
Encoding: 110 110 78
Width: 1462
GlyphClass: 2
Flags: W
LayerCount: 2
Fore
SplineSet
90 72 m 1,0,-1
 216 72 l 1,1,-1
 216 1040 l 1,2,-1
 90 1040 l 1,3,-1
 90 1112 l 1,4,-1
 636 1112 l 1,5,-1
 636 986 l 1,6,7
 704 1104 704 1104 846 1139 c 0,8,9
 890 1150 890 1150 962 1150 c 128,-1,10
 1034 1150 1034 1150 1097 1115 c 128,-1,11
 1160 1080 1160 1080 1196 1014 c 0,12,13
 1262 893 1262 893 1262 648 c 2,14,-1
 1262 72 l 1,15,-1
 1386 72 l 1,16,-1
 1386 0 l 1,17,-1
 768 0 l 1,18,-1
 768 72 l 1,19,-1
 840 72 l 1,20,-1
 840 648 l 2,21,22
 840 845 840 845 824 900.5 c 128,-1,23
 808 956 808 956 791 971 c 128,-1,24
 774 986 774 986 748 986 c 256,25,26
 671 986 671 986 644 855 c 0,27,28
 636 816 636 816 636 768 c 2,29,-1
 636 72 l 1,30,-1
 706 72 l 1,31,-1
 706 0 l 1,32,-1
 90 0 l 1,33,-1
 90 72 l 1,0,-1
EndSplineSet
Validated: 1
EndChar

StartChar: o
Encoding: 111 111 79
Width: 1230
GlyphClass: 2
Flags: W
LayerCount: 2
Fore
SplineSet
88 556 m 260,0,1
 88 823 88 823 222 983 c 4,2,3
 362 1150 362 1150 624 1150 c 260,4,5
 885 1150 885 1150 1027 983 c 4,6,7
 1162 824 1162 824 1162 556 c 260,8,9
 1162 290 1162 290 1027 131 c 4,10,11
 884 -38 884 -38 624 -38 c 260,12,13
 363 -38 363 -38 222 131 c 4,14,15
 88 291 88 291 88 556 c 260,0,1
578 49 m 132,-1,17
 596 24 596 24 623 24 c 132,-1,18
 650 24 650 24 670 49 c 132,-1,19
 690 74 690 74 702 135 c 4,20,21
 724 247 724 247 724 479.5 c 132,-1,22
 724 712 724 712 719 815 c 132,-1,23
 714 918 714 918 702 978 c 132,-1,24
 690 1038 690 1038 671 1064 c 132,-1,25
 652 1090 652 1090 624 1090 c 132,-1,26
 596 1090 596 1090 578 1064 c 132,-1,27
 560 1038 560 1038 547 978 c 132,-1,28
 534 918 534 918 529 815 c 132,-1,29
 524 712 524 712 524 556 c 132,-1,30
 524 400 524 400 529 298 c 132,-1,31
 534 196 534 196 547 135 c 132,-1,16
 560 74 560 74 578 49 c 132,-1,17
EndSplineSet
Validated: 1
EndChar

StartChar: p
Encoding: 112 112 80
Width: 1330
GlyphClass: 2
Flags: W
LayerCount: 2
Fore
SplineSet
798 -38 m 0,0,1
 670 -38 670 -38 590 60 c 1,2,-1
 590 -328 l 1,3,-1
 714 -328 l 1,4,-1
 714 -400 l 1,5,-1
 44 -400 l 1,6,-1
 44 -328 l 1,7,-1
 168 -328 l 1,8,-1
 168 1040 l 1,9,-1
 44 1040 l 1,10,-1
 44 1112 l 1,11,-1
 590 1112 l 1,12,-1
 590 1032 l 1,13,14
 649 1150 649 1150 812 1150 c 0,15,16
 1032 1150 1032 1150 1151 972 c 0,17,18
 1260 809 1260 809 1260 556 c 256,19,20
 1260 303 1260 303 1151 140 c 0,21,22
 1032 -38 1032 -38 798 -38 c 0,0,1
704 1036 m 0,23,24
 582 1036 582 1036 582 750 c 2,25,-1
 582 314 l 2,26,27
 582 224 582 224 606 170 c 128,-1,28
 630 116 630 116 655 93 c 128,-1,29
 680 70 680 70 712 70 c 128,-1,30
 744 70 744 70 765 95 c 128,-1,31
 786 120 786 120 799 178 c 0,32,33
 824 290 824 290 824 492 c 128,-1,34
 824 694 824 694 818 785 c 128,-1,35
 812 876 812 876 798 933 c 0,36,37
 773 1036 773 1036 704 1036 c 0,23,24
EndSplineSet
Validated: 1
EndChar

StartChar: q
Encoding: 113 113 81
Width: 1326
GlyphClass: 2
Flags: W
LayerCount: 2
Fore
SplineSet
762 60 m 1,0,1
 682 -38 682 -38 553 -38 c 128,-1,2
 424 -38 424 -38 340 10 c 128,-1,3
 256 58 256 58 200 140 c 0,4,5
 90 301 90 301 90 556 c 0,6,7
 90 812 90 812 209 975 c 0,8,9
 336 1150 336 1150 576 1150 c 0,10,11
 827 1150 827 1150 950 948 c 1,12,-1
 1184 1150 l 1,13,-1
 1184 -328 l 1,14,-1
 1308 -328 l 1,15,-1
 1308 -400 l 1,16,-1
 636 -400 l 1,17,-1
 636 -328 l 1,18,-1
 762 -328 l 1,19,-1
 762 60 l 1,0,1
587 95 m 128,-1,21
 608 70 608 70 639 70 c 128,-1,22
 670 70 670 70 695 93 c 128,-1,23
 720 116 720 116 736 152 c 0,24,25
 768 224 768 224 768 314 c 2,26,-1
 768 750 l 2,27,28
 768 973 768 973 695 1036 c 0,29,30
 674 1054 674 1054 644 1054 c 128,-1,31
 614 1054 614 1054 590 1028 c 128,-1,32
 566 1002 566 1002 552 942 c 0,33,34
 526 831 526 831 526 626.5 c 128,-1,35
 526 422 526 422 532 329 c 128,-1,36
 538 236 538 236 552 178 c 128,-1,20
 566 120 566 120 587 95 c 128,-1,21
EndSplineSet
Validated: 1
EndChar

StartChar: r
Encoding: 114 114 82
Width: 1196
GlyphClass: 2
Flags: W
LayerCount: 2
Fore
SplineSet
90 72 m 1,0,-1
 212 72 l 1,1,-1
 212 1040 l 1,2,-1
 90 1040 l 1,3,-1
 90 1112 l 1,4,-1
 636 1112 l 1,5,-1
 636 986 l 1,6,7
 704 1104 704 1104 841 1139 c 0,8,9
 884 1150 884 1150 933 1150 c 128,-1,10
 982 1150 982 1150 1020 1133 c 128,-1,11
 1058 1116 1058 1116 1086 1087 c 128,-1,12
 1114 1058 1114 1058 1129 1017 c 128,-1,13
 1144 976 1144 976 1144 930 c 128,-1,14
 1144 884 1144 884 1128 844 c 128,-1,15
 1112 804 1112 804 1084 775 c 0,16,17
 1021 710 1021 710 938 710 c 256,18,19
 855 710 855 710 792 775 c 0,20,21
 732 837 732 837 732 930 c 0,22,23
 732 965 732 965 748 1018 c 1,24,25
 678 968 678 968 648 868 c 0,26,27
 636 828 636 828 636 782 c 2,28,-1
 636 72 l 1,29,-1
 774 72 l 1,30,-1
 774 0 l 1,31,-1
 90 0 l 1,32,-1
 90 72 l 1,0,-1
EndSplineSet
Validated: 1
EndChar

StartChar: s
Encoding: 115 115 83
Width: 1170
GlyphClass: 2
Flags: W
LayerCount: 2
Fore
SplineSet
566 1150 m 0,0,1
 718 1150 718 1150 890 1012 c 1,2,-1
 986 1138 l 1,3,-1
 1044 1138 l 1,4,-1
 1044 746 l 1,5,-1
 994 746 l 1,6,7
 939 884 939 884 820 975 c 0,8,9
 699 1068 699 1068 564 1068 c 0,10,11
 491 1068 491 1068 458.5 1051 c 128,-1,12
 426 1034 426 1034 405 1002 c 128,-1,13
 384 970 384 970 384 925 c 128,-1,14
 384 880 384 880 411 859 c 128,-1,15
 438 838 438 838 474 820 c 0,16,17
 513 801 513 801 640.5 771.5 c 128,-1,18
 768 742 768 742 844 713 c 128,-1,19
 920 684 920 684 975 634 c 128,-1,20
 1030 584 1030 584 1062 507 c 128,-1,21
 1094 430 1094 430 1094 354 c 128,-1,22
 1094 278 1094 278 1067 201 c 128,-1,23
 1040 124 1040 124 990 71 c 0,24,25
 887 -38 887 -38 694 -38 c 0,26,27
 600 -38 600 -38 520 -2 c 0,28,29
 375 64 375 64 316 144 c 1,30,-1
 192 -22 l 1,31,-1
 134 -22 l 1,32,-1
 134 436 l 1,33,-1
 186 436 l 1,34,35
 246 284 246 284 392 168 c 0,36,37
 541 50 541 50 686 50 c 0,38,39
 761 50 761 50 800.5 77 c 128,-1,40
 840 104 840 104 854 135 c 128,-1,41
 868 166 868 166 868 210 c 128,-1,42
 868 254 868 254 835 276 c 0,43,44
 778 314 778 314 706 332 c 128,-1,45
 634 350 634 350 554 365.5 c 128,-1,46
 474 381 474 381 400 405.5 c 128,-1,47
 326 430 326 430 265 479 c 128,-1,48
 204 528 204 528 170 603 c 128,-1,49
 136 678 136 678 136 755 c 128,-1,50
 136 832 136 832 168 911 c 128,-1,51
 200 990 200 990 258 1043 c 0,52,53
 375 1150 375 1150 566 1150 c 0,0,1
EndSplineSet
Validated: 1
EndChar

StartChar: t
Encoding: 116 116 84
Width: 942
GlyphClass: 2
Flags: W
LayerCount: 2
Fore
SplineSet
815 235 m 128,-1,1
 826 290 826 290 826 331 c 128,-1,2
 826 372 826 372 824 454 c 1,3,-1
 882 454 l 1,4,5
 884 404 884 404 884 321 c 128,-1,6
 884 238 884 238 860 160 c 128,-1,7
 836 82 836 82 791 38 c 0,8,9
 713 -38 713 -38 534 -38 c 0,10,11
 250 -38 250 -38 185 206 c 0,12,13
 162 292 162 292 162 416 c 2,14,-1
 162 1040 l 1,15,-1
 36 1040 l 1,16,-1
 36 1112 l 1,17,-1
 162 1112 l 2,18,19
 295 1112 295 1112 386 1237 c 0,20,21
 468 1350 468 1350 468 1500 c 1,22,-1
 584 1500 l 1,23,-1
 584 1112 l 1,24,-1
 812 1112 l 1,25,-1
 812 1040 l 1,26,-1
 584 1040 l 1,27,-1
 584 426 l 2,28,29
 584 134 584 134 651 93 c 0,30,31
 672 80 672 80 696 80 c 128,-1,32
 720 80 720 80 744 95 c 128,-1,33
 768 110 768 110 786 145 c 128,-1,0
 804 180 804 180 815 235 c 128,-1,1
EndSplineSet
Validated: 1
EndChar

StartChar: u
Encoding: 117 117 85
Width: 1414
GlyphClass: 2
Flags: W
LayerCount: 2
Fore
SplineSet
166 1040 m 1,0,-1
 40 1040 l 1,1,-1
 40 1112 l 1,2,-1
 588 1112 l 1,3,-1
 588 466 l 2,4,5
 588 262 588 262 602 210 c 128,-1,6
 616 158 616 158 634 142 c 128,-1,7
 652 126 652 126 680 126 c 256,8,9
 758 126 758 126 781 259 c 0,10,11
 788 300 788 300 788 344 c 2,12,-1
 788 1040 l 1,13,-1
 684 1040 l 1,14,-1
 684 1112 l 1,15,-1
 1210 1112 l 1,16,-1
 1210 72 l 1,17,-1
 1336 72 l 1,18,-1
 1336 0 l 1,19,-1
 788 0 l 1,20,-1
 788 126 l 1,21,22
 719 7 719 7 579 -27 c 0,23,24
 534 -38 534 -38 463 -38 c 128,-1,25
 392 -38 392 -38 328 -3 c 128,-1,26
 264 32 264 32 228 98 c 0,27,28
 166 212 166 212 166 466 c 2,29,-1
 166 1040 l 1,0,-1
EndSplineSet
Validated: 1
EndChar

StartChar: v
Encoding: 118 118 86
Width: 1202
GlyphClass: 2
Flags: W
LayerCount: 2
Fore
SplineSet
938 994 m 1,0,1
 938 1040 938 1040 810 1040 c 1,2,-1
 810 1112 l 1,3,-1
 1160 1112 l 1,4,-1
 1160 1040 l 1,5,6
 1069 1040 1069 1040 1044 1008 c 0,7,8
 1032 994 1032 994 1016 933 c 2,9,10
 1016 933 1016 933 768 0 c 1,11,-1
 464 0 l 1,12,-1
 154 1040 l 1,13,-1
 30 1040 l 1,14,-1
 30 1112 l 1,15,-1
 692 1112 l 1,16,-1
 692 1040 l 1,17,-1
 598 1040 l 1,18,-1
 780 399 l 1,19,20
 924 934 924 934 938 994 c 1,0,1
EndSplineSet
Validated: 1
EndChar

StartChar: w
Encoding: 119 119 87
Width: 1746
GlyphClass: 2
Flags: W
LayerCount: 2
Fore
SplineSet
1479 981 m 0,0,1
 1480 986 1480 986 1480 991 c 0,2,3
 1480 992 1480 992 1480 993 c 128,-1,4
 1480 994 1480 994 1480 995 c 0,5,6
 1480 1040 1480 1040 1362 1040 c 1,7,-1
 1362 1112 l 1,8,-1
 1704 1112 l 1,9,-1
 1704 1040 l 1,10,11
 1613 1040 1613 1040 1589 1008 c 0,12,13
 1580 996 1580 996 1572 978 c 257,14,15
 1572 978 1572 978 1366 0 c 1,16,-1
 1060 0 l 1,17,-1
 872 768 l 1,18,-1
 714 0 l 1,19,-1
 410 0 l 1,20,-1
 154 1040 l 1,21,-1
 30 1040 l 1,22,-1
 30 1112 l 1,23,-1
 666 1112 l 1,24,-1
 666 1040 l 1,25,-1
 604 1040 l 1,26,-1
 723 454 l 1,27,-1
 826 958 l 1,28,-1
 804 1040 l 1,29,-1
 714 1040 l 1,30,-1
 714 1112 l 1,31,-1
 1306 1112 l 1,32,-1
 1306 1040 l 1,33,-1
 1256 1040 l 1,34,-1
 1373 460 l 1,35,36
 1407 635 1407 635 1479 981 c 0,0,1
EndSplineSet
Validated: 1
EndChar

StartChar: x
Encoding: 120 120 88
Width: 1354
GlyphClass: 2
Flags: W
LayerCount: 2
Fore
SplineSet
1019 1014 m 0,0,1
 1019 1041 1019 1041 924 1041 c 0,2,3
 907 1041 907 1041 886 1040 c 1,4,5
 886 1040 886 1040 886 1112 c 1,6,-1
 1242 1112 l 1,7,-1
 1242 1040 l 1,8,9
 1235 1041 1235 1041 1214 1041 c 0,10,11
 1211 1041 1211 1041 1148 1020 c 0,12,13
 1142 1018 1142 1018 1126 999 c 128,-1,14
 1110 980 1110 980 856 690 c 1,15,16
 856 690 856 690 1150 72 c 1,17,-1
 1276 72 l 1,18,-1
 1276 0 l 1,19,-1
 592 0 l 1,20,-1
 592 72 l 1,21,-1
 686 72 l 1,22,-1
 542 380 l 1,23,24
 348 160 348 160 348 160 c 0,25,26
 308 124 308 124 308 100 c 0,27,28
 308 72 308 72 412 72 c 2,29,30
 412 72 412 72 430 72 c 1,31,32
 430 72 430 72 430 0 c 1,33,-1
 72 0 l 1,34,-1
 72 72 l 1,35,36
 72 72 72 72 84 72 c 0,37,38
 150 72 150 72 186 112 c 2,39,40
 186 112 186 112 502 468 c 1,41,42
 502 468 502 468 230 1040 c 1,43,-1
 104 1040 l 1,44,-1
 104 1112 l 1,45,-1
 786 1112 l 1,46,-1
 786 1040 l 1,47,-1
 692 1040 l 1,48,-1
 820 776 l 1,49,50
 944 930 944 930 1008 994 c 0,51,52
 1019 1005 1019 1005 1019 1014 c 0,0,1
EndSplineSet
Validated: 1
EndChar

StartChar: y
Encoding: 121 121 89
Width: 1202
GlyphClass: 2
Flags: W
LayerCount: 2
Fore
SplineSet
810 1040 m 1,0,-1
 810 1112 l 1,1,-1
 1160 1112 l 1,2,-1
 1160 1040 l 1,3,4
 1064 1040 1064 1040 1043 1008 c 0,5,6
 1036 997 1036 997 1031 982 c 0,7,8
 735 5 735 5 637 -186 c 0,9,10
 599 -262 599 -262 536 -334 c 0,11,12
 442 -436 442 -436 274 -436 c 0,13,14
 121 -436 121 -436 73 -337 c 0,15,16
 56 -302 56 -302 56 -256 c 128,-1,17
 56 -210 56 -210 70 -175 c 128,-1,18
 84 -140 84 -140 108 -114 c 0,19,20
 158 -60 158 -60 234 -60 c 0,21,22
 346 -60 346 -60 397 -168 c 0,23,24
 412 -200 412 -200 412 -237 c 0,25,26
 412 -342 412 -342 370 -370 c 1,27,28
 372 -370 372 -370 374 -370 c 0,29,30
 449 -370 449 -370 560 -143 c 1,31,-1
 154 1040 l 1,32,-1
 30 1040 l 1,33,-1
 30 1112 l 1,34,-1
 692 1112 l 1,35,-1
 692 1040 l 1,36,-1
 598 1040 l 1,37,-1
 774 462 l 1,38,39
 899 850 899 850 942 992 c 1,40,41
 943 996 943 996 943 1000 c 0,42,43
 943 1040 943 1040 810 1040 c 1,0,-1
EndSplineSet
Validated: 1
EndChar

StartChar: z
Encoding: 122 122 90
Width: 1238
GlyphClass: 2
Flags: W
LayerCount: 2
Fore
SplineSet
368 1040 m 2,0,1
 333 1040 333 1040 212 676 c 1,2,-1
 144 676 l 1,3,-1
 144 1112 l 1,4,-1
 1110 1112 l 1,5,-1
 1110 1040 l 1,6,-1
 604 72 l 1,7,-1
 866 72 l 2,8,9
 891 72 891 72 918.5 127 c 128,-1,10
 946 182 946 182 963 223 c 2,11,12
 963 223 963 223 988.5 284.5 c 128,-1,13
 1014 346 1014 346 1025 381 c 128,-1,14
 1036 416 1036 416 1044 436 c 1,15,-1
 1112 436 l 1,16,-1
 1112 0 l 1,17,-1
 108 0 l 1,18,-1
 108 72 l 1,19,-1
 618 1040 l 1,20,-1
 368 1040 l 2,0,1
EndSplineSet
Validated: 1
EndChar

StartChar: braceleft
Encoding: 123 123 91
Width: 582
GlyphClass: 2
Flags: W
LayerCount: 2
Fore
SplineSet
459 266 m 128,-1,1
 458 240 458 240 456 118 c 0,2,3
 455 83 455 83 455 55 c 0,4,5
 455 -16 455 -16 459 -49 c 0,6,7
 464 -94 464 -94 478 -121 c 0,8,9
 502 -168 502 -168 580 -168 c 1,10,-1
 580 -238 l 1,11,12
 361 -238 361 -238 274 -185 c 0,13,14
 162 -117 162 -117 162 86 c 1,15,16
 162 86 162 86 164 211 c 128,-1,17
 166 336 166 336 166 396 c 128,-1,18
 166 456 166 456 163 506 c 128,-1,19
 160 556 160 556 149 592 c 0,20,21
 125 672 125 672 68 672 c 1,22,-1
 68 746 l 1,23,24
 153 746 153 746 163 911 c 0,25,26
 166 960 166 960 166 1021 c 128,-1,27
 166 1082 166 1082 165 1119 c 128,-1,28
 164 1156 164 1156 163 1297 c 0,29,30
 163 1302 163 1302 163 1306 c 0,31,32
 163 1440 163 1440 191 1502 c 0,33,34
 220 1566 220 1566 274 1599 c 0,35,36
 361 1652 361 1652 580 1652 c 1,37,-1
 580 1584 l 1,38,39
 504 1584 504 1584 478 1536 c 0,40,41
 454 1491 454 1491 454 1374.5 c 128,-1,42
 454 1258 454 1258 456 1218 c 128,-1,43
 458 1178 458 1178 460 1002 c 0,44,45
 460 820 460 820 319 740 c 0,46,47
 280 718 280 718 240 708 c 1,48,49
 388 671 388 671 441 532 c 0,50,51
 460 482 460 482 460 426 c 2,52,53
 460 426 460 426 460 359 c 128,-1,0
 460 292 460 292 459 266 c 128,-1,1
EndSplineSet
Validated: 1
EndChar

StartChar: bar
Encoding: 124 124 92
Width: 378
GlyphClass: 2
Flags: W
LayerCount: 2
Fore
SplineSet
138 1824 m 1,0,-1
 242 1824 l 1,1,-1
 242 -590 l 1,2,-1
 138 -590 l 1,3,-1
 138 1824 l 1,0,-1
EndSplineSet
Validated: 1
EndChar

StartChar: braceright
Encoding: 125 125 93
Width: 582
GlyphClass: 2
Flags: W
LayerCount: 2
Fore
SplineSet
417 506 m 0,0,1
 414 456 414 456 414 396 c 128,-1,2
 414 336 414 336 415 298 c 128,-1,3
 416 260 416 260 417 119 c 0,4,5
 417 114 417 114 417 110 c 0,6,7
 417 -24 417 -24 389 -87 c 0,8,9
 360 -152 360 -152 306 -185 c 0,10,11
 219 -238 219 -238 0 -238 c 1,12,13
 0 -238 0 -238 0 -168 c 1,14,15
 78 -168 78 -168 102 -121 c 0,16,17
 126 -75 126 -75 126 66 c 1,18,19
 126 66 126 66 123 179 c 128,-1,20
 120 292 120 292 120 331 c 2,21,22
 120 331 120 331 120 406.5 c 128,-1,23
 120 482 120 482 139 532 c 128,-1,24
 158 582 158 582 190 618 c 0,25,26
 250 686 250 686 340 708 c 1,27,28
 192 745 192 745 139 884 c 0,29,30
 120 934 120 934 120 968 c 128,-1,31
 120 1002 120 1002 122 1110 c 128,-1,32
 124 1218 124 1218 125 1261 c 128,-1,33
 126 1304 126 1304 126 1362 c 128,-1,34
 126 1420 126 1420 121 1465 c 128,-1,35
 116 1510 116 1510 102 1536 c 0,36,37
 76 1584 76 1584 0 1584 c 1,38,39
 0 1584 0 1584 0 1652 c 1,40,41
 219 1652 219 1652 306 1599 c 0,42,43
 418 1531 418 1531 418 1330 c 1,44,45
 418 1330 418 1330 416 1206 c 128,-1,46
 414 1082 414 1082 414 1021 c 128,-1,47
 414 960 414 960 417 911 c 128,-1,48
 420 862 420 862 431 825 c 0,49,50
 454 746 454 746 512 746 c 1,51,52
 512 746 512 746 512 672 c 1,53,54
 427 672 427 672 417 506 c 0,0,1
EndSplineSet
Validated: 1
EndChar

StartChar: asciitilde
Encoding: 126 126 94
Width: 980
GlyphClass: 2
Flags: W
LayerCount: 2
Fore
SplineSet
164 358 m 5,0,-1
 124 394 l 5,1,2
 132 524 132 524 186 605 c 132,-1,3
 240 686 240 686 330 686 c 4,4,5
 370 686 370 686 414 667 c 132,-1,6
 458 648 458 648 505 625 c 132,-1,7
 552 602 552 602 595 582 c 132,-1,8
 638 562 638 562 684 562 c 4,9,10
 769 562 769 562 832 664 c 5,11,-1
 870 628 l 5,12,13
 857 420 857 420 746 355 c 4,14,15
 710 334 710 334 669 334 c 4,16,17
 599 334 599 334 502 392 c 5,18,19
 380 458 380 458 299.5 458 c 132,-1,20
 219 458 219 458 164 358 c 5,0,-1
EndSplineSet
Validated: 1
EndChar

StartChar: sterling
Encoding: 163 163 97
Width: 1292
GlyphClass: 2
Flags: W
LayerCount: 2
Fore
SplineSet
930 -38 m 0,0,1
 749 -38 749 -38 522 148 c 1,2,3
 468 54 468 54 413 8 c 128,-1,4
 358 -38 358 -38 298 -38 c 128,-1,5
 238 -38 238 -38 201 -20 c 128,-1,6
 164 -2 164 -2 136 28 c 0,7,8
 82 86 82 86 82 186 c 0,9,10
 82 334 82 334 195 379 c 0,11,12
 228 392 228 392 254 392 c 128,-1,13
 280 392 280 392 300 390 c 128,-1,14
 320 388 320 388 342 386 c 1,15,-1
 306 466 l 1,16,-1
 102 466 l 1,17,-1
 102 570 l 1,18,-1
 260 570 l 1,19,20
 260 570 260 570 222 682 c 1,21,-1
 102 682 l 1,22,-1
 102 786 l 1,23,-1
 196 786 l 1,24,25
 178 885 178 885 178 972.5 c 128,-1,26
 178 1060 178 1060 195 1132 c 128,-1,27
 212 1204 212 1204 244 1258 c 128,-1,28
 276 1312 276 1312 320 1349 c 128,-1,29
 364 1386 364 1386 418 1410 c 0,30,31
 517 1454 517 1454 650.5 1454 c 128,-1,32
 784 1454 784 1454 885 1428 c 128,-1,33
 986 1402 986 1402 1056 1353 c 0,34,35
 1202 1251 1202 1251 1202 1078 c 0,36,37
 1202 971 1202 971 1133 904 c 0,38,39
 1071 844 1071 844 986 844 c 0,40,41
 896 844 896 844 833 911 c 0,42,43
 770 978 770 978 770 1076 c 0,44,45
 770 1169 770 1169 824 1233 c 0,46,47
 879 1298 879 1298 966 1298 c 0,48,49
 1003 1298 1003 1298 1030 1288 c 1,50,51
 915 1358 915 1358 782 1358 c 0,52,53
 686 1358 686 1358 639 1289 c 0,54,55
 604 1237 604 1237 604 1152.5 c 128,-1,56
 604 1068 604 1068 605 1026 c 128,-1,57
 606 984 606 984 608 944 c 128,-1,58
 610 904 610 904 613 866 c 128,-1,59
 616 828 616 828 618 786 c 1,60,-1
 854 786 l 1,61,-1
 854 682 l 1,62,-1
 624 682 l 1,63,64
 624 682 624 682 624 570 c 1,65,-1
 854 570 l 1,66,-1
 854 466 l 1,67,-1
 616 466 l 1,68,69
 605 387 605 387 598 352 c 1,70,71
 718 336 718 336 800 336 c 128,-1,72
 882 336 882 336 935 339 c 128,-1,73
 988 342 988 342 1033 357 c 0,74,75
 1130 389 1130 389 1158 474 c 1,76,-1
 1202 474 l 1,77,78
 1202 474 1202 474 1205 423 c 128,-1,79
 1208 372 1208 372 1208 314 c 128,-1,80
 1208 256 1208 256 1194 185 c 128,-1,81
 1180 114 1180 114 1146 64 c 0,82,83
 1077 -38 1077 -38 930 -38 c 0,0,1
200 240 m 128,-1,85
 192 216 192 216 192 184 c 128,-1,86
 192 152 192 152 201 125 c 128,-1,87
 210 98 210 98 226 80 c 0,88,89
 256 46 256 46 300 46 c 256,90,91
 345 46 345 46 368 71 c 0,92,93
 410 115 410 115 410 164.5 c 128,-1,94
 410 214 410 214 398 250 c 1,95,96
 313 316 313 316 287.5 316 c 128,-1,97
 262 316 262 316 247 306 c 128,-1,98
 232 296 232 296 220 280 c 128,-1,84
 208 264 208 264 200 240 c 128,-1,85
EndSplineSet
Validated: 1
EndChar

StartChar: currency
Encoding: 164 164 98
Width: 1020
VWidth: 1596
GlyphClass: 2
Flags: W
LayerCount: 2
Fore
SplineSet
263 556 m 128,-1,1
 263 504 263 504 282.5 459.5 c 128,-1,2
 302 415 302 415 335.5 381.5 c 128,-1,3
 369 348 369 348 415.5 327.5 c 128,-1,4
 462 307 462 307 514 307 c 128,-1,5
 566 307 566 307 612.5 328 c 128,-1,6
 659 349 659 349 693 383 c 128,-1,7
 727 417 727 417 746 460.5 c 128,-1,8
 765 504 765 504 765 556 c 128,-1,9
 765 608 765 608 745.5 651.5 c 128,-1,10
 726 695 726 695 691.5 729.5 c 128,-1,11
 657 764 657 764 611.5 783.5 c 128,-1,12
 566 803 566 803 514 803 c 128,-1,13
 462 803 462 803 415.5 783.5 c 128,-1,14
 369 764 369 764 335.5 729.5 c 128,-1,15
 302 695 302 695 282.5 651.5 c 128,-1,0
 263 608 263 608 263 556 c 128,-1,1
805 764 m 1,16,17
 875 666 875 666 875 551.5 c 128,-1,18
 875 437 875 437 802 343 c 1,19,-1
 931 217 l 2,20,21
 945 203 945 203 931 190 c 2,22,-1
 879 142 l 2,23,24
 873 136 873 136 866 136 c 128,-1,25
 859 136 859 136 853 142 c 2,26,-1
 722 267 l 1,27,28
 628 201 628 201 508.5 201 c 128,-1,29
 389 201 389 201 303 267 c 1,30,-1
 175 142 l 2,31,32
 168 136 168 136 160 136 c 0,33,34
 152 136 152 136 121 166 c 0,35,36
 91 196 91 196 91 204 c 128,-1,37
 91 212 91 212 97 217 c 2,38,-1
 225 344 l 1,39,40
 153 440 153 440 153 552 c 128,-1,41
 153 664 153 664 221 764 c 1,42,-1
 97 885 l 2,43,44
 91 891 91 891 91 898.5 c 128,-1,45
 91 906 91 906 97 911 c 2,46,-1
 149 962 l 2,47,48
 155 967 155 967 162.5 967 c 128,-1,49
 170 967 170 967 175 962 c 2,50,-1
 298 841 l 1,51,52
 396 911 396 911 514.5 911 c 128,-1,53
 633 911 633 911 730 841 c 1,54,-1
 853 962 l 2,55,56
 859 967 859 967 866.5 967 c 128,-1,57
 874 967 874 967 879 962 c 2,58,-1
 931 911 l 2,59,60
 937 905 937 905 937 897.5 c 128,-1,61
 937 890 937 890 931 885 c 2,62,-1
 805 764 l 1,16,17
EndSplineSet
Validated: 1
EndChar

StartChar: brokenbar
Encoding: 166 166 100
Width: 372
GlyphClass: 2
Flags: W
LayerCount: 2
Fore
SplineSet
150 1824 m 1,0,-1
 224 1824 l 1,1,-1
 224 710 l 1,2,-1
 150 710 l 1,3,-1
 150 1824 l 1,0,-1
224 524 m 1,4,-1
 224 -590 l 1,5,-1
 150 -590 l 1,6,-1
 150 524 l 1,7,-1
 224 524 l 1,4,-1
EndSplineSet
Validated: 1
EndChar

StartChar: section
Encoding: 167 167 101
Width: 1064
GlyphClass: 2
Flags: W
LayerCount: 2
Fore
SplineSet
808 534 m 1,0,1
 889 480 889 480 923 408 c 0,2,3
 962 326 962 326 962 214 c 128,-1,4
 962 102 962 102 931 27 c 128,-1,5
 900 -48 900 -48 844 -98 c 0,6,7
 730 -200 730 -200 540 -200 c 0,8,9
 360 -200 360 -200 220 -120 c 0,10,11
 104 -52 104 -52 104 64 c 0,12,13
 104 162 104 162 188 207 c 0,14,15
 212 220 212 220 243 220 c 128,-1,16
 274 220 274 220 300 207 c 128,-1,17
 326 194 326 194 344 173 c 0,18,19
 386 124 386 124 386 64 c 0,20,21
 386 11 386 11 346 -42 c 0,22,23
 334 -58 334 -58 316 -68 c 1,24,25
 349 -95 349 -95 431.5 -103.5 c 128,-1,26
 514 -112 514 -112 584 -112 c 128,-1,27
 654 -112 654 -112 709 -80 c 128,-1,28
 764 -48 764 -48 764 -8 c 128,-1,29
 764 32 764 32 742 58 c 128,-1,30
 720 84 720 84 685 105 c 0,31,32
 623 142 623 142 517.5 173 c 128,-1,33
 412 204 412 204 338 233 c 128,-1,34
 264 262 264 262 212 306 c 0,35,36
 100 401 100 401 100 582 c 0,37,38
 100 762 100 762 210 878 c 0,39,40
 246 916 246 916 288 942 c 1,41,42
 216 994 216 994 181 1069 c 128,-1,43
 146 1144 146 1144 146 1250 c 128,-1,44
 146 1356 146 1356 177 1431 c 128,-1,45
 208 1506 208 1506 262 1559 c 0,46,47
 373 1668 373 1668 548 1668 c 0,48,49
 699 1668 699 1668 807 1595 c 0,50,51
 914 1523 914 1523 914 1424 c 0,52,53
 914 1360 914 1360 886 1326 c 128,-1,54
 858 1292 858 1292 835 1281 c 128,-1,55
 812 1270 812 1270 780 1270 c 128,-1,56
 748 1270 748 1270 722 1281 c 128,-1,57
 696 1292 696 1292 679 1314 c 0,58,59
 638 1367 638 1367 638 1424 c 0,60,61
 638 1460 638 1460 653 1488 c 0,62,63
 679 1537 679 1537 720 1548 c 1,64,65
 665 1594 665 1594 548 1594 c 0,66,67
 459 1594 459 1594 413 1566 c 0,68,69
 330 1516 330 1516 330 1454 c 0,70,71
 330 1387 330 1387 400 1346 c 0,72,73
 471 1304 471 1304 569.5 1278 c 128,-1,74
 668 1252 668 1252 737 1221 c 128,-1,75
 806 1190 806 1190 856 1143 c 0,76,77
 958 1047 958 1047 958 846 c 128,-1,78
 958 645 958 645 808 534 c 1,0,1
362 898 m 1,79,80
 318 867 318 867 318 825.5 c 128,-1,81
 318 784 318 784 337 759 c 128,-1,82
 356 734 356 734 392 711 c 0,83,84
 446 676 446 676 535 648 c 0,85,86
 673 604 673 604 714 584 c 1,87,88
 758 610 758 610 758 651 c 128,-1,89
 758 692 758 692 737 718 c 128,-1,90
 716 744 716 744 681 764 c 0,91,92
 630 793 630 793 527 829.5 c 128,-1,93
 424 866 424 866 362 898 c 1,79,80
EndSplineSet
Validated: 1
EndChar

StartChar: copyright
Encoding: 169 169 103
Width: 1748
VWidth: 1644
GlyphClass: 2
Flags: W
LayerCount: 2
Fore
SplineSet
189 417 m 128,-1,1
 130 552 130 552 130 681 c 128,-1,2
 130 810 130 810 156 906 c 128,-1,3
 182 1002 182 1002 231 1085 c 128,-1,4
 280 1168 280 1168 349 1236 c 128,-1,5
 418 1304 418 1304 500 1353 c 128,-1,6
 582 1402 582 1402 677 1428 c 128,-1,7
 772 1454 772 1454 875 1454 c 128,-1,8
 978 1454 978 1454 1074 1428 c 128,-1,9
 1170 1402 1170 1402 1253 1353 c 128,-1,10
 1336 1304 1336 1304 1404 1236 c 128,-1,11
 1472 1168 1472 1168 1521 1085 c 128,-1,12
 1570 1002 1570 1002 1596 907 c 128,-1,13
 1622 812 1622 812 1622 708 c 128,-1,14
 1622 604 1622 604 1596 509 c 128,-1,15
 1570 414 1570 414 1521 332 c 128,-1,16
 1472 250 1472 250 1404 181 c 128,-1,17
 1336 112 1336 112 1253 63 c 0,18,19
 1082 -38 1082 -38 901 -38 c 128,-1,20
 720 -38 720 -38 585 21 c 128,-1,21
 450 80 450 80 349 181 c 128,-1,0
 248 282 248 282 189 417 c 128,-1,1
224 708 m 128,-1,23
 224 618 224 618 247 534 c 128,-1,24
 270 450 270 450 312 378 c 128,-1,25
 354 306 354 306 414 246 c 128,-1,26
 474 186 474 186 546 144 c 128,-1,27
 618 102 618 102 702 79 c 128,-1,28
 786 56 786 56 876 56 c 128,-1,29
 966 56 966 56 1049 79 c 128,-1,30
 1132 102 1132 102 1205 144 c 128,-1,31
 1278 186 1278 186 1337 246 c 128,-1,32
 1396 306 1396 306 1439 378 c 128,-1,33
 1482 450 1482 450 1506 534 c 128,-1,34
 1530 618 1530 618 1530 708 c 128,-1,35
 1530 798 1530 798 1506 881 c 128,-1,36
 1482 964 1482 964 1439 1037 c 128,-1,37
 1396 1110 1396 1110 1337 1169 c 128,-1,38
 1278 1228 1278 1228 1205 1271 c 128,-1,39
 1132 1314 1132 1314 1049 1338 c 128,-1,40
 966 1362 966 1362 876 1362 c 128,-1,41
 786 1362 786 1362 702 1338 c 128,-1,42
 618 1314 618 1314 546 1271 c 128,-1,43
 474 1228 474 1228 414 1169 c 128,-1,44
 354 1110 354 1110 312 1037 c 128,-1,45
 270 964 270 964 247 881 c 128,-1,22
 224 798 224 798 224 708 c 128,-1,23
990 336 m 0,46,47
 1255 336 1255 336 1276 654 c 1,48,-1
 1350 654 l 1,49,50
 1337 364 1337 364 1103 276 c 0,51,52
 1018 244 1018 244 899 244 c 128,-1,53
 780 244 780 244 684 276 c 128,-1,54
 588 308 588 308 520 365 c 0,55,56
 378 484 378 484 378 678 c 0,57,58
 378 889 378 889 509 1018 c 0,59,60
 649 1156 649 1156 900 1156 c 0,61,62
 1049 1156 1049 1156 1172 1076 c 0,63,64
 1212 1050 1212 1050 1244 1016 c 1,65,-1
 1290 1092 l 1,66,-1
 1344 1092 l 1,67,-1
 1344 750 l 1,68,-1
 1276 750 l 1,69,70
 1236 923 1236 923 1143 1007 c 0,71,72
 1071 1072 1071 1072 966 1072 c 0,73,74
 794 1072 794 1072 794 736 c 0,75,76
 794 415 794 415 908 355 c 0,77,78
 944 336 944 336 990 336 c 0,46,47
EndSplineSet
Validated: 1
EndChar

StartChar: ordfeminine
Encoding: 170 170 104
Width: 808
GlyphClass: 2
Flags: W
LayerCount: 2
Fore
SplineSet
416 758 m 1,0,1
 378 676 378 676 250 676 c 0,2,3
 163 676 163 676 117 731 c 0,4,5
 80 775 80 775 80 847.5 c 128,-1,6
 80 920 80 920 105 960 c 128,-1,7
 130 1000 130 1000 174 1022 c 0,8,9
 246 1058 246 1058 404 1058 c 1,10,-1
 404 1082 l 2,11,12
 404 1214 404 1214 385 1246 c 128,-1,13
 366 1278 366 1278 348 1283 c 128,-1,14
 330 1288 330 1288 311 1288 c 0,15,16
 264 1288 264 1288 232 1280 c 1,17,18
 270 1276 270 1276 293 1252 c 128,-1,19
 316 1228 316 1228 316 1197 c 128,-1,20
 316 1166 316 1166 308 1145 c 128,-1,21
 300 1124 300 1124 285 1109 c 0,22,23
 252 1076 252 1076 208 1076 c 256,24,25
 166 1076 166 1076 142 1100 c 0,26,27
 100 1142 100 1142 100 1188 c 128,-1,28
 100 1234 100 1234 127 1264 c 128,-1,29
 154 1294 154 1294 196 1315 c 0,30,31
 278 1356 278 1356 368 1356 c 128,-1,32
 458 1356 458 1356 504 1344 c 128,-1,33
 550 1332 550 1332 581 1301 c 0,34,35
 642 1240 642 1240 642 1082 c 2,36,-1
 642 846 l 2,37,38
 642 758 642 758 670 758 c 128,-1,39
 698 758 698 758 698 846 c 2,40,-1
 698 902 l 1,41,-1
 742 902 l 1,42,-1
 742 846 l 2,43,44
 742 713 742 713 657 686 c 0,45,46
 626 676 626 676 590 676 c 128,-1,47
 554 676 554 676 527 679 c 128,-1,48
 500 682 500 682 478 690 c 0,49,50
 432 707 432 707 416 758 c 1,0,1
356 768 m 0,51,52
 376 768 376 768 390 790 c 128,-1,53
 404 812 404 812 404 846 c 2,54,-1
 404 998 l 1,55,56
 346 998 346 998 328 967 c 0,57,58
 310 936 310 936 310 852 c 128,-1,59
 310 768 310 768 356 768 c 0,51,52
EndSplineSet
Validated: 1
EndChar

StartChar: logicalnot
Encoding: 172 172 106
Width: 864
GlyphClass: 2
Flags: W
LayerCount: 2
Fore
SplineSet
90 1112 m 1,0,-1
 724 1112 l 1,1,-1
 724 618 l 1,2,-1
 608 618 l 1,3,-1
 608 990 l 1,4,-1
 90 990 l 1,5,-1
 90 1112 l 1,0,-1
EndSplineSet
Validated: 1
EndChar

StartChar: registered
Encoding: 174 174 108
Width: 1646
VWidth: 1644
GlyphClass: 2
Flags: W
LayerCount: 2
Fore
SplineSet
99 765 m 128,-1,1
 40 900 40 900 40 1029 c 128,-1,2
 40 1158 40 1158 67 1254 c 128,-1,3
 94 1350 94 1350 142 1433 c 128,-1,4
 190 1516 190 1516 259 1584 c 128,-1,5
 328 1652 328 1652 411 1700 c 128,-1,6
 494 1748 494 1748 589 1775 c 128,-1,7
 684 1802 684 1802 787 1802 c 128,-1,8
 890 1802 890 1802 986 1775 c 128,-1,9
 1082 1748 1082 1748 1165 1700 c 128,-1,10
 1248 1652 1248 1652 1315 1584 c 128,-1,11
 1382 1516 1382 1516 1431 1433 c 128,-1,12
 1480 1350 1480 1350 1507 1255 c 128,-1,13
 1534 1160 1534 1160 1534 1056 c 128,-1,14
 1534 952 1534 952 1507 857 c 128,-1,15
 1480 762 1480 762 1431 680 c 128,-1,16
 1382 598 1382 598 1315 529 c 128,-1,17
 1248 460 1248 460 1165 411 c 0,18,19
 994 310 994 310 786 310 c 0,20,21
 630 310 630 310 495 368 c 128,-1,22
 360 426 360 426 259 528 c 128,-1,0
 158 630 158 630 99 765 c 128,-1,1
134 1056 m 128,-1,24
 134 966 134 966 157 882 c 128,-1,25
 180 798 180 798 223 726 c 128,-1,26
 266 654 266 654 326 594 c 128,-1,27
 386 534 386 534 458 492 c 128,-1,28
 530 450 530 450 613 427 c 128,-1,29
 696 404 696 404 786 404 c 128,-1,30
 876 404 876 404 960 427 c 128,-1,31
 1044 450 1044 450 1117 492 c 128,-1,32
 1190 534 1190 534 1249 594 c 128,-1,33
 1308 654 1308 654 1350 726 c 128,-1,34
 1392 798 1392 798 1416 882 c 128,-1,35
 1440 966 1440 966 1440 1056 c 128,-1,36
 1440 1146 1440 1146 1416 1229 c 128,-1,37
 1392 1312 1392 1312 1350 1385 c 128,-1,38
 1308 1458 1308 1458 1249 1517 c 128,-1,39
 1190 1576 1190 1576 1117 1619 c 128,-1,40
 1044 1662 1044 1662 960 1685 c 128,-1,41
 876 1708 876 1708 786 1708 c 128,-1,42
 696 1708 696 1708 613 1685 c 128,-1,43
 530 1662 530 1662 458 1619 c 128,-1,44
 386 1576 386 1576 326 1517 c 128,-1,45
 266 1458 266 1458 223 1385 c 128,-1,46
 180 1312 180 1312 157 1229 c 128,-1,23
 134 1146 134 1146 134 1056 c 128,-1,24
1250 628 m 1,47,48
 1194 598 1194 598 1113 598 c 128,-1,49
 1032 598 1032 598 989 611 c 128,-1,50
 946 624 946 624 922 652 c 128,-1,51
 898 680 898 680 887 724 c 128,-1,52
 876 768 876 768 876 832 c 128,-1,53
 876 896 876 896 871 933 c 128,-1,54
 866 970 866 970 855 992 c 0,55,56
 838 1026 838 1026 772 1026 c 1,57,-1
 772 626 l 1,58,-1
 342 626 l 1,59,-1
 342 694 l 1,60,-1
 410 694 l 1,61,-1
 410 1426 l 1,62,-1
 342 1426 l 1,63,-1
 342 1492 l 1,64,-1
 914 1492 l 2,65,66
 1074 1492 1074 1492 1155 1429 c 128,-1,67
 1236 1366 1236 1366 1236 1258 c 0,68,69
 1236 1162 1236 1162 1164 1113 c 0,70,71
 1076 1054 1076 1054 878 1050 c 1,72,73
 1159 1050 1159 1050 1214 943 c 0,74,75
 1232 908 1232 908 1232 860 c 2,76,-1
 1232 836 l 1,77,-1
 1230 802 l 2,78,79
 1230 792 1230 792 1228 782 c 1,80,-1
 1228 762 l 2,81,82
 1228 697 1228 697 1250 684 c 1,83,-1
 1250 628 l 1,47,48
772 1096 m 1,84,85
 840 1096 840 1096 856 1117 c 128,-1,86
 872 1138 872 1138 877 1170 c 128,-1,87
 882 1202 882 1202 882 1256 c 128,-1,88
 882 1310 882 1310 877 1344 c 128,-1,89
 872 1378 872 1378 860 1396 c 0,90,91
 840 1426 840 1426 772 1426 c 1,92,-1
 772 1096 l 1,84,85
EndSplineSet
Validated: 1
EndChar

StartChar: degree
Encoding: 176 176 110
Width: 698
VWidth: 1796
GlyphClass: 2
Flags: W
LayerCount: 2
Fore
SplineSet
348 962 m 256,0,1
 242 962 242 962 168 1036 c 0,2,3
 92 1112 92 1112 92 1214 c 256,4,5
 92 1316 92 1316 168 1392 c 0,6,7
 240 1464 240 1464 348 1464 c 256,8,9
 456 1464 456 1464 528 1392 c 0,10,11
 602 1318 602 1318 602 1214 c 256,12,13
 602 1110 602 1110 528 1036 c 128,-1,14
 454 962 454 962 348 962 c 256,0,1
348 1078 m 256,15,16
 404 1078 404 1078 435 1106 c 128,-1,17
 466 1134 466 1134 477 1160 c 128,-1,18
 488 1186 488 1186 488 1214 c 128,-1,19
 488 1242 488 1242 477 1267 c 128,-1,20
 466 1292 466 1292 446 1311 c 0,21,22
 403 1352 403 1352 348 1352 c 256,23,24
 261 1352 261 1352 220 1267 c 0,25,26
 208 1242 208 1242 208 1214 c 128,-1,27
 208 1186 208 1186 220 1160 c 128,-1,28
 232 1134 232 1134 250 1116 c 0,29,30
 288 1078 288 1078 348 1078 c 256,15,16
EndSplineSet
Validated: 1
EndChar

StartChar: uni00B2
Encoding: 178 178 112
Width: 782
GlyphClass: 2
Flags: W
LayerCount: 2
Fore
SplineSet
606 972 m 1,0,1
 633 1026 633 1026 636 1054 c 1,2,-1
 676 1052 l 1,3,-1
 646 720 l 1,4,-1
 106 720 l 1,5,-1
 106 786 l 1,6,7
 404 1144 404 1144 404 1360 c 0,8,9
 404 1434 404 1434 384 1454 c 0,10,11
 356 1482 356 1482 328 1482 c 128,-1,12
 300 1482 300 1482 286 1480 c 1,13,14
 352 1445 352 1445 352 1362 c 0,15,16
 352 1273 352 1273 273 1235 c 0,17,18
 250 1224 250 1224 224 1224 c 128,-1,19
 198 1224 198 1224 174 1235 c 128,-1,20
 150 1246 150 1246 132 1264 c 0,21,22
 94 1302 94 1302 94 1352 c 128,-1,23
 94 1402 94 1402 114 1434 c 128,-1,24
 134 1466 134 1466 168 1488 c 0,25,26
 239 1534 239 1534 362 1534 c 0,27,28
 559 1534 559 1534 635 1404 c 0,29,30
 662 1358 662 1358 662 1291 c 128,-1,31
 662 1224 662 1224 634 1174 c 128,-1,32
 606 1124 606 1124 560 1090 c 0,33,34
 480 1031 480 1031 326 998 c 1,35,36
 324 994 324 994 324 984 c 1,37,-1
 322 972 l 1,38,-1
 606 972 l 1,0,1
EndSplineSet
Validated: 1
EndChar

StartChar: uni00B3
Encoding: 179 179 113
Width: 762
GlyphClass: 2
Flags: W
LayerCount: 2
Fore
SplineSet
282 764 m 1,0,1
 302 760 302 760 322 760 c 128,-1,2
 342 760 342 760 360 767 c 128,-1,3
 378 774 378 774 392 793 c 128,-1,4
 406 812 406 812 413 841 c 128,-1,5
 420 870 420 870 420 914 c 128,-1,6
 420 958 420 958 410 990 c 128,-1,7
 400 1022 400 1022 380 1045 c 0,8,9
 341 1090 341 1090 278 1094 c 1,10,-1
 278 1150 l 1,11,12
 371 1163 371 1163 410 1274 c 0,13,14
 422 1308 422 1308 422 1350 c 0,15,16
 422 1482 422 1482 322 1482 c 0,17,18
 287 1482 287 1482 266 1474 c 1,19,20
 352 1445 352 1445 352 1350 c 0,21,22
 352 1294 352 1294 326 1265 c 128,-1,23
 300 1236 300 1236 277 1226 c 128,-1,24
 254 1216 254 1216 228 1216 c 128,-1,25
 202 1216 202 1216 179 1226 c 128,-1,26
 156 1236 156 1236 139 1255 c 0,27,28
 102 1296 102 1296 102 1343 c 128,-1,29
 102 1390 102 1390 121 1423 c 128,-1,30
 140 1456 140 1456 174 1481 c 0,31,32
 246 1534 246 1534 364 1534 c 0,33,34
 546 1534 546 1534 623 1420 c 0,35,36
 650 1380 650 1380 650 1326 c 0,37,38
 650 1228 650 1228 576 1176 c 128,-1,39
 502 1124 502 1124 360 1122 c 1,40,41
 512 1122 512 1122 566 1093 c 128,-1,42
 620 1064 620 1064 643 1028 c 128,-1,43
 666 992 666 992 666 934 c 256,44,45
 666 769 666 769 494 724 c 0,46,47
 440 710 440 710 376 710 c 128,-1,48
 312 710 312 710 261 721 c 128,-1,49
 210 732 210 732 173 752 c 0,50,51
 96 794 96 794 96 876 c 0,52,53
 96 965 96 965 171 1001 c 0,54,55
 194 1012 194 1012 220 1012 c 256,56,57
 271 1012 271 1012 309 972 c 0,58,59
 344 935 344 935 344 867 c 128,-1,60
 344 799 344 799 282 764 c 1,0,1
EndSplineSet
Validated: 1
EndChar

StartChar: acute
Encoding: 180 180 114
Width: 700
GlyphClass: 2
Flags: W
LayerCount: 2
Fore
SplineSet
116 1352 m 1,0,1
 124 1356 124 1356 150 1388 c 128,-1,2
 176 1420 176 1420 203 1452 c 128,-1,3
 230 1484 230 1484 260 1519 c 2,4,5
 260 1519 260 1519 305 1571.5 c 128,-1,6
 350 1624 350 1624 378 1654 c 0,7,8
 443 1723 443 1723 455 1734 c 0,9,10
 480 1754 480 1754 503 1754 c 128,-1,11
 526 1754 526 1754 543 1741 c 128,-1,12
 560 1728 560 1728 573 1709 c 0,13,14
 602 1667 602 1667 602 1621 c 0,15,16
 602 1534 602 1534 556 1496 c 0,17,18
 529 1475 529 1475 481.5 1449.5 c 128,-1,19
 434 1424 434 1424 398 1403 c 128,-1,20
 362 1382 362 1382 326 1364 c 128,-1,21
 290 1346 290 1346 257 1328 c 128,-1,22
 224 1310 224 1310 202 1300 c 0,23,24
 162 1282 162 1282 154 1274 c 1,25,-1
 116 1352 l 1,0,1
EndSplineSet
Validated: 1
EndChar

StartChar: paragraph
Encoding: 182 182 115
Width: 988
GlyphClass: 2
Flags: W
LayerCount: 2
Fore
SplineSet
746 1418 m 1,0,-1
 932 1418 l 1,1,-1
 932 1340 l 1,2,-1
 836 1340 l 1,3,-1
 836 -222 l 1,4,-1
 932 -222 l 1,5,-1
 932 -300 l 1,6,-1
 746 -300 l 1,7,-1
 746 1418 l 1,0,-1
570 -222 m 1,8,-1
 570 438 l 1,9,-1
 444 438 l 2,10,11
 272 438 272 438 170 574 c 0,12,13
 72 705 72 705 72 924 c 0,14,15
 72 1126 72 1126 170 1267 c 0,16,17
 275 1418 275 1418 444 1418 c 2,18,-1
 666 1418 l 1,19,-1
 666 -300 l 1,20,-1
 478 -300 l 1,21,-1
 478 -222 l 1,22,-1
 570 -222 l 1,8,-1
EndSplineSet
EndChar

StartChar: cedilla
Encoding: 184 184 117
Width: 966
GlyphClass: 2
Flags: W
LayerCount: 2
Fore
SplineSet
534 -266 m 128,-1,1
 510 -244 510 -244 477 -244 c 128,-1,2
 444 -244 444 -244 424 -254 c 1,3,-1
 372 -254 l 1,4,-1
 372 -40 l 5,5,-1
 446 -40 l 5,6,-1
 446 -188 l 1,7,8
 533 -148 533 -148 607.5 -148 c 128,-1,9
 682 -148 682 -148 719 -160 c 128,-1,10
 756 -172 756 -172 784 -196 c 0,11,12
 844 -247 844 -247 844 -329.5 c 128,-1,13
 844 -412 844 -412 774 -465 c 128,-1,14
 704 -518 704 -518 558 -518 c 0,15,16
 360 -518 360 -518 193 -444 c 0,17,18
 148 -424 148 -424 116 -402 c 1,19,-1
 142 -348 l 1,20,21
 171 -366 171 -366 237 -386 c 0,22,23
 357 -422 357 -422 430 -422 c 0,24,25
 558 -422 558 -422 558 -328 c 0,26,0
 558 -288 558 -288 534 -266 c 128,-1,1
EndSplineSet
Validated: 1
EndChar

StartChar: uni00B9
Encoding: 185 185 118
Width: 590
GlyphClass: 2
Flags: W
LayerCount: 2
Fore
SplineSet
92 778 m 5,0,-1
 182 778 l 5,1,-1
 182 1360 l 5,2,-1
 92 1360 l 5,3,-1
 92 1424 l 5,4,5
 209 1424 209 1424 313 1481 c 4,6,7
 344 1498 344 1498 368 1518 c 5,8,-1
 426 1518 l 5,9,-1
 426 778 l 5,10,-1
 512 778 l 5,11,-1
 512 720 l 5,12,-1
 92 720 l 5,13,-1
 92 778 l 5,0,-1
EndSplineSet
Validated: 1
EndChar

StartChar: ordmasculine
Encoding: 186 186 119
Width: 780
GlyphClass: 2
Flags: W
LayerCount: 2
Fore
SplineSet
694 1145 m 0,0,1
 694 707 694 707 388 707 c 0,2,3
 232 707 232 707 157 817 c 128,-1,4
 82 927 82 927 82 1095 c 0,5,6
 82 1365 82 1365 158 1451 c 132,-1,7
 234 1537 234 1537 388 1537 c 132,-1,8
 542 1537 542 1537 618 1450 c 132,-1,9
 694 1363 694 1363 694 1145 c 0,0,1
388 751 m 256,10,11
 421 751 421 751 432 810 c 0,12,13
 444 876 444 876 444 1095 c 256,14,15
 444 1366 444 1366 435 1415.5 c 132,-1,16
 426 1465 426 1465 415 1477 c 132,-1,17
 404 1489 404 1489 388 1489 c 260,18,19
 354 1489 354 1489 346 1444 c 4,20,21
 332 1366 332 1366 332 1095 c 256,22,23
 332 876 332 876 341 826.5 c 128,-1,24
 350 777 350 777 361 764 c 128,-1,25
 372 751 372 751 388 751 c 256,10,11
EndSplineSet
Validated: 1
EndChar

StartChar: onequarter
Encoding: 188 188 121
Width: 1368
GlyphClass: 2
Flags: W
LayerCount: 2
Fore
SplineSet
78 680 m 1,0,-1
 166 680 l 1,1,-1
 166 1260 l 1,2,-1
 78 1260 l 1,3,-1
 78 1324 l 1,4,5
 191 1324 191 1324 298 1381 c 0,6,7
 330 1398 330 1398 350 1418 c 1,8,-1
 410 1418 l 1,9,-1
 410 680 l 1,10,-1
 498 680 l 1,11,-1
 498 620 l 1,12,-1
 78 620 l 1,13,-1
 78 680 l 1,0,-1
1180 1412 m 1,14,-1
 1234 1332 l 1,15,-1
 306 22 l 1,16,-1
 250 100 l 1,17,-1
 1180 1412 l 1,14,-1
732 250 m 1,18,-1
 1052 796 l 1,19,-1
 1220 796 l 1,20,-1
 1220 250 l 1,21,-1
 1304 250 l 1,22,-1
 1304 196 l 1,23,-1
 1220 196 l 1,24,-1
 1220 60 l 1,25,-1
 1288 60 l 1,26,-1
 1288 0 l 1,27,-1
 910 0 l 1,28,-1
 910 60 l 1,29,-1
 978 60 l 1,30,-1
 978 196 l 1,31,-1
 732 196 l 1,32,-1
 732 250 l 1,18,-1
978 250 m 1,33,-1
 978 550 l 1,34,-1
 804 250 l 1,35,-1
 978 250 l 1,33,-1
EndSplineSet
Validated: 1
EndChar

StartChar: onehalf
Encoding: 189 189 122
Width: 1514
GlyphClass: 2
Flags: W
LayerCount: 2
Fore
SplineSet
78 680 m 1,0,-1
 166 680 l 1,1,-1
 166 1260 l 1,2,-1
 78 1260 l 1,3,-1
 78 1324 l 1,4,5
 191 1324 191 1324 298 1381 c 0,6,7
 330 1398 330 1398 350 1418 c 1,8,-1
 410 1418 l 1,9,-1
 410 680 l 1,10,-1
 498 680 l 1,11,-1
 498 620 l 1,12,-1
 78 620 l 1,13,-1
 78 680 l 1,0,-1
1170 1412 m 1,14,-1
 1224 1332 l 1,15,-1
 294 22 l 1,16,-1
 240 100 l 1,17,-1
 1170 1412 l 1,14,-1
1368 252 m 1,18,19
 1388 293 1388 293 1398 336 c 1,20,-1
 1436 334 l 1,21,-1
 1406 0 l 1,22,-1
 868 0 l 1,23,-1
 868 68 l 1,24,25
 1164 423 1164 423 1164 638 c 0,26,27
 1164 764 1164 764 1076 764 c 0,28,29
 1062 764 1062 764 1046 760 c 1,30,31
 1112 725 1112 725 1112 642 c 0,32,33
 1112 583 1112 583 1084 553.5 c 128,-1,34
 1056 524 1056 524 1033 514 c 128,-1,35
 1010 504 1010 504 984 504 c 128,-1,36
 958 504 958 504 935 514 c 128,-1,37
 912 524 912 524 894 544 c 0,38,39
 856 586 856 586 856 634 c 128,-1,40
 856 682 856 682 875 715 c 128,-1,41
 894 748 894 748 929 769 c 0,42,43
 1004 814 1004 814 1122 814 c 0,44,45
 1239 814 1239 814 1325 758 c 0,46,47
 1422 695 1422 695 1422 572 c 0,48,49
 1422 449 1422 449 1320 371 c 0,50,51
 1239 310 1239 310 1086 278 c 1,52,53
 1084 274 1084 274 1084 264 c 1,54,-1
 1082 252 l 1,55,-1
 1368 252 l 1,18,19
EndSplineSet
Validated: 1
EndChar

StartChar: threequarters
Encoding: 190 190 123
Width: 1442
GlyphClass: 2
Flags: W
LayerCount: 2
Fore
SplineSet
268 664 m 1,0,1
 288 660 288 660 304 660 c 0,2,3
 406 660 406 660 406 814 c 0,4,5
 406 936 406 936 320 979 c 0,6,7
 294 992 294 992 264 994 c 1,8,-1
 264 1050 l 1,9,10
 356 1063 356 1063 394 1173 c 0,11,12
 406 1208 406 1208 406 1250 c 0,13,14
 406 1382 406 1382 306 1382 c 0,15,16
 271 1382 271 1382 252 1374 c 1,17,18
 338 1345 338 1345 338 1250 c 0,19,20
 338 1196 338 1196 311 1166 c 0,21,22
 266 1116 266 1116 212 1116 c 0,23,24
 133 1116 133 1116 98 1197 c 0,25,26
 88 1220 88 1220 88 1255 c 128,-1,27
 88 1290 88 1290 106 1324 c 128,-1,28
 124 1358 124 1358 159 1382 c 0,29,30
 235 1434 235 1434 350 1434 c 0,31,32
 461 1434 461 1434 541 1385 c 0,33,34
 634 1328 634 1328 634 1224 c 0,35,36
 634 1024 634 1024 346 1024 c 1,37,38
 495 1024 495 1024 549.5 994 c 128,-1,39
 604 964 604 964 628 928 c 128,-1,40
 652 892 652 892 652 834 c 256,41,42
 652 722 652 722 571 664 c 0,43,44
 496 610 496 610 362 610 c 0,45,46
 159 610 159 610 101 705 c 0,47,48
 82 736 82 736 82 770 c 128,-1,49
 82 804 82 804 91 829 c 128,-1,50
 100 854 100 854 117 872 c 0,51,52
 155 912 155 912 204 912 c 256,53,54
 254 912 254 912 294 872 c 0,55,56
 332 834 332 834 332 767.5 c 128,-1,57
 332 701 332 701 268 664 c 1,0,1
1250 1412 m 1,58,-1
 1304 1332 l 1,59,-1
 374 22 l 1,60,-1
 318 100 l 1,61,-1
 1250 1412 l 1,58,-1
808 250 m 1,62,-1
 1128 796 l 1,63,-1
 1298 796 l 1,64,-1
 1298 250 l 1,65,-1
 1380 250 l 1,66,-1
 1380 196 l 1,67,-1
 1298 196 l 1,68,-1
 1298 60 l 1,69,-1
 1366 60 l 1,70,-1
 1366 0 l 1,71,-1
 986 0 l 1,72,-1
 986 60 l 1,73,-1
 1054 60 l 1,74,-1
 1054 196 l 1,75,-1
 808 196 l 1,76,-1
 808 250 l 1,62,-1
1054 250 m 1,77,-1
 1054 550 l 1,78,-1
 882 250 l 1,79,-1
 1054 250 l 1,77,-1
EndSplineSet
Validated: 1
EndChar

StartChar: AE
Encoding: 198 198 131
Width: 1818
GlyphClass: 2
Flags: W
LayerCount: 2
Fore
SplineSet
266 124 m 0,0,1
 266 80 266 80 398 80 c 1,2,-1
 398 0 l 1,3,-1
 66 0 l 1,4,-1
 66 80 l 1,5,6
 124 80 124 80 153 91 c 128,-1,7
 182 102 182 102 192 130 c 2,8,-1
 682 1418 l 1,9,-1
 1658 1418 l 1,10,-1
 1658 930 l 1,11,-1
 1610 930 l 1,12,-1
 1414 1340 l 1,13,-1
 1174 1340 l 1,14,-1
 1174 744 l 1,15,-1
 1280 744 l 1,16,-1
 1374 1074 l 1,17,-1
 1420 1074 l 1,18,-1
 1420 334 l 1,19,-1
 1374 334 l 1,20,-1
 1280 666 l 1,21,-1
 1174 666 l 1,22,-1
 1174 80 l 1,23,-1
 1438 80 l 1,24,-1
 1644 534 l 1,25,-1
 1694 534 l 1,26,-1
 1694 0 l 1,27,-1
 546 0 l 1,28,-1
 546 80 l 1,29,-1
 682 80 l 1,30,-1
 682 424 l 1,31,-1
 374 424 l 1,32,-1
 268 134 l 1,33,34
 268 128 268 128 266 124 c 0,0,1
682 504 m 1,35,-1
 682 1256 l 1,36,-1
 406 504 l 1,37,-1
 682 504 l 1,35,-1
EndSplineSet
Validated: 1
EndChar

StartChar: multiply
Encoding: 215 215 148
Width: 1024
GlyphClass: 2
Flags: W
LayerCount: 2
Fore
SplineSet
120 244 m 1,0,-1
 428 552 l 1,1,-1
 120 860 l 1,2,-1
 208 948 l 1,3,4
 208 946 208 946 514 638 c 1,5,-1
 824 948 l 1,6,-1
 912 860 l 1,7,-1
 602 552 l 1,8,-1
 912 244 l 1,9,-1
 824 158 l 1,10,-1
 514 464 l 1,11,-1
 206 158 l 1,12,-1
 120 244 l 1,0,-1
EndSplineSet
Validated: 1
EndChar

StartChar: Thorn
Encoding: 222 222 155
Width: 1440
GlyphClass: 2
Flags: W
LayerCount: 2
Fore
SplineSet
1374 708 m 256,0,1
 1374 200 1374 200 884 200 c 2,2,-1
 706 200 l 1,3,-1
 706 80 l 1,4,-1
 830 80 l 1,5,-1
 830 0 l 1,6,-1
 92 0 l 1,7,-1
 92 80 l 1,8,-1
 216 80 l 1,9,-1
 216 1340 l 1,10,-1
 92 1340 l 1,11,-1
 92 1418 l 1,12,-1
 830 1418 l 1,13,-1
 830 1340 l 1,14,-1
 706 1340 l 1,15,-1
 706 1216 l 1,16,-1
 884 1216 l 2,17,18
 1374 1216 1374 1216 1374 708 c 256,0,1
706 278 m 1,19,20
 894 278 894 278 894 708 c 256,21,22
 894 1025 894 1025 793 1109 c 0,23,24
 758 1138 758 1138 706 1138 c 1,25,-1
 706 278 l 1,19,20
EndSplineSet
Validated: 1
EndChar

StartChar: germandbls
Encoding: 223 223 156
Width: 1536
GlyphClass: 2
Flags: W
LayerCount: 2
Fore
SplineSet
722 1550 m 0,0,1
 1202 1550 1202 1550 1202 1256 c 0,2,3
 1202 1147 1202 1147 1113 1076 c 0,4,5
 1088 1056 1088 1056 1065 1040 c 128,-1,6
 1042 1024 1042 1024 1023 1010 c 128,-1,7
 1004 996 1004 996 989 979 c 128,-1,8
 974 962 974 962 965 944 c 128,-1,9
 956 926 956 926 956 902 c 128,-1,10
 956 878 956 878 968 858 c 128,-1,11
 980 838 980 838 1001 822 c 0,12,13
 1029 800 1029 800 1088.5 774 c 128,-1,14
 1148 748 1148 748 1191 728 c 128,-1,15
 1234 708 1234 708 1276 683 c 128,-1,16
 1318 658 1318 658 1355 625 c 128,-1,17
 1392 592 1392 592 1421 548 c 0,18,19
 1480 458 1480 458 1480 318 c 0,20,21
 1480 66 1480 66 1294 -12 c 0,22,23
 1232 -38 1232 -38 1169 -38 c 128,-1,24
 1106 -38 1106 -38 1063 -26 c 128,-1,25
 1020 -14 1020 -14 979 8 c 0,26,27
 886 58 886 58 834 140 c 1,28,-1
 782 -22 l 1,29,-1
 722 -22 l 1,30,-1
 722 346 l 1,31,-1
 774 346 l 1,32,33
 844 210 844 210 935 126 c 0,34,35
 1002 64 1002 64 1068 64 c 0,36,37
 1104 64 1104 64 1124 85 c 128,-1,38
 1144 106 1144 106 1144 134 c 128,-1,39
 1144 162 1144 162 1134 182 c 128,-1,40
 1124 202 1124 202 1107 223 c 128,-1,41
 1090 244 1090 244 1066 264 c 128,-1,42
 1042 284 1042 284 1007 314 c 128,-1,43
 972 344 972 344 926 385 c 128,-1,44
 880 426 880 426 841 476 c 0,45,46
 754 588 754 588 754 724 c 0,47,48
 754 843 754 843 800 945 c 0,49,50
 814 976 814 976 828 1006 c 256,51,52
 881 1121 881 1121 892.5 1175.5 c 132,-1,53
 904 1230 904 1230 904 1278 c 132,-1,54
 904 1326 904 1326 891 1365 c 132,-1,55
 878 1404 878 1404 858 1430 c 4,56,57
 820 1480 820 1480 765 1480 c 132,-1,58
 710 1480 710 1480 680 1461 c 132,-1,59
 650 1442 650 1442 632 1411 c 4,60,61
 600 1356 600 1356 600 1289 c 128,-1,62
 600 1222 600 1222 605 1189 c 6,63,64
 604 1190 604 1190 612 1140 c 4,65,66
 630 1024 630 1024 630 958 c 2,67,-1
 630 0 l 1,68,-1
 82 0 l 1,69,-1
 82 72 l 1,70,-1
 206 72 l 1,71,-1
 206 946 l 1,72,-1
 82 946 l 1,73,-1
 82 1018 l 1,74,-1
 206 1018 l 1,75,-1
 206 1062 l 2,76,77
 206 1331 206 1331 338 1445 c 0,78,79
 460 1550 460 1550 722 1550 c 0,0,1
EndSplineSet
Validated: 1
EndChar

StartChar: ae
Encoding: 230 230 163
Width: 1740
GlyphClass: 2
Flags: W
LayerCount: 2
Fore
SplineSet
940 1088 m 1,0,1
 1049 1150 1049 1150 1184 1150 c 2,2,3
 1184 1150 1184 1150 1231 1150 c 128,-1,4
 1278 1150 1278 1150 1347 1127 c 128,-1,5
 1416 1104 1416 1104 1470 1062 c 128,-1,6
 1524 1020 1524 1020 1562 963 c 128,-1,7
 1600 906 1600 906 1625 840 c 0,8,9
 1676 705 1676 705 1676 556 c 1,10,-1
 1106 556 l 1,11,12
 1106 256 1106 256 1145 156 c 0,13,14
 1166 102 1166 102 1199 82 c 128,-1,15
 1232 62 1232 62 1286 62 c 128,-1,16
 1340 62 1340 62 1392 83 c 128,-1,17
 1444 104 1444 104 1486 142 c 0,18,19
 1572 219 1572 219 1592 358 c 1,20,-1
 1658 358 l 1,21,22
 1650 176 1650 176 1534 68 c 0,23,24
 1420 -38 1420 -38 1240 -38 c 0,25,26
 929 -38 929 -38 807 91 c 0,27,28
 770 130 770 130 748 176 c 1,29,30
 683 -4 683 -4 449 -34 c 0,31,32
 418 -38 418 -38 365 -38 c 128,-1,33
 312 -38 312 -38 254 -14 c 128,-1,34
 196 10 196 10 159 51 c 0,35,36
 90 127 90 127 90 262 c 0,37,38
 90 473 90 473 259 550 c 0,39,40
 360 596 360 596 474 602 c 128,-1,41
 588 608 588 608 668 608 c 1,42,-1
 668 666 l 2,43,44
 668 908 668 908 618 987 c 0,45,46
 592 1028 592 1028 555 1041 c 128,-1,47
 518 1054 518 1054 480 1054 c 0,48,49
 422 1054 422 1054 362 1034 c 1,50,51
 427 1026 427 1026 470 966 c 0,52,53
 512 907 512 907 512 851.5 c 128,-1,54
 512 796 512 796 497 759 c 128,-1,55
 482 722 482 722 455 695 c 0,56,57
 396 636 396 636 320 636 c 256,58,59
 240 636 240 636 185 695 c 0,60,61
 130 754 130 754 130 825 c 128,-1,62
 130 896 130 896 151 941 c 128,-1,63
 172 986 172 986 210 1020 c 128,-1,64
 248 1054 248 1054 298 1079 c 128,-1,65
 348 1104 348 1104 406 1120 c 0,66,67
 515 1150 515 1150 678.5 1150 c 128,-1,68
 842 1150 842 1150 940 1088 c 1,0,1
1304 658 m 1,69,70
 1300 906 1300 906 1283 977 c 128,-1,71
 1266 1048 1266 1048 1248 1069 c 128,-1,72
 1230 1090 1230 1090 1204 1090 c 256,73,74
 1130 1090 1130 1090 1114 865 c 0,75,76
 1108 782 1108 782 1106 658 c 1,77,-1
 1304 658 l 1,69,70
584 108 m 0,78,79
 620 108 620 108 644 145 c 128,-1,80
 668 182 668 182 668 246 c 2,81,-1
 668 516 l 1,82,83
 565 516 565 516 532 463 c 0,84,85
 500 411 500 411 500 259.5 c 128,-1,86
 500 108 500 108 584 108 c 0,78,79
EndSplineSet
Validated: 1
EndChar

StartChar: eth
Encoding: 240 240 173
Width: 1168
GlyphClass: 2
Flags: W
LayerCount: 2
Fore
SplineSet
288 1666 m 1,0,1
 440 1651 440 1651 584 1590 c 1,2,-1
 754 1830 l 1,3,-1
 816 1742 l 1,4,-1
 674 1540 l 1,5,6
 983 1344 983 1344 1067 938 c 0,7,8
 1094 808 1094 808 1094 657 c 128,-1,9
 1094 506 1094 506 1069 375 c 128,-1,10
 1044 244 1044 244 984 153 c 0,11,12
 858 -38 858 -38 568 -38 c 0,13,14
 236 -38 236 -38 125 257 c 0,15,16
 82 371 82 371 82 497.5 c 128,-1,17
 82 624 82 624 109 718 c 128,-1,18
 136 812 136 812 187 877 c 0,19,20
 293 1012 293 1012 466 1012 c 0,21,22
 559 1012 559 1012 662 970 c 1,23,24
 632 1213 632 1213 548 1366 c 1,25,-1
 420 1182 l 1,26,-1
 356 1270 l 1,27,-1
 488 1454 l 1,28,29
 391 1565 391 1565 270 1606 c 1,30,-1
 288 1666 l 1,0,1
475 640 m 128,-1,32
 466 560 466 560 466 442 c 128,-1,33
 466 324 466 324 475 244 c 128,-1,34
 484 164 484 164 500 119 c 0,35,36
 528 40 528 40 582 40 c 0,37,38
 666 40 666 40 678 312 c 0,39,40
 682 402 682 402 682 505 c 0,41,42
 682 725 682 725 672 862 c 1,43,44
 642 872 642 872 609 872 c 128,-1,45
 576 872 576 872 548 848 c 128,-1,46
 520 824 520 824 502 772 c 128,-1,31
 484 720 484 720 475 640 c 128,-1,32
EndSplineSet
Validated: 1
EndChar

StartChar: thorn
Encoding: 254 254 187
Width: 1308
GlyphClass: 2
Flags: W
LayerCount: 2
Fore
SplineSet
779 -38 m 0,0,1
 650 -38 650 -38 570 60 c 1,2,-1
 570 -328 l 1,3,-1
 694 -328 l 1,4,-1
 694 -400 l 1,5,-1
 24 -400 l 1,6,-1
 24 -328 l 1,7,-1
 148 -328 l 1,8,-1
 148 1348 l 5,9,-1
 22 1348 l 5,10,-1
 22 1420 l 5,11,-1
 570 1420 l 5,12,-1
 570 1032 l 1,13,14
 629 1150 629 1150 792 1150 c 0,15,16
 1010 1150 1010 1150 1132 972 c 0,17,18
 1242 811 1242 811 1242 556 c 256,19,20
 1242 301 1242 301 1132 140 c 0,21,22
 1010 -38 1010 -38 779 -38 c 0,0,1
684 1036 m 0,23,24
 570 1036 570 1036 570 750 c 2,25,-1
 570 314 l 2,26,27
 570 158 570 158 638 93 c 0,28,29
 662 70 662 70 693 70 c 128,-1,30
 724 70 724 70 746 95 c 128,-1,31
 768 120 768 120 780 178 c 0,32,33
 804 294 804 294 804 494 c 128,-1,34
 804 694 804 694 798 785 c 128,-1,35
 792 876 792 876 779 933 c 0,36,37
 756 1036 756 1036 684 1036 c 0,23,24
EndSplineSet
Validated: 1
EndChar

StartChar: dotlessi
Encoding: 305 305 192
Width: 840
GlyphClass: 2
Flags: W
LayerCount: 2
Fore
SplineSet
90 72 m 1,0,-1
 212 72 l 1,1,-1
 212 1040 l 1,2,-1
 90 1040 l 1,3,-1
 90 1112 l 1,4,-1
 636 1112 l 1,5,-1
 636 72 l 1,6,-1
 762 72 l 1,7,-1
 762 0 l 1,8,-1
 90 0 l 1,9,-1
 90 72 l 1,0,-1
EndSplineSet
Validated: 1
EndChar

StartChar: kgreenlandic
Encoding: 312 312 197
Width: 1366
GlyphClass: 2
Flags: W
LayerCount: 2
Fore
SplineSet
712 542 m 1,0,1
 712 542 712 542 638 434 c 1,2,-1
 638 72 l 1,3,-1
 762 72 l 1,4,-1
 762 0 l 1,5,-1
 90 0 l 1,6,-1
 90 72 l 1,7,-1
 216 72 l 1,8,-1
 216 1040 l 1,9,-1
 90 1040 l 1,10,-1
 90 1112 l 1,11,-1
 638 1112 l 1,12,-1
 638 586 l 1,13,14
 658 612 658 612 685 649 c 128,-1,15
 712 686 712 686 743 728 c 2,16,17
 743 728 743 728 789.5 791 c 128,-1,18
 836 854 836 854 860 889 c 0,19,20
 924 982 924 982 924 987 c 2,21,22
 924 987 924 987 924 994 c 0,23,24
 924 1040 924 1040 792 1040 c 1,25,-1
 792 1112 l 1,26,-1
 1224 1112 l 1,27,-1
 1224 1040 l 1,28,29
 1119 1040 1119 1040 1080.5 1020 c 128,-1,30
 1042 1000 1042 1000 1025 978 c 128,-1,31
 1008 956 1008 956 981 918 c 128,-1,32
 954 880 954 880 921 835 c 128,-1,33
 888 790 888 790 853 741 c 128,-1,34
 818 692 818 692 782 644 c 1,35,36
 822 648 822 648 884 648 c 128,-1,37
 946 648 946 648 1004 631 c 128,-1,38
 1062 614 1062 614 1100 576 c 0,39,40
 1174 502 1174 502 1174 318 c 2,41,42
 1174 318 1174 318 1174 242 c 257,43,44
 1174 242 1174 242 1173 218 c 128,-1,45
 1172 194 1172 194 1172 164 c 0,46,47
 1172 98 1172 98 1200 98 c 0,48,49
 1242 98 1242 98 1242 302 c 1,50,-1
 1302 302 l 1,51,-1
 1302 268 l 2,52,53
 1302 78 1302 78 1237 17 c 0,54,55
 1179 -38 1179 -38 1022 -38 c 0,56,57
 861 -38 861 -38 803 46 c 0,58,59
 754 117 754 117 754 294 c 0,60,61
 754 394 754 394 746 456 c 128,-1,62
 738 518 738 518 712 542 c 1,0,1
EndSplineSet
Validated: 1
EndChar

StartChar: OE
Encoding: 338 338 203
Width: 1894
GlyphClass: 2
Flags: W
LayerCount: 2
Fore
SplineSet
86 708 m 256,0,1
 86 1206 86 1206 415 1363 c 0,2,3
 530 1418 530 1418 694 1418 c 2,4,-1
 1734 1418 l 1,5,-1
 1734 930 l 1,6,-1
 1686 930 l 1,7,-1
 1488 1340 l 1,8,-1
 1250 1340 l 1,9,-1
 1250 744 l 1,10,-1
 1356 744 l 1,11,-1
 1450 1074 l 1,12,-1
 1496 1074 l 1,13,-1
 1496 334 l 1,14,-1
 1450 334 l 1,15,-1
 1356 666 l 1,16,-1
 1250 666 l 1,17,-1
 1250 80 l 1,18,-1
 1514 80 l 1,19,-1
 1720 534 l 1,20,-1
 1768 534 l 1,21,-1
 1768 0 l 1,22,-1
 694 0 l 2,23,24
 384 0 384 0 227 206 c 0,25,26
 86 391 86 391 86 708 c 256,0,1
674 70 m 256,27,28
 752 70 752 70 775 190 c 0,29,30
 800 318 800 318 800 708 c 256,31,32
 800 1100 800 1100 775 1228 c 0,33,34
 758 1317 758 1317 717 1338 c 0,35,36
 698 1348 698 1348 674 1348 c 256,37,38
 620 1348 620 1348 597 1301 c 0,39,40
 546 1195 546 1195 546 708 c 256,41,42
 546 223 546 223 597 117 c 0,43,44
 620 70 620 70 674 70 c 256,27,28
EndSplineSet
Validated: 1
EndChar

StartChar: oe
Encoding: 339 339 204
Width: 1758
GlyphClass: 2
Flags: W
LayerCount: 2
Fore
SplineSet
924 98 m 1,0,1
 822 -38 822 -38 624 -38 c 0,2,3
 363 -38 363 -38 222 131 c 0,4,5
 88 291 88 291 88 556 c 256,6,7
 88 823 88 823 222 983 c 0,8,9
 362 1150 362 1150 624 1150 c 0,10,11
 811 1150 811 1150 916 1024 c 1,12,13
 1029 1150 1029 1150 1208 1150 c 0,14,15
 1576 1150 1576 1150 1664 801 c 0,16,17
 1692 690 1692 690 1692 556 c 1,18,-1
 1120 556 l 1,19,20
 1120 261 1120 261 1161 156 c 0,21,22
 1182 102 1182 102 1215 82 c 128,-1,23
 1248 62 1248 62 1301 62 c 128,-1,24
 1354 62 1354 62 1407 83 c 128,-1,25
 1460 104 1460 104 1501 142 c 0,26,27
 1588 223 1588 223 1608 358 c 1,28,-1
 1676 358 l 1,29,30
 1668 177 1668 177 1549 68 c 0,31,32
 1433 -38 1433 -38 1256 -38 c 0,33,34
 1042 -38 1042 -38 924 98 c 1,0,1
1320 658 m 1,35,36
 1316 906 1316 906 1299 977 c 128,-1,37
 1282 1048 1282 1048 1264 1069 c 128,-1,38
 1246 1090 1246 1090 1220 1090 c 256,39,40
 1170 1090 1170 1090 1148 998 c 0,41,42
 1122 890 1122 890 1122 658 c 1,43,-1
 1320 658 l 1,35,36
578 49 m 128,-1,45
 596 24 596 24 623 24 c 128,-1,46
 650 24 650 24 670 49 c 128,-1,47
 690 74 690 74 702 135 c 0,48,49
 724 247 724 247 724 479.5 c 128,-1,50
 724 712 724 712 719 815 c 128,-1,51
 714 918 714 918 702 978 c 128,-1,52
 690 1038 690 1038 671 1064 c 128,-1,53
 652 1090 652 1090 624 1090 c 128,-1,54
 596 1090 596 1090 578 1064 c 128,-1,55
 560 1038 560 1038 547 978 c 128,-1,56
 534 918 534 918 529 815 c 128,-1,57
 524 712 524 712 524 556 c 128,-1,58
 524 400 524 400 529 298 c 128,-1,59
 534 196 534 196 547 135 c 128,-1,44
 560 74 560 74 578 49 c 128,-1,45
EndSplineSet
Validated: 1
EndChar

StartChar: circumflex
Encoding: 710 710 210
Width: 922
GlyphClass: 2
Flags: W
LayerCount: 2
Fore
SplineSet
116 1330 m 1,0,-1
 462 1766 l 1,1,-1
 808 1330 l 1,2,-1
 774 1264 l 1,3,-1
 462 1460 l 1,4,-1
 150 1264 l 1,5,-1
 116 1330 l 1,0,-1
EndSplineSet
Validated: 1
EndChar

StartChar: caron
Encoding: 711 711 211
Width: 860
GlyphClass: 2
Flags: W
LayerCount: 2
Fore
SplineSet
86 1660 m 1,0,-1
 120 1726 l 1,1,-1
 432 1528 l 1,2,-1
 744 1726 l 1,3,-1
 778 1660 l 1,4,-1
 432 1222 l 1,5,-1
 86 1660 l 1,0,-1
EndSplineSet
Validated: 1
EndChar

StartChar: endash
Encoding: 8211 8211 214
Width: 1258
GlyphClass: 2
Flags: W
LayerCount: 2
Fore
SplineSet
124 550 m 1,0,-1
 1094 550 l 1,1,-1
 1094 428 l 5,2,-1
 124 428 l 5,3,-1
 124 550 l 1,0,-1
EndSplineSet
Validated: 1
EndChar

StartChar: emdash
Encoding: 8212 8212 215
Width: 1704
GlyphClass: 2
Flags: W
LayerCount: 2
Fore
SplineSet
124 550 m 1,0,-1
 1580 550 l 1,1,-1
 1580 428 l 5,2,-1
 124 428 l 5,3,-1
 124 550 l 1,0,-1
EndSplineSet
Validated: 1
EndChar

StartChar: bullet
Encoding: 8226 8226 222
Width: 724
VWidth: 1592
GlyphClass: 2
Flags: W
LayerCount: 2
Fore
SplineSet
364 224 m 260,0,1
 250 224 250 224 173 301 c 4,2,3
 92 382 92 382 92 490 c 4,4,5
 92 601 92 601 173 680 c 4,6,7
 253 758 253 758 364 758 c 260,8,9
 477 758 477 758 557 680 c 4,10,11
 636 603 636 603 636 490 c 4,12,13
 636 380 636 380 557 301 c 4,14,15
 480 224 480 224 364 224 c 260,0,1
EndSplineSet
Validated: 1
EndChar

StartChar: guilsinglleft
Encoding: 8249 8249 223
Width: 764
GlyphClass: 2
Flags: W
LayerCount: 2
Fore
SplineSet
648 1024 m 5,0,-1
 680 984 l 5,1,-1
 368 492 l 5,2,-1
 680 0 l 5,3,-1
 648 -44 l 5,4,-1
 68 492 l 5,5,-1
 648 1024 l 5,0,-1
EndSplineSet
Validated: 1
EndChar

StartChar: guilsinglright
Encoding: 8250 8250 224
Width: 764
GlyphClass: 2
Flags: W
LayerCount: 2
Fore
SplineSet
98 1024 m 5,0,-1
 678 492 l 5,1,-1
 98 -44 l 5,2,-1
 66 0 l 5,3,-1
 378 492 l 5,4,-1
 66 984 l 5,5,-1
 98 1024 l 5,0,-1
EndSplineSet
Validated: 1
EndChar

StartChar: Euro
Encoding: 8364 8364 225
Width: 1334
GlyphClass: 2
Flags: W
LayerCount: 2
Fore
SplineSet
650 625 m 1,0,1
 650 625 650 625 928 625 c 1,2,-1
 888 523 l 1,3,-1
 660 523 l 1,4,5
 660 256 660 256 729 167 c 0,6,7
 766 119 766 119 826 102.5 c 128,-1,8
 886 86 886 86 930 86 c 0,9,10
 1032 86 1032 86 1113 141 c 128,-1,11
 1194 196 1194 196 1242 261 c 9,12,13
 1242 261 1242 261 1255 157 c 1,14,15
 1194 66 1194 66 1082 14 c 128,-1,16
 970 -38 970 -38 755.5 -38 c 128,-1,17
 541 -38 541 -38 388 102 c 128,-1,18
 235 242 235 242 186 523 c 1,19,20
 186 523 186 523 38 523 c 1,21,-1
 78 625 l 1,22,-1
 170 625 l 1,23,24
 170 625 170 625 170 753 c 1,25,-1
 38 753 l 1,26,-1
 78 857 l 1,27,-1
 176 857 l 1,28,29
 205 1103 205 1103 354 1275 c 0,30,31
 428 1360 428 1360 547 1407 c 128,-1,32
 666 1454 666 1454 802 1454 c 0,33,34
 1104 1454 1104 1454 1257 1251 c 9,35,36
 1257 1251 1257 1251 1212 1176 c 1,37,38
 1155 1263 1155 1263 1023 1314 c 0,39,40
 966 1336 966 1336 893 1336 c 128,-1,41
 820 1336 820 1336 794 1314 c 0,42,43
 768 1292 768 1292 734 1257 c 0,44,45
 650 1172 650 1172 650 857 c 1,46,47
 650 857 650 857 1008 857 c 1,48,-1
 968 753 l 1,49,-1
 650 753 l 1,50,51
 650 753 650 753 650 625 c 1,0,1
EndSplineSet
Validated: 1
EndChar

StartChar: dotlessj
Encoding: 567 567 231
Width: 872
Flags: W
LayerCount: 2
Fore
SplineSet
224 -344 m 5,0,1
 268 -366 268 -366 303 -366 c 132,-1,2
 338 -366 338 -366 360 -350 c 132,-1,3
 382 -334 382 -334 396 -306 c 4,4,5
 420 -258 420 -258 420 -196 c 132,-1,6
 420 -134 420 -134 412 -101 c 132,-1,7
 404 -68 404 -68 392 -37 c 132,-1,8
 380 -6 380 -6 365 20 c 132,-1,9
 350 46 350 46 337 70 c 4,10,11
 304 131 304 131 304 154 c 6,12,-1
 304 1040 l 5,13,-1
 180 1040 l 5,14,-1
 180 1112 l 5,15,-1
 724 1112 l 5,16,-1
 724 16 l 6,17,18
 724 -222 724 -222 630 -329 c 132,-1,19
 536 -436 536 -436 350 -436 c 4,20,21
 208 -436 208 -436 115 -367 c 4,22,23
 12 -290 12 -290 12 -162 c 4,24,25
 12 -37 12 -37 115 13 c 4,26,27
 146 28 146 28 182 28 c 260,28,29
 255 28 255 28 305 -28 c 4,30,31
 352 -81 352 -81 352 -162 c 4,32,33
 352 -267 352 -267 276 -321 c 4,34,35
 252 -338 252 -338 224 -344 c 5,0,1
EndSplineSet
Validated: 1
EndChar

StartChar: longs
Encoding: 383 383 239
Width: 966
Flags: W
LayerCount: 2
Fore
SplineSet
122 -344 m 1,0,1
 166 -366 166 -366 202 -366 c 128,-1,2
 238 -366 238 -366 260 -350 c 128,-1,3
 282 -334 282 -334 296 -306 c 0,4,5
 320 -258 320 -258 320 -196 c 0,6,7
 320 -73 320 -73 266 20 c 0,8,9
 224 90 224 90 212 114 c 1,10,11
 204 142 204 142 204 154 c 2,12,-1
 206 856 l 1,13,-1
 56 856 l 1,14,-1
 56 928 l 1,15,-1
 206 928 l 1,16,-1
 206 1098 l 2,17,18
 206 1336 206 1336 302 1443 c 128,-1,19
 398 1550 398 1550 584 1550 c 0,20,21
 695 1550 695 1550 792 1496 c 0,22,23
 867 1454 867 1454 903 1377 c 0,24,25
 922 1336 922 1336 922 1291 c 128,-1,26
 922 1246 922 1246 908 1211 c 128,-1,27
 894 1176 894 1176 872 1150 c 128,-1,28
 850 1124 850 1124 818 1110 c 128,-1,29
 786 1096 786 1096 750 1096 c 128,-1,30
 714 1096 714 1096 683 1110 c 128,-1,31
 652 1124 652 1124 628 1150 c 0,32,33
 580 1202 580 1202 580 1284 c 0,34,35
 580 1349 580 1349 607 1388 c 0,36,37
 653 1455 653 1455 714 1468 c 1,38,39
 680 1480 680 1480 650 1480 c 128,-1,40
 620 1480 620 1480 596 1470 c 128,-1,41
 572 1460 572 1460 553 1437 c 0,42,43
 512 1387 512 1387 512 1280 c 0,44,45
 512 1172 512 1172 602 1018 c 1,46,-1
 628 946 l 1,47,-1
 626 16 l 2,48,49
 626 -222 626 -222 533 -329 c 128,-1,50
 440 -436 440 -436 259 -436 c 2,51,52
 259 -436 259 -436 221.5 -436 c 128,-1,53
 184 -436 184 -436 123 -419 c 128,-1,54
 62 -402 62 -402 15 -367 c 0,55,56
 -88 -290 -88 -290 -88 -162 c 0,57,58
 -88 -37 -88 -37 15 13 c 0,59,60
 46 28 46 28 83 28 c 128,-1,61
 120 28 120 28 151 13 c 128,-1,62
 182 -2 182 -2 205 -28 c 0,63,64
 254 -83 254 -83 254 -162 c 0,65,66
 254 -263 254 -263 175 -321 c 0,67,68
 152 -338 152 -338 122 -344 c 1,0,1
EndSplineSet
Validated: 1
EndChar

StartChar: uni0283
Encoding: 643 643 240
Width: 966
Flags: W
LayerCount: 2
Fore
SplineSet
122 -344 m 1,0,1
 166 -366 166 -366 202 -366 c 128,-1,2
 238 -366 238 -366 260 -350 c 128,-1,3
 282 -334 282 -334 296 -306 c 0,4,5
 320 -258 320 -258 320 -196 c 128,-1,6
 320 -134 320 -134 312 -101 c 128,-1,7
 304 -68 304 -68 292 -37 c 0,8,9
 272 14 272 14 244 60 c 128,-1,10
 216 106 216 106 212 114 c 0,11,12
 204 148 204 148 204 151 c 128,-1,13
 204 154 204 154 206 1098 c 0,14,15
 206 1336 206 1336 302 1443 c 128,-1,16
 398 1550 398 1550 584 1550 c 0,17,18
 695 1550 695 1550 792 1496 c 0,19,20
 867 1454 867 1454 903 1377 c 0,21,22
 922 1336 922 1336 922 1291 c 128,-1,23
 922 1246 922 1246 908 1211 c 128,-1,24
 894 1176 894 1176 872 1150 c 128,-1,25
 850 1124 850 1124 818 1110 c 128,-1,26
 786 1096 786 1096 750 1096 c 128,-1,27
 714 1096 714 1096 683 1110 c 128,-1,28
 652 1124 652 1124 628 1150 c 0,29,30
 580 1202 580 1202 580 1284 c 0,31,32
 580 1349 580 1349 607 1388 c 0,33,34
 653 1455 653 1455 714 1468 c 1,35,36
 680 1480 680 1480 650 1480 c 128,-1,37
 620 1480 620 1480 596 1470 c 128,-1,38
 572 1460 572 1460 553 1437 c 0,39,40
 512 1387 512 1387 512 1280 c 0,41,42
 512 1172 512 1172 602 1018 c 1,43,44
 602 1018 602 1018 628 946 c 1,45,-1
 626 16 l 2,46,47
 626 -224 626 -224 533 -330 c 128,-1,48
 440 -436 440 -436 259 -436 c 2,49,50
 259 -436 259 -436 221.5 -436 c 128,-1,51
 184 -436 184 -436 123 -419 c 128,-1,52
 62 -402 62 -402 15 -367 c 0,53,54
 -88 -290 -88 -290 -88 -162 c 0,55,56
 -88 -37 -88 -37 15 13 c 0,57,58
 46 28 46 28 84 28 c 256,59,60
 155 28 155 28 205 -28 c 0,61,62
 254 -83 254 -83 254 -162 c 0,63,64
 254 -263 254 -263 175 -321 c 0,65,66
 152 -338 152 -338 122 -344 c 1,0,1
EndSplineSet
Validated: 1
EndChar

StartChar: figuredash
Encoding: 8210 8210 245
Width: 796
Flags: W
LayerCount: 2
Fore
SplineSet
0 550 m 1,0,-1
 796 550 l 1,1,-1
 796 428 l 1,2,-1
 0 428 l 1,3,-1
 0 550 l 1,0,-1
EndSplineSet
Validated: 1
EndChar

StartChar: Eng
Encoding: 330 330 320
Width: 1576
Flags: W
LayerCount: 2
Fore
SplineSet
938 62 m 1,0,1
 962 46 962 46 994 46 c 128,-1,2
 1026 46 1026 46 1048 62 c 128,-1,3
 1070 78 1070 78 1082 104 c 0,4,5
 1106 156 1106 156 1106 221 c 128,-1,6
 1106 286 1106 286 1091 338 c 0,7,8
 1075 393 1075 393 1020 557 c 0,9,10
 1015 572 1015 572 1015 1115 c 4,11,12
 1015 1160 1015 1160 999 1218 c 0,13,14
 979 1286 979 1286 808 1286 c 256,15,16
 782 1286 782 1286 740 1269 c 128,-1,17
 698 1252 698 1252 675 1223 c 0,18,19
 636 1174 636 1174 636 1068 c 2,20,21
 636 1068 636 1068 636 72 c 1,22,-1
 706 72 l 1,23,-1
 706 0 l 1,24,-1
 90 0 l 1,25,-1
 90 72 l 1,26,-1
 216 72 l 1,27,-1
 216 1340 l 1,28,-1
 90 1340 l 1,29,-1
 90 1412 l 1,30,-1
 636 1412 l 1,31,-1
 636 1286 l 1,32,33
 674 1320 674 1320 709 1353 c 128,-1,34
 744 1386 744 1386 833 1407 c 0,35,36
 1015 1450 1015 1450 1114.5 1450 c 128,-1,37
 1214 1450 1214 1450 1334 1375 c 0,38,39
 1392 1339 1392 1339 1444 1233 c 128,-1,40
 1496 1127 1496 1127 1498 1042 c 0,41,42
 1499 1020 1499 1020 1499 917.5 c 128,-1,43
 1499 815 1499 815 1494 418 c 0,44,45
 1492 250 1492 250 1470 196 c 0,46,47
 1425 83 1425 83 1388 43 c 0,48,49
 1313 -38 1313 -38 1126 -38 c 0,50,51
 953 -38 953 -38 834 36 c 0,52,53
 712 112 712 112 712 240 c 0,54,55
 712 321 712 321 759 374 c 0,56,57
 807 428 807 428 880 428 c 0,58,59
 990 428 990 428 1033 313 c 0,60,61
 1046 278 1046 278 1046 228 c 128,-1,62
 1046 178 1046 178 1017 130 c 128,-1,63
 988 82 988 82 938 62 c 1,0,1
EndSplineSet
Validated: 1
EndChar

StartChar: eng
Encoding: 331 331 321
Width: 1460
Flags: W
LayerCount: 2
Fore
SplineSet
883 -344 m 1,0,1
 927 -366 927 -366 962 -366 c 128,-1,2
 997 -366 997 -366 1019 -350 c 128,-1,3
 1041 -334 1041 -334 1055 -306 c 0,4,5
 1079 -258 1079 -258 1079 -196 c 128,-1,6
 1079 -134 1079 -134 1071 -101 c 128,-1,7
 1063 -68 1063 -68 1051 -37 c 128,-1,8
 1039 -6 1039 -6 1024 20 c 0,9,10
 991 77 991 77 973 115 c 1,11,12
 973 548 973 548 965 815 c 0,13,14
 962 876 962 876 931 916 c 128,-1,15
 900 956 900 956 853.5 971 c 128,-1,16
 807 986 807 986 781 986 c 256,17,18
 755 986 755 986 721.5 969 c 128,-1,19
 688 952 688 952 670 923 c 0,20,21
 636 868 636 868 636 768 c 2,22,-1
 636 72 l 1,23,-1
 706 72 l 1,24,-1
 706 0 l 1,25,-1
 90 0 l 1,26,-1
 90 72 l 1,27,-1
 216 72 l 1,28,-1
 216 1040 l 1,29,-1
 90 1040 l 1,30,-1
 90 1112 l 1,31,-1
 636 1112 l 1,32,-1
 636 986 l 1,33,34
 702 1101 702 1101 856 1139 c 0,35,36
 900 1150 900 1150 972 1150 c 128,-1,37
 1044 1150 1044 1150 1137 1115 c 0,38,39
 1338 1039 1338 1039 1377 855 c 0,40,41
 1383 827 1383 827 1383 16 c 0,42,43
 1383 -222 1383 -222 1289 -329 c 128,-1,44
 1195 -436 1195 -436 1009 -436 c 0,45,46
 867 -436 867 -436 774 -367 c 0,47,48
 671 -290 671 -290 671 -162 c 0,49,50
 671 -37 671 -37 774 13 c 0,51,52
 805 28 805 28 841 28 c 256,53,54
 914 28 914 28 964 -28 c 0,55,56
 1011 -81 1011 -81 1011 -162 c 0,57,58
 1011 -267 1011 -267 935 -321 c 0,59,60
 911 -338 911 -338 883 -344 c 1,0,1
EndSplineSet
Validated: 1
EndChar

StartChar: breve
Encoding: 728 728 345
Width: 860
Flags: W
LayerCount: 2
Fore
SplineSet
86 1628 m 1,0,-1
 120 1696 l 1,1,2
 274 1534 274 1534 442 1534 c 0,3,4
 610 1534 610 1534 744 1696 c 1,5,-1
 778 1628 l 1,6,7
 623 1340 623 1340 441 1340 c 2,8,9
 441 1340 441 1340 438 1340 c 0,10,11
 254 1342 254 1342 86 1628 c 1,0,-1
EndSplineSet
Validated: 1
EndChar

StartChar: slashshortnosp
Encoding: 823 823 346
Width: 886
Flags: W
LayerCount: 2
Fore
SplineSet
888 1098 m 1,0,-1
 974 1024 l 1,1,-1
 -2 -8 l 1,2,-1
 -84 70 l 1,3,-1
 888 1098 l 1,0,-1
EndSplineSet
Validated: 1
EndChar

StartChar: slashlongnosp
Encoding: 824 824 347
Width: 1050
Flags: W
LayerCount: 2
Fore
SplineSet
1050 1364 m 1,0,-1
 1134 1288 l 1,1,-1
 0 48 l 1,2,-1
 -86 124 l 1,3,-1
 1050 1364 l 1,0,-1
EndSplineSet
Validated: 1
EndChar

StartChar: ogonek
Encoding: 731 731 348
Width: 652
Flags: W
LayerCount: 2
Fore
SplineSet
226 -42 m 5,0,-1
 302 -44 l 5,1,2
 240 -198 240 -198 240 -288 c 0,3,4
 240 -378 240 -378 289 -417 c 0,5,6
 312 -435 312 -435 366 -435 c 0,7,8
 420 -435 420 -435 517 -412 c 1,9,-1
 518 -517 l 1,10,11
 390 -622 390 -622 288 -622 c 0,12,13
 186 -622 186 -622 115 -503 c 0,14,15
 114 -502 114 -502 114 -501 c 0,16,17
 90 -448 90 -448 89 -386 c 0,18,19
 90 -240 90 -240 226 -42 c 5,0,-1
EndSplineSet
Validated: 1
EndChar

StartChar: pipe
Encoding: 448 448 349
Width: 290
Flags: W
LayerCount: 2
Fore
SplineSet
202 -180 m 1,0,-1
 98 -180 l 1,1,-1
 98 1678 l 1,2,-1
 202 1678 l 1,3,-1
 202 -180 l 1,0,-1
EndSplineSet
Validated: 1
EndChar

StartChar: mu
Encoding: 181 181 351
Width: 1378
Flags: W
LayerCount: 2
Fore
SplineSet
1172 98 m 256,0,1
 1214 98 1214 98 1214 302 c 1,2,-1
 1272 302 l 1,3,-1
 1272 268 l 2,4,5
 1272 79 1272 79 1208 17 c 0,6,7
 1151 -38 1151 -38 992 -38 c 0,8,9
 823 -38 823 -38 768 57 c 0,10,11
 750 88 750 88 740 132 c 1,12,13
 719 34 719 34 664 9 c 0,14,15
 644 0 644 0 616 0 c 0,16,17
 538 0 538 0 504 110 c 1,18,-1
 520 -510 l 1,19,-1
 98 -510 l 1,20,-1
 98 1112 l 1,21,-1
 520 1112 l 1,22,23
 506 645 506 645 506 486.5 c 128,-1,24
 506 328 506 328 516 270 c 128,-1,25
 526 212 526 212 543 181 c 0,26,27
 573 126 573 126 620 126 c 0,28,29
 694 126 694 126 717 260 c 0,30,31
 724 300 724 300 724 344 c 2,32,-1
 724 1112 l 1,33,-1
 1146 1112 l 1,34,-1
 1146 140 l 2,35,36
 1146 98 1146 98 1172 98 c 256,0,1
EndSplineSet
Validated: 1
EndChar

StartChar: exclam.ref1
Encoding: 1114112 -1 352
Width: 2048
LayerCount: 2
Fore
SplineSet
322 438 m 1,0,1
 156 922 156 922 124.5 1052.5 c 128,-1,2
 93 1183 93 1183 93 1221 c 0,3,4
 94 1325 94 1325 112 1359 c 0,5,6
 166 1456 166 1456 322 1456 c 0,7,8
 478 1456 478 1456 530 1358 c 0,9,10
 552 1318 552 1318 552 1237.5 c 128,-1,11
 552 1157 552 1157 534 1106 c 1,12,-1
 322 438 l 1,0,1
EndSplineSet
Validated: 1
Comment: "exclam had both contours and references, so the contours were moved into this glyph, and a reference to it was added in the original."
Colour: ff8080
EndChar

StartChar: question.ref1
Encoding: 1114113 -1 353
Width: 2048
Flags: W
LayerCount: 2
Fore
SplineSet
540 434 m 1,0,1
 460 506 460 506 460 646 c 0,2,3
 460 718 460 718 477 778 c 128,-1,4
 494 838 494 838 519 895 c 128,-1,5
 544 952 544 952 564 1014 c 0,6,7
 598 1118 598 1118 602 1216 c 0,8,9
 602 1292 602 1292 568.5 1336 c 128,-1,10
 535 1380 535 1380 473 1380 c 2,11,12
 472 1380 472 1380 460 1380 c 0,13,14
 425 1380 425 1380 366 1364 c 1,15,16
 436 1346 436 1346 474 1290 c 1,17,18
 514 1238 514 1238 516 1177 c 0,19,20
 516 1171 516 1171 516 1166 c 0,21,22
 516 1030 516 1030 400 968 c 0,23,24
 364 952 364 952 324 952 c 0,25,26
 246 952 246 952 184 1014 c 0,27,28
 130 1072 130 1072 130 1150 c 0,29,30
 130 1297 130 1297 240 1370 c 0,31,32
 358 1446 358 1446 562 1446 c 0,33,34
 729 1446 729 1446 842 1364 c 0,35,36
 900 1320 900 1320 934 1257 c 128,-1,37
 968 1194 968 1194 968 1128 c 1,38,39
 968 1128 968 1128 962 1062 c 128,-1,40
 956 996 956 996 950 990 c 0,41,42
 838 814 838 814 722 706 c 1,43,-1
 612 608 l 1,44,45
 576 554 576 554 540 434 c 1,0,1
EndSplineSet
Validated: 1
Comment: "question had both contours and references, so the contours were moved into this glyph, and a reference to it was added in the original."
Colour: ff8080
EndChar

StartChar: Karlo
Encoding: 65533 65533 354
Width: 2378
Flags: W
LayerCount: 2
Fore
SplineSet
1252 710 m 1,0,-1
 1250 4 l 1,1,-1
 1846 712 l 1,2,-1
 1975 712 l 1,3,-1
 1622 246 l 1,4,-1
 2016 -186 l 9,5,-1
 1860 -192 l 17,6,-1
 1528 160 l 1,7,-1
 1244 -150 l 1,8,-1
 1128 -150 l 1,9,-1
 1130 668 l 1,10,-1
 798 1020 l 1,11,-1
 514 710 l 1,12,-1
 398 710 l 1,13,-1
 396 1574 l 1,14,-1
 520 1574 l 1,15,-1
 520 864 l 1,16,-1
 1116 1572 l 1,17,-1
 1245 1572 l 1,18,-1
 892 1106 l 1,19,-1
 1252 710 l 1,0,-1
64 -410 m 1,20,-1
 64 1800 l 1,21,-1
 2334 1800 l 1,22,-1
 2334 -410 l 1,23,-1
 64 -410 l 1,20,-1
232 -266 m 1,24,-1
 2164 -266 l 1,25,-1
 2164 1660 l 1,26,-1
 232 1660 l 1,27,-1
 232 -266 l 1,24,-1
EndSplineSet
Validated: 1
EndChar

StartChar: Vertical.line
Encoding: 1114110 1114110 361
Width: 290
Flags: W
LayerCount: 2
Fore
SplineSet
202 -180 m 1,0,-1
 98 -180 l 1,1,-1
 98 1348 l 5,2,-1
 202 1348 l 5,3,-1
 202 -180 l 1,0,-1
EndSplineSet
Validated: 1
EndChar

StartChar: uni2023
Encoding: 8227 8227 369
Width: 764
Flags: W
LayerCount: 2
Fore
SplineSet
98 156 m 1,0,-1
 98 834 l 1,1,-1
 678 492 l 1,2,-1
 98 156 l 1,0,-1
EndSplineSet
Validated: 1
EndChar

StartChar: Flower
Encoding: 8277 8277 371
Width: 839
VWidth: 1778
Flags: W
LayerCount: 2
Fore
SplineSet
426 578 m 1,0,1
 426 578 426 578 426 536 c 1,2,-1
 456 566 l 1,3,4
 476 596 476 596 486 622 c 0,5,6
 522 713 522 713 549 740.5 c 128,-1,7
 576 768 576 768 604 768 c 128,-1,8
 632 768 632 768 656.5 744 c 128,-1,9
 681 720 681 720 681 690 c 0,10,11
 682 660 682 660 662 641 c 0,12,13
 631 611 631 611 562.5 582 c 128,-1,14
 494 553 494 553 487 547.5 c 128,-1,15
 480 542 480 542 450 512 c 1,16,-1
 492 512 l 1,17,18
 528 520 528 520 554 531 c 0,19,20
 644 570 644 570 682 570 c 128,-1,21
 720 570 720 570 740 550 c 128,-1,22
 760 530 760 530 760 496 c 128,-1,23
 760 462 760 462 739 441 c 128,-1,24
 718 420 718 420 691 420 c 0,25,26
 646 420 646 420 578 448 c 128,-1,27
 510 476 510 476 501 477 c 128,-1,28
 492 478 492 478 450 478 c 1,29,-1
 480 448 l 1,30,31
 510 428 510 428 536 418 c 0,32,33
 627 382 627 382 654.5 355 c 128,-1,34
 682 328 682 328 682 300 c 128,-1,35
 682 272 682 272 658 247.5 c 128,-1,36
 634 223 634 223 604 223 c 0,37,38
 574 222 574 222 555 242 c 0,39,40
 525 273 525 273 496 341.5 c 128,-1,41
 467 410 467 410 461.5 417 c 128,-1,42
 456 424 456 424 426 454 c 1,43,-1
 426 412 l 1,44,45
 434 376 434 376 445 350 c 0,46,47
 484 260 484 260 484 222 c 128,-1,48
 484 184 484 184 464 164 c 128,-1,49
 444 144 444 144 410 144 c 128,-1,50
 376 144 376 144 355 165 c 128,-1,51
 334 186 334 186 334 213 c 0,52,53
 334 258 334 258 362 326 c 128,-1,54
 390 394 390 394 391 403 c 128,-1,55
 392 412 392 412 392 454 c 1,56,-1
 362 424 l 1,57,58
 338 385 338 385 329 363 c 0,59,60
 297 280 297 280 270 251.5 c 128,-1,61
 243 223 243 223 213.5 223 c 128,-1,62
 184 223 184 223 160 247.5 c 128,-1,63
 136 272 136 272 136 300 c 0,64,65
 136 347 136 347 207 385 c 0,66,67
 225 395 225 395 260 409 c 128,-1,68
 295 423 295 423 338 448 c 1,69,70
 338 448 338 448 368 478 c 1,71,-1
 326 478 l 1,72,73
 285 469 285 469 262 458 c 0,74,75
 175 420 175 420 137.5 420 c 128,-1,76
 100 420 100 420 79 441 c 128,-1,77
 58 462 58 462 58 496 c 128,-1,78
 58 530 58 530 78 550 c 128,-1,79
 98 570 98 570 127 570 c 0,80,81
 171 570 171 570 224.5 547.5 c 128,-1,82
 278 525 278 525 326 512 c 1,83,84
 326 512 326 512 368 512 c 1,85,-1
 338 542 l 1,86,87
 299 566 299 566 277 575 c 0,88,89
 194 607 194 607 165.5 634 c 128,-1,90
 137 661 137 661 137 690.5 c 128,-1,91
 137 720 137 720 161.5 744 c 128,-1,92
 186 768 186 768 214 768 c 0,93,94
 261 768 261 768 299 697 c 0,95,96
 309 679 309 679 323 644 c 128,-1,97
 337 609 337 609 362 566 c 1,98,99
 362 566 362 566 392 536 c 1,100,-1
 392 578 l 1,101,102
 383 618 383 618 372 642 c 0,103,104
 334 728 334 728 334 766 c 128,-1,105
 334 804 334 804 355 825 c 128,-1,106
 376 846 376 846 410 846 c 128,-1,107
 444 846 444 846 464 826 c 128,-1,108
 484 806 484 806 484 777 c 0,109,110
 484 733 484 733 461.5 679.5 c 128,-1,111
 439 626 439 626 426 578 c 1,0,1
EndSplineSet
Validated: 1
EndChar

StartChar: florin
Encoding: 402 402 376
Width: 966
Flags: W
LayerCount: 2
Fore
SplineSet
122 -344 m 5,0,1
 166 -366 166 -366 202 -366 c 132,-1,2
 238 -366 238 -366 260 -350 c 132,-1,3
 282 -334 282 -334 296 -306 c 4,4,5
 320 -258 320 -258 320 -196 c 4,6,7
 320 -73 320 -73 266 20 c 4,8,9
 224 90 224 90 212 114 c 5,10,11
 204 142 204 142 204 154 c 6,12,-1
 206 856 l 5,13,-1
 56 856 l 5,14,-1
 56 928 l 5,15,-1
 206 928 l 5,16,-1
 206 1098 l 2,17,18
 206 1336 206 1336 302 1443 c 128,-1,19
 398 1550 398 1550 584 1550 c 0,20,21
 695 1550 695 1550 792 1496 c 0,22,23
 867 1454 867 1454 903 1377 c 0,24,25
 922 1336 922 1336 922 1291 c 128,-1,26
 922 1246 922 1246 908 1211 c 128,-1,27
 894 1176 894 1176 872 1150 c 128,-1,28
 850 1124 850 1124 818 1110 c 128,-1,29
 786 1096 786 1096 750 1096 c 128,-1,30
 714 1096 714 1096 683 1110 c 128,-1,31
 652 1124 652 1124 628 1150 c 0,32,33
 580 1202 580 1202 580 1284 c 0,34,35
 580 1349 580 1349 607 1388 c 0,36,37
 653 1455 653 1455 714 1468 c 1,38,39
 680 1480 680 1480 650 1480 c 128,-1,40
 620 1480 620 1480 596 1470 c 128,-1,41
 572 1460 572 1460 553 1437 c 0,42,43
 512 1387 512 1387 512 1280 c 0,44,45
 512 1172 512 1172 602 1018 c 1,46,-1
 628 946 l 5,47,-1
 628 928 l 5,48,-1
 783 928 l 5,49,-1
 783 856 l 5,50,-1
 628 856 l 5,51,-1
 626 16 l 6,52,53
 626 -222 626 -222 533 -329 c 132,-1,54
 440 -436 440 -436 259 -436 c 6,55,56
 259 -436 259 -436 221.5 -436 c 132,-1,57
 184 -436 184 -436 123 -419 c 132,-1,58
 62 -402 62 -402 15 -367 c 4,59,60
 -88 -290 -88 -290 -88 -162 c 4,61,62
 -88 -37 -88 -37 15 13 c 4,63,64
 46 28 46 28 83 28 c 132,-1,65
 120 28 120 28 151 13 c 132,-1,66
 182 -2 182 -2 205 -28 c 4,67,68
 254 -83 254 -83 254 -162 c 4,69,70
 254 -263 254 -263 175 -321 c 4,71,72
 152 -338 152 -338 122 -344 c 5,0,1
EndSplineSet
Validated: 1
EndChar

StartChar: uni0191
Encoding: 401 401 377
Width: 1254
Flags: W
LayerCount: 2
Fore
SplineSet
132 -344 m 1,0,1
 176 -366 176 -366 212 -366 c 128,-1,2
 248 -366 248 -366 270 -350 c 128,-1,3
 292 -334 292 -334 306 -306 c 0,4,5
 330 -258 330 -258 330 -196 c 0,6,7
 330 -73 330 -73 276 20 c 0,8,9
 234 90 234 90 222 114 c 1,10,11
 214 142 214 142 214 148 c 128,-1,12
 214 154 214 154 216 1340 c 1,13,-1
 92 1340 l 1,14,-1
 92 1418 l 1,15,-1
 1158 1418 l 1,16,-1
 1158 882 l 1,17,-1
 1110 882 l 1,18,-1
 910 1340 l 1,19,-1
 706 1340 l 1,20,-1
 706 670 l 1,21,-1
 820 670 l 1,22,-1
 908 1000 l 1,23,-1
 952 1000 l 1,24,-1
 952 258 l 1,25,-1
 908 258 l 1,26,-1
 820 590 l 1,27,-1
 706 590 l 1,28,-1
 706 16 l 1,29,30
 705 -220 705 -220 613.5 -328 c 128,-1,31
 522 -436 522 -436 269 -436 c 2,32,33
 269 -436 269 -436 231.5 -436 c 128,-1,34
 194 -436 194 -436 133 -419 c 128,-1,35
 72 -402 72 -402 25 -367 c 0,36,37
 -78 -290 -78 -290 -78 -162 c 0,38,39
 -78 -37 -78 -37 25 13 c 0,40,41
 56 28 56 28 93 28 c 128,-1,42
 130 28 130 28 161 13 c 128,-1,43
 192 -2 192 -2 215 -28 c 0,44,45
 264 -83 264 -83 264 -162 c 0,46,47
 264 -263 264 -263 185 -321 c 0,48,49
 162 -338 162 -338 132 -344 c 1,0,1
EndSplineSet
Validated: 1
EndChar
